<svg width="87.10000000000001" height="98.2" xmlns="http://www.w3.org/2000/svg" xmlns:xlink="http://www.w3.org/1999/xlink">
 <title>icon-eda</title>
 <defs>
  <symbol id="svg_35" width="480pt" viewBox="0 -63 480 479" height="480pt">
   <path d="m472,288.5l-16,0l0,-248c-0.02734,-22.08203 -17.91797,-39.97266 -40,-40l-352,0c-22.08203,0.02734 -39.97266,17.91797 -40,40l0,248l-16,0c-4.41797,0 -8,3.58203 -8,8l0,32c0,13.25391 10.74609,24 24,24l432,0c13.25391,0 24,-10.74609 24,-24l0,-32c0,-4.41797 -3.58203,-8 -8,-8zm-432,-248c0,-13.25391 10.74609,-24 24,-24l352,0c13.25391,0 24,10.74609 24,24l0,248l-400,0l0,-248zm424,288c0,4.41797 -3.58203,8 -8,8l-432,0c-4.41797,0 -8,-3.58203 -8,-8l0,-24l448,0l0,24zm0,0"/>
   <path d="m208,312.5l64,0l0,16l-64,0l0,-16zm0,0"/>
   <path d="m144,88.5c-35.34766,0 -64,28.65234 -64,64s28.65234,64 64,64s64,-28.65234 64,-64c-0.03906,-35.32812 -28.67187,-63.96094 -64,-64zm-8,16.71875l0,39.28125l-39.28125,0c3.4375,-20.10156 19.17969,-35.84375 39.28125,-39.28125zm-39.28125,55.28125l44,0l31.08203,31.07813c-13.4414,9.62109 -30.89453,11.625 -46.16797,5.30078c-15.26953,-6.32032 -26.20312,-20.07422 -28.91406,-36.37891zm86.40234,19.76953l-31.12109,-31.08203l0,-44c16.29297,2.71875 30.03516,13.64063 36.35547,28.90234c6.32031,15.26172 4.32812,32.70313 -5.27734,46.14454l0.04296,0.03515zm0,0"/>
   <path d="m392,88.5l-16,0l0,104l-16,0l0,-88l-16,0l0,88l-16,0l0,-64l-16,0l0,64l-16,0l0,-40l-16,0l0,40l-16,0l0,-120l-16,0l0,128c0,4.41797 3.58203,8 8,8l152,0l0,-16l-16,0l0,-104zm0,0"/>
   <path d="m192,72.5l32,0l0,16l-32,0l0,-16zm0,0"/>
   <path d="m192,48.5l32,0l0,16l-32,0l0,-16zm0,0"/>
   <path d="m72,72.5l32,0l0,16l-32,0l0,-16zm0,0"/>
   <path d="m72,48.5l32,0l0,16l-32,0l0,-16zm0,0"/>
   <path d="m88,224.5l32,0l0,16l-32,0l0,-16zm0,0"/>
   <path d="m88,248.5l32,0l0,16l-32,0l0,-16zm0,0"/>
   <path d="m256,224.5l64,0l0,16l-64,0l0,-16zm0,0"/>
   <path d="m256,248.5l16,0l0,16l-16,0l0,-16zm0,0"/>
   <path d="m288,248.5l32,0l0,16l-32,0l0,-16zm0,0"/>
  </symbol>
 </defs>
 <g>
  <title>background</title>
  <rect x="-1" y="-1" width="89.1" height="100.2" id="canvas_background" fill="none"/>
 </g>
 <g>
  <title>Layer 1</title>
  <path d="m86.9,28.43333a7.7,7.7 0 0 0 -3.5,-6l-36.4,-21a7.7,7.7 0 0 0 -6.9,0l-36.4,21a7.7,7.7 0 0 0 -3.5,6l0,42a7.7,7.7 0 0 0 3.5,6l36.4,21a7.7,7.7 0 0 0 6.9,0l36.4,-21a7.7,7.7 0 0 0 3.5,-6l0,-42z" stroke-width="0.5px" stroke-miterlimit="10" stroke="#000" fill="none" id="svg_2"/>
  <use x="176.37496" y="-154.63585" transform="matrix(0.08811398141444649,0,0,0.08811398141444649,-0.18758283979082968,34.529102975871865) " xlink:href="#svg_35" id="svg_36"/>
 </g>
</svg>