<svg width="87.10000000000001" height="98.2" xmlns="http://www.w3.org/2000/svg">
 <title>icon-eda</title>

 <g>
  <title>background</title>
  <rect fill="none" id="canvas_background" height="100.2" width="89.1" y="-1" x="-1"/>
 </g>
 <g>
  <title>Layer 1</title>
  <path id="svg_2" fill="none" stroke="#000" stroke-miterlimit="10" stroke-width="0.5px" d="m86.9,28.43333a7.7,7.7 0 0 0 -3.5,-6l-36.4,-21a7.7,7.7 0 0 0 -6.9,0l-36.4,21a7.7,7.7 0 0 0 -3.5,6l0,42a7.7,7.7 0 0 0 3.5,6l36.4,21a7.7,7.7 0 0 0 6.9,0l36.4,-21a7.7,7.7 0 0 0 3.5,-6l0,-42z"/>
  <g stroke="null" id="svg_58">
   <g stroke="null" transform="matrix(0.10604779682006203,0,0,0.10604779682006203,-11.020678760004465,-13.633834787437081) " id="svg_31">
    <g stroke="null" id="svg_32">
     <path stroke="null" id="svg_33" d="m350.10718,391.82584l-0.121,0c-18.519,0.271 -33.581,15.565 -33.581,34.093l0,48.72l-50.284,0c-4.162,0 -7.536,3.374 -7.536,7.536s3.374,7.536 7.536,7.536l50.285,0l0,39.622l-50.285,0c-4.162,0 -7.536,3.374 -7.536,7.536s3.374,7.536 7.536,7.536l50.285,0l0,39.621l-50.285,0c-4.162,0.001 -7.536,3.375 -7.536,7.537s3.374,7.536 7.536,7.536l50.285,0l0,39.621l-50.285,0c-4.162,0 -7.536,3.374 -7.536,7.536s3.374,7.536 7.536,7.536l50.285,0l0,39.622l-50.285,0c-4.162,0 -7.536,3.374 -7.536,7.536s3.374,7.536 7.536,7.536l50.285,0l0,25.77c0,4.16 3.376,7.536 7.536,7.536s7.536,-3.376 7.536,-7.536l0,-308.336c0,-10.34 8.4,-18.87 18.74,-19.031c4.16,-0.06 7.486,-3.477 7.416,-7.647c-0.061,-4.12 -3.417,-7.416 -7.527,-7.416z"/>
    </g>
   </g>
   <g stroke="null" transform="matrix(0.10604779682006203,0,0,0.10604779682006203,-11.020678760004465,-13.633834787437081) " id="svg_34">
    <g stroke="null" id="svg_35">
     <path stroke="null" id="svg_36" d="m668.75318,773.11184l-318.244,0c-7.767,0 -14.68,-4.642 -17.624,-11.827c-1.578,-3.858 -5.969,-5.697 -9.827,-4.12c-3.859,1.578 -5.697,5.979 -4.12,9.827c5.265,12.872 17.655,21.191 31.571,21.191l47.153,0l0,51.842c0,4.162 3.374,7.536 7.536,7.536s7.536,-3.374 7.536,-7.536l0,-51.842l39.622,0l0,51.842c0,4.162 3.374,7.536 7.536,7.536s7.536,-3.374 7.536,-7.536l0,-51.842l39.621,0l0,51.842c0,4.162 3.374,7.536 7.536,7.536s7.536,-3.374 7.536,-7.536l0,-51.842l39.621,0l0,51.842c0,4.162 3.374,7.536 7.536,7.536s7.536,-3.374 7.536,-7.536l0,-51.842l39.622,0l0,51.842c0,4.162 3.374,7.536 7.536,7.536s7.536,-3.374 7.536,-7.536l0,-51.842l37.245,0c4.16,0 7.536,-3.376 7.536,-7.536c0,-4.168 -3.376,-7.535 -7.536,-7.535z"/>
    </g>
   </g>
   <g stroke="null" transform="matrix(0.10604779682006203,0,0,0.10604779682006203,-11.020678760004465,-13.633834787437081) " id="svg_37">
    <g stroke="null" id="svg_38">
     <path stroke="null" id="svg_39" d="m616.79418,463.70084l-204.418,0c-13.284,0 -24.085,10.802 -24.085,24.085l0,204.429c0,13.284 10.802,24.085 24.085,24.085l204.419,0c13.284,0 24.085,-10.802 24.085,-24.085l0,-204.429c0,-13.284 -10.802,-24.085 -24.086,-24.085zm-213.432,24.085c0,-4.974 4.039,-9.013 9.013,-9.013l155.885,0l0,78.707c-13.624,2.944 -24.386,13.706 -27.329,27.331l-55.536,0l0,-38.645c14.238,-2.783 25.01,-15.354 25.01,-30.396c0,-17.072 -13.897,-30.968 -30.978,-30.968c-15.042,0 -27.611,10.771 -30.396,24.999l-45.669,0l0,-22.015zm172.436,83.962c11.354,0 20.589,9.244 20.589,20.599s-9.234,20.589 -20.589,20.589c-11.436,0 -20.599,-9.325 -20.599,-20.589c0.001,-11.285 9.189,-20.599 20.599,-20.599zm-96.371,-40.072c-8.715,0 -15.906,-7.088 -15.906,-15.906c0,-8.762 7.134,-15.896 15.906,-15.896c8.772,0 15.906,7.134 15.906,15.896c0,8.848 -7.204,15.906 -15.906,15.906zm-32.546,123.17c-4.371,-2.452 -7.325,-7.144 -7.325,-12.5c0,-7.908 6.441,-14.339 14.349,-14.339c7.908,0 14.339,6.431 14.339,14.339c-0.001,10.958 -11.853,17.876 -21.363,12.5zm60.95,46.382l-50.56,0l0,-29.662c14.64,-1.668 26.045,-14.138 26.045,-29.22c0,-16.218 -13.193,-29.411 -29.411,-29.411c-16.228,0 -29.421,13.193 -29.421,29.411c0,12.058 7.295,22.458 17.715,26.989l0,31.893l-29.823,0c-4.974,0 -9.013,-4.049 -9.013,-9.013l0,-167.342l46.452,0c0.064,0.104 4.114,15.471 20.508,20.509l0,46.965c0,4.16 3.376,7.536 7.536,7.536l29.972,0l0,101.345zm117.977,-9.013c0,4.964 -4.039,9.013 -9.013,9.013l-93.892,0l0,-32.59l102.905,0l0,23.577zm0,-38.649l-102.905,0l0,-53.683l18.028,0c3.467,16.057 17.785,28.125 34.867,28.125c19.664,0 35.661,-15.997 35.661,-35.661c0,-17.082 -12.068,-31.4 -28.125,-34.867c0,0 -0.001,0 -0.002,0l0,-78.707l33.462,0c4.974,0 9.013,4.039 9.013,9.013l0,165.78l0.001,0z"/>
    </g>
   </g>
   <g stroke="null" transform="matrix(0.10604779682006203,0,0,0.10604779682006203,-11.020678760004465,-13.633834787437081) " id="svg_40">
    <g stroke="null" id="svg_41">
     <path stroke="null" id="svg_42" d="m763.04918,544.40584c4.162,0 7.536,-3.374 7.536,-7.536s-3.374,-7.536 -7.536,-7.536l-50.285,0l0,-39.622l50.285,0c4.162,0 7.536,-3.374 7.536,-7.536s-3.374,-7.536 -7.536,-7.536l-50.285,0l0,-48.72c0,-18.8 -15.293,-34.103 -34.103,-34.103l-47.153,0l0,-48.718c0,-4.162 -3.374,-7.536 -7.536,-7.536s-7.536,3.374 -7.536,7.536l0,48.717l-39.622,0l0,-48.717c0,-4.162 -3.374,-7.536 -7.536,-7.536s-7.536,3.374 -7.536,7.536l0,48.717l-39.621,0l0,-48.717c0,-4.162 -3.374,-7.536 -7.536,-7.536s-7.536,3.374 -7.536,7.536l0,48.717l-39.621,0l0,-48.717c0,-4.162 -3.374,-7.536 -7.536,-7.536s-7.536,3.374 -7.536,7.536l0,48.717l-39.622,0l0,-48.717c0,-4.162 -3.374,-7.536 -7.536,-7.536s-7.536,3.374 -7.536,7.536l0,48.717l-17.41,0c-4.17,0 -7.536,3.376 -7.536,7.536s3.366,7.536 7.536,7.536c39.477,0 266.815,0 298.409,0c10.5,0 19.031,8.541 19.031,19.031l0,328.162c0,5.255 -2.09,10.149 -5.898,13.776c-3.014,2.874 -3.135,7.647 -0.261,10.651c1.487,1.557 3.467,2.341 5.456,2.341c1.869,0 3.738,-0.693 5.205,-2.08c6.813,-6.501 10.571,-15.273 10.571,-24.688l0,-45.595l50.285,0c4.162,0 7.536,-3.374 7.536,-7.536s-3.374,-7.536 -7.536,-7.536l-50.285,0l0,-39.622l50.285,0c4.162,0 7.536,-3.374 7.536,-7.536s-3.374,-7.536 -7.536,-7.536l-50.285,0l0,-39.621l50.285,0c4.162,0 7.536,-3.374 7.536,-7.536s-3.374,-7.536 -7.536,-7.536l-50.285,0l0,-39.621l50.284,0z"/>
    </g>
   </g>
   <g stroke="null" transform="matrix(0.10604779682006203,0,0,0.10604779682006203,-11.020678760004465,-13.633834787437081) " id="svg_43"/>
   <g stroke="null" transform="matrix(0.10604779682006203,0,0,0.10604779682006203,-11.020678760004465,-13.633834787437081) " id="svg_44"/>
   <g stroke="null" transform="matrix(0.10604779682006203,0,0,0.10604779682006203,-11.020678760004465,-13.633834787437081) " id="svg_45"/>
   <g stroke="null" transform="matrix(0.10604779682006203,0,0,0.10604779682006203,-11.020678760004465,-13.633834787437081) " id="svg_46"/>
   <g stroke="null" transform="matrix(0.10604779682006203,0,0,0.10604779682006203,-11.020678760004465,-13.633834787437081) " id="svg_47"/>
   <g stroke="null" transform="matrix(0.10604779682006203,0,0,0.10604779682006203,-11.020678760004465,-13.633834787437081) " id="svg_48"/>
   <g stroke="null" transform="matrix(0.10604779682006203,0,0,0.10604779682006203,-11.020678760004465,-13.633834787437081) " id="svg_49"/>
   <g stroke="null" transform="matrix(0.10604779682006203,0,0,0.10604779682006203,-11.020678760004465,-13.633834787437081) " id="svg_50"/>
   <g stroke="null" transform="matrix(0.10604779682006203,0,0,0.10604779682006203,-11.020678760004465,-13.633834787437081) " id="svg_51"/>
   <g stroke="null" transform="matrix(0.10604779682006203,0,0,0.10604779682006203,-11.020678760004465,-13.633834787437081) " id="svg_52"/>
   <g stroke="null" transform="matrix(0.10604779682006203,0,0,0.10604779682006203,-11.020678760004465,-13.633834787437081) " id="svg_53"/>
   <g stroke="null" transform="matrix(0.10604779682006203,0,0,0.10604779682006203,-11.020678760004465,-13.633834787437081) " id="svg_54"/>
   <g stroke="null" transform="matrix(0.10604779682006203,0,0,0.10604779682006203,-11.020678760004465,-13.633834787437081) " id="svg_55"/>
   <g stroke="null" transform="matrix(0.10604779682006203,0,0,0.10604779682006203,-11.020678760004465,-13.633834787437081) " id="svg_56"/>
   <g stroke="null" transform="matrix(0.10604779682006203,0,0,0.10604779682006203,-11.020678760004465,-13.633834787437081) " id="svg_57"/>
  </g>
 </g>
</svg>