<svg width="87.1" height="98.2" xmlns="http://www.w3.org/2000/svg">
 <title>icon-eda</title>

 <g>
  <title>background</title>
  <rect fill="none" id="canvas_background" height="602" width="802" y="-1" x="-1"/>
 </g>
 <g>
  <title>Layer 1</title>
  <path id="svg_2" fill="none" stroke="#000" stroke-miterlimit="10" stroke-width="0.5px" d="m86.9,28.1a7.7,7.7 0 0 0 -3.5,-6l-36.4,-21a7.7,7.7 0 0 0 -6.9,0l-36.4,21a7.7,7.7 0 0 0 -3.5,6l0,42a7.7,7.7 0 0 0 3.5,6l36.4,21a7.7,7.7 0 0 0 6.9,0l36.4,-21a7.7,7.7 0 0 0 3.5,-6l0,-42z"/>
  <g stroke="null" id="svg_148">
   <g stroke="null" transform="matrix(0.1104264785354276,0,0,0.1104264785354276,-17.878159934789437,-21.40845968110625) " id="svg_109">
    <path stroke="null" id="svg_110" d="m788.28112,435.00948l-464,0c-12.958,0 -23.5,10.542 -23.5,23.5l0,304c0,12.958 10.542,23.5 23.5,23.5l158.057,0l-11.714,41l-34.343,0c-4.142,0 -7.5,3.358 -7.5,7.5s3.358,7.5 7.5,7.5l39.976,0c0.009,0 0.019,0.002 0.028,0.002c0.008,0 0.016,-0.002 0.024,-0.002l159.944,0c0.008,0 0.016,0.002 0.024,0.002c0.009,0 0.019,-0.002 0.028,-0.002l39.976,0c4.142,0 7.5,-3.358 7.5,-7.5s-3.358,-7.5 -7.5,-7.5l-34.343,0l-11.714,-41l158.057,0c12.958,0 23.5,-10.542 23.5,-23.5l0,-304c0,-12.958 -10.542,-23.5 -23.5,-23.5zm-161.943,392l-140.114,0l11.714,-41l116.686,0l11.714,41zm170.443,-64.5c0,4.687 -3.813,8.5 -8.5,8.5l-167.823,0c-0.001,0 -0.002,0 -0.003,0l-296.174,0c-4.687,0 -8.5,-3.813 -8.5,-8.5l0,-304c0,-4.687 3.813,-8.5 8.5,-8.5l464,0c4.687,0 8.5,3.813 8.5,8.5l0,304z"/>
    <path stroke="null" id="svg_111" d="m772.28112,467.00948l-432,0c-4.142,0 -7.5,3.358 -7.5,7.5l0,272c0,4.142 3.358,7.5 7.5,7.5l432,0c4.142,0 7.5,-3.358 7.5,-7.5l0,-272c0,-4.142 -3.358,-7.5 -7.5,-7.5zm-7.5,15l0,49l-417,0l0,-49l417,0zm-417,64l105,0l0,193l-105,0l0,-193zm120,193l0,-193l297,0l0,193l-297,0z"/>
    <path stroke="null" id="svg_112" d="m372.28112,514.00948l24,0c4.142,0 7.5,-3.358 7.5,-7.5s-3.358,-7.5 -7.5,-7.5l-24,0c-4.142,0 -7.5,3.358 -7.5,7.5s3.358,7.5 7.5,7.5z"/>
    <path stroke="null" id="svg_113" d="m428.28112,514.00948l24,0c4.142,0 7.5,-3.358 7.5,-7.5s-3.358,-7.5 -7.5,-7.5l-24,0c-4.142,0 -7.5,3.358 -7.5,7.5s3.358,7.5 7.5,7.5z"/>
    <path stroke="null" id="svg_114" d="m484.28112,514.00948l24,0c4.142,0 7.5,-3.358 7.5,-7.5s-3.358,-7.5 -7.5,-7.5l-24,0c-4.142,0 -7.5,3.358 -7.5,7.5s3.358,7.5 7.5,7.5z"/>
    <path stroke="null" id="svg_115" d="m540.28112,514.00948l24,0c4.142,0 7.5,-3.358 7.5,-7.5s-3.358,-7.5 -7.5,-7.5l-24,0c-4.142,0 -7.5,3.358 -7.5,7.5s3.358,7.5 7.5,7.5z"/>
    <path stroke="null" id="svg_116" d="m596.28112,514.00948l80,0c4.142,0 7.5,-3.358 7.5,-7.5s-3.358,-7.5 -7.5,-7.5l-80,0c-4.142,0 -7.5,3.358 -7.5,7.5s3.358,7.5 7.5,7.5z"/>
    <path stroke="null" id="svg_117" d="m740.28112,514.00948c1.97,0 3.91,-0.8 5.3,-2.2c1.4,-1.4 2.2,-3.33 2.2,-5.3c0,-1.97 -0.8,-3.91 -2.2,-5.3c-1.39,-1.4 -3.32,-2.2 -5.3,-2.2s-3.91,0.8 -5.3,2.2c-1.4,1.39 -2.2,3.33 -2.2,5.3c0,1.97 0.8,3.91 2.2,5.3c1.39,1.4 3.33,2.2 5.3,2.2z"/>
    <path stroke="null" id="svg_118" d="m708.28112,514.00948c1.97,0 3.91,-0.8 5.3,-2.2c1.4,-1.39 2.2,-3.33 2.2,-5.3c0,-1.98 -0.8,-3.91 -2.2,-5.3c-1.39,-1.4 -3.33,-2.2 -5.3,-2.2c-1.97,0 -3.91,0.8 -5.3,2.2c-1.4,1.39 -2.2,3.32 -2.2,5.3c0,1.97 0.8,3.91 2.2,5.3c1.39,1.4 3.33,2.2 5.3,2.2z"/>
    <path stroke="null" id="svg_119" d="m372.28112,578.00948l56,0c4.142,0 7.5,-3.358 7.5,-7.5s-3.358,-7.5 -7.5,-7.5l-56,0c-4.142,0 -7.5,3.358 -7.5,7.5s3.358,7.5 7.5,7.5z"/>
    <path stroke="null" id="svg_120" d="m492.28112,578.00948l56,0c4.142,0 7.5,-3.358 7.5,-7.5s-3.358,-7.5 -7.5,-7.5l-56,0c-4.142,0 -7.5,3.358 -7.5,7.5s3.358,7.5 7.5,7.5z"/>
    <path stroke="null" id="svg_121" d="m580.28112,578.00948l32,0c4.142,0 7.5,-3.358 7.5,-7.5s-3.358,-7.5 -7.5,-7.5l-32,0c-4.142,0 -7.5,3.358 -7.5,7.5s3.358,7.5 7.5,7.5z"/>
    <path stroke="null" id="svg_122" d="m492.28112,610.00948l56,0c4.142,0 7.5,-3.358 7.5,-7.5s-3.358,-7.5 -7.5,-7.5l-56,0c-4.142,0 -7.5,3.358 -7.5,7.5s3.358,7.5 7.5,7.5z"/>
    <path stroke="null" id="svg_123" d="m652.28112,627.00948l-136,0c-4.142,0 -7.5,3.358 -7.5,7.5s3.358,7.5 7.5,7.5l136,0c4.142,0 7.5,-3.358 7.5,-7.5s-3.358,-7.5 -7.5,-7.5z"/>
    <path stroke="null" id="svg_124" d="m708.28112,627.00948l-24,0c-4.142,0 -7.5,3.358 -7.5,7.5s3.358,7.5 7.5,7.5l24,0c4.142,0 7.5,-3.358 7.5,-7.5s-3.358,-7.5 -7.5,-7.5z"/>
    <path stroke="null" id="svg_125" d="m612.28112,691.00948l-32,0c-4.142,0 -7.5,3.358 -7.5,7.5s3.358,7.5 7.5,7.5l32,0c4.142,0 7.5,-3.358 7.5,-7.5s-3.358,-7.5 -7.5,-7.5z"/>
    <path stroke="null" id="svg_126" d="m580.28112,610.00948l32,0c4.142,0 7.5,-3.358 7.5,-7.5s-3.358,-7.5 -7.5,-7.5l-32,0c-4.142,0 -7.5,3.358 -7.5,7.5s3.358,7.5 7.5,7.5z"/>
    <path stroke="null" id="svg_127" d="m548.28112,659.00948l-56,0c-4.142,0 -7.5,3.358 -7.5,7.5s3.358,7.5 7.5,7.5l56,0c4.142,0 7.5,-3.358 7.5,-7.5s-3.358,-7.5 -7.5,-7.5z"/>
    <path stroke="null" id="svg_128" d="m612.28112,659.00948l-32,0c-4.142,0 -7.5,3.358 -7.5,7.5s3.358,7.5 7.5,7.5l32,0c4.142,0 7.5,-3.358 7.5,-7.5s-3.358,-7.5 -7.5,-7.5z"/>
    <path stroke="null" id="svg_129" d="m428.28112,659.00948l-56,0c-4.142,0 -7.5,3.358 -7.5,7.5s3.358,7.5 7.5,7.5l56,0c4.142,0 7.5,-3.358 7.5,-7.5s-3.358,-7.5 -7.5,-7.5z"/>
    <path stroke="null" id="svg_130" d="m428.28112,595.00948l-32,0c-4.142,0 -7.5,3.358 -7.5,7.5s3.358,7.5 7.5,7.5l32,0c4.142,0 7.5,-3.358 7.5,-7.5s-3.358,-7.5 -7.5,-7.5z"/>
    <path stroke="null" id="svg_131" d="m428.28112,627.00948l-32,0c-4.142,0 -7.5,3.358 -7.5,7.5s3.358,7.5 7.5,7.5l32,0c4.142,0 7.5,-3.358 7.5,-7.5s-3.358,-7.5 -7.5,-7.5z"/>
    <path stroke="null" id="svg_132" d="m428.28112,691.00948l-32,0c-4.142,0 -7.5,3.358 -7.5,7.5s3.358,7.5 7.5,7.5l32,0c4.142,0 7.5,-3.358 7.5,-7.5s-3.358,-7.5 -7.5,-7.5z"/>
   </g>
   <g stroke="null" transform="matrix(0.1104264785354276,0,0,0.1104264785354276,-17.878159934789437,-21.40845968110625) " id="svg_133"/>
   <g stroke="null" transform="matrix(0.1104264785354276,0,0,0.1104264785354276,-17.878159934789437,-21.40845968110625) " id="svg_134"/>
   <g stroke="null" transform="matrix(0.1104264785354276,0,0,0.1104264785354276,-17.878159934789437,-21.40845968110625) " id="svg_135"/>
   <g stroke="null" transform="matrix(0.1104264785354276,0,0,0.1104264785354276,-17.878159934789437,-21.40845968110625) " id="svg_136"/>
   <g stroke="null" transform="matrix(0.1104264785354276,0,0,0.1104264785354276,-17.878159934789437,-21.40845968110625) " id="svg_137"/>
   <g stroke="null" transform="matrix(0.1104264785354276,0,0,0.1104264785354276,-17.878159934789437,-21.40845968110625) " id="svg_138"/>
   <g stroke="null" transform="matrix(0.1104264785354276,0,0,0.1104264785354276,-17.878159934789437,-21.40845968110625) " id="svg_139"/>
   <g stroke="null" transform="matrix(0.1104264785354276,0,0,0.1104264785354276,-17.878159934789437,-21.40845968110625) " id="svg_140"/>
   <g stroke="null" transform="matrix(0.1104264785354276,0,0,0.1104264785354276,-17.878159934789437,-21.40845968110625) " id="svg_141"/>
   <g stroke="null" transform="matrix(0.1104264785354276,0,0,0.1104264785354276,-17.878159934789437,-21.40845968110625) " id="svg_142"/>
   <g stroke="null" transform="matrix(0.1104264785354276,0,0,0.1104264785354276,-17.878159934789437,-21.40845968110625) " id="svg_143"/>
   <g stroke="null" transform="matrix(0.1104264785354276,0,0,0.1104264785354276,-17.878159934789437,-21.40845968110625) " id="svg_144"/>
   <g stroke="null" transform="matrix(0.1104264785354276,0,0,0.1104264785354276,-17.878159934789437,-21.40845968110625) " id="svg_145"/>
   <g stroke="null" transform="matrix(0.1104264785354276,0,0,0.1104264785354276,-17.878159934789437,-21.40845968110625) " id="svg_146"/>
   <g stroke="null" transform="matrix(0.1104264785354276,0,0,0.1104264785354276,-17.878159934789437,-21.40845968110625) " id="svg_147"/>
  </g>
 </g>
</svg>