<svg width="87.10000000000001" height="98.2" xmlns="http://www.w3.org/2000/svg">
 <title>icon-eda</title>

 <g>
  <title>background</title>
  <rect x="-1" y="-1" width="89.1" height="100.2" id="canvas_background" fill="none"/>
 </g>
 <g>
  <title>Layer 1</title>
  <path d="m86.9,27.92867a7.7,7.7 0 0 0 -3.5,-6l-36.4,-21a7.7,7.7 0 0 0 -6.9,0l-36.4,21a7.7,7.7 0 0 0 -3.5,6l0,42a7.7,7.7 0 0 0 3.5,6l36.4,21a7.7,7.7 0 0 0 6.9,0l36.4,-21a7.7,7.7 0 0 0 3.5,-6l0,-42z" stroke-width="0.5px" stroke-miterlimit="10" stroke="#000" fill="none" id="svg_2"/>
  <g stroke="null" id="svg_90">
   <g stroke="null" transform="matrix(0.09925141273425196,0,0,0.09925141273425196,-973.1071775789362,-1106.747541521329) " id="svg_51">
    <path stroke="null" id="svg_52" d="m10475.25109,11442.15201l-464,0c-12.958,0 -23.5,10.542 -23.5,23.5l0,304c0,12.958 10.542,23.5 23.5,23.5l158.057,0l-11.714,41l-34.343,0c-4.142,0 -7.5,3.358 -7.5,7.5s3.358,7.5 7.5,7.5l39.976,0c0.009,0 0.019,0.002 0.028,0.002c0.008,0 0.016,-0.002 0.024,-0.002l159.944,0c0.008,0 0.016,0.002 0.024,0.002c0.009,0 0.019,-0.002 0.028,-0.002l39.976,0c4.142,0 7.5,-3.358 7.5,-7.5s-3.358,-7.5 -7.5,-7.5l-34.343,0l-11.714,-41l158.057,0c12.958,0 23.5,-10.542 23.5,-23.5l0,-304c0,-12.958 -10.542,-23.5 -23.5,-23.5zm-161.943,392l-140.114,0l11.714,-41l116.686,0l11.714,41zm170.443,-64.5c0,4.687 -3.813,8.5 -8.5,8.5l-167.823,0c-0.001,0 -0.002,0 -0.003,0l-296.174,0c-4.687,0 -8.5,-3.813 -8.5,-8.5l0,-304c0,-4.687 3.813,-8.5 8.5,-8.5l464,0c4.687,0 8.5,3.813 8.5,8.5l0,304z"/>
    <path stroke="null" id="svg_53" d="m10459.25109,11474.15201l-432,0c-4.142,0 -7.5,3.358 -7.5,7.5l0,272c0,4.142 3.358,7.5 7.5,7.5l432,0c4.142,0 7.5,-3.358 7.5,-7.5l0,-272c0,-4.142 -3.358,-7.5 -7.5,-7.5zm-7.5,15l0,49l-417,0l0,-49l417,0zm-417,64l105,0l0,193l-105,0l0,-193zm120,193l0,-193l297,0l0,193l-297,0z"/>
    <path stroke="null" id="svg_54" d="m10059.25109,11521.15201l24,0c4.142,0 7.5,-3.358 7.5,-7.5s-3.358,-7.5 -7.5,-7.5l-24,0c-4.142,0 -7.5,3.358 -7.5,7.5s3.358,7.5 7.5,7.5z"/>
    <path stroke="null" id="svg_55" d="m10115.25109,11521.15201l24,0c4.142,0 7.5,-3.358 7.5,-7.5s-3.358,-7.5 -7.5,-7.5l-24,0c-4.142,0 -7.5,3.358 -7.5,7.5s3.358,7.5 7.5,7.5z"/>
    <path stroke="null" id="svg_56" d="m10171.25109,11521.15201l24,0c4.142,0 7.5,-3.358 7.5,-7.5s-3.358,-7.5 -7.5,-7.5l-24,0c-4.142,0 -7.5,3.358 -7.5,7.5s3.358,7.5 7.5,7.5z"/>
    <path stroke="null" id="svg_57" d="m10227.25109,11521.15201l24,0c4.142,0 7.5,-3.358 7.5,-7.5s-3.358,-7.5 -7.5,-7.5l-24,0c-4.142,0 -7.5,3.358 -7.5,7.5s3.358,7.5 7.5,7.5z"/>
    <path stroke="null" id="svg_58" d="m10283.25109,11521.15201l80,0c4.142,0 7.5,-3.358 7.5,-7.5s-3.358,-7.5 -7.5,-7.5l-80,0c-4.142,0 -7.5,3.358 -7.5,7.5s3.358,7.5 7.5,7.5z"/>
    <path stroke="null" id="svg_59" d="m10427.25109,11521.15201c1.97,0 3.91,-0.8 5.3,-2.2c1.4,-1.4 2.2,-3.33 2.2,-5.3c0,-1.97 -0.8,-3.91 -2.2,-5.3c-1.39,-1.4 -3.32,-2.2 -5.3,-2.2s-3.91,0.8 -5.3,2.2c-1.4,1.39 -2.2,3.33 -2.2,5.3c0,1.97 0.8,3.91 2.2,5.3c1.39,1.4 3.33,2.2 5.3,2.2z"/>
    <path stroke="null" id="svg_60" d="m10395.25109,11521.15201c1.97,0 3.91,-0.8 5.3,-2.2c1.4,-1.39 2.2,-3.33 2.2,-5.3c0,-1.98 -0.8,-3.91 -2.2,-5.3c-1.39,-1.4 -3.33,-2.2 -5.3,-2.2c-1.97,0 -3.91,0.8 -5.3,2.2c-1.4,1.39 -2.2,3.32 -2.2,5.3c0,1.97 0.8,3.91 2.2,5.3c1.39,1.4 3.33,2.2 5.3,2.2z"/>
    <path stroke="null" id="svg_61" d="m10059.25109,11585.15201l56,0c4.142,0 7.5,-3.358 7.5,-7.5s-3.358,-7.5 -7.5,-7.5l-56,0c-4.142,0 -7.5,3.358 -7.5,7.5s3.358,7.5 7.5,7.5z"/>
    <path stroke="null" id="svg_62" d="m10179.25109,11585.15201l56,0c4.142,0 7.5,-3.358 7.5,-7.5s-3.358,-7.5 -7.5,-7.5l-56,0c-4.142,0 -7.5,3.358 -7.5,7.5s3.358,7.5 7.5,7.5z"/>
    <path stroke="null" id="svg_63" d="m10267.25109,11585.15201l32,0c4.142,0 7.5,-3.358 7.5,-7.5s-3.358,-7.5 -7.5,-7.5l-32,0c-4.142,0 -7.5,3.358 -7.5,7.5s3.358,7.5 7.5,7.5z"/>
    <path stroke="null" id="svg_64" d="m10179.25109,11617.15201l56,0c4.142,0 7.5,-3.358 7.5,-7.5s-3.358,-7.5 -7.5,-7.5l-56,0c-4.142,0 -7.5,3.358 -7.5,7.5s3.358,7.5 7.5,7.5z"/>
    <path stroke="null" id="svg_65" d="m10339.25109,11634.15201l-136,0c-4.142,0 -7.5,3.358 -7.5,7.5s3.358,7.5 7.5,7.5l136,0c4.142,0 7.5,-3.358 7.5,-7.5s-3.358,-7.5 -7.5,-7.5z"/>
    <path stroke="null" id="svg_66" d="m10395.25109,11634.15201l-24,0c-4.142,0 -7.5,3.358 -7.5,7.5s3.358,7.5 7.5,7.5l24,0c4.142,0 7.5,-3.358 7.5,-7.5s-3.358,-7.5 -7.5,-7.5z"/>
    <path stroke="null" id="svg_67" d="m10299.25109,11698.15201l-32,0c-4.142,0 -7.5,3.358 -7.5,7.5s3.358,7.5 7.5,7.5l32,0c4.142,0 7.5,-3.358 7.5,-7.5s-3.358,-7.5 -7.5,-7.5z"/>
    <path stroke="null" id="svg_68" d="m10267.25109,11617.15201l32,0c4.142,0 7.5,-3.358 7.5,-7.5s-3.358,-7.5 -7.5,-7.5l-32,0c-4.142,0 -7.5,3.358 -7.5,7.5s3.358,7.5 7.5,7.5z"/>
    <path stroke="null" id="svg_69" d="m10235.25109,11666.15201l-56,0c-4.142,0 -7.5,3.358 -7.5,7.5s3.358,7.5 7.5,7.5l56,0c4.142,0 7.5,-3.358 7.5,-7.5s-3.358,-7.5 -7.5,-7.5z"/>
    <path stroke="null" id="svg_70" d="m10299.25109,11666.15201l-32,0c-4.142,0 -7.5,3.358 -7.5,7.5s3.358,7.5 7.5,7.5l32,0c4.142,0 7.5,-3.358 7.5,-7.5s-3.358,-7.5 -7.5,-7.5z"/>
    <path stroke="null" id="svg_71" d="m10115.25109,11666.15201l-56,0c-4.142,0 -7.5,3.358 -7.5,7.5s3.358,7.5 7.5,7.5l56,0c4.142,0 7.5,-3.358 7.5,-7.5s-3.358,-7.5 -7.5,-7.5z"/>
    <path stroke="null" id="svg_72" d="m10115.25109,11602.15201l-32,0c-4.142,0 -7.5,3.358 -7.5,7.5s3.358,7.5 7.5,7.5l32,0c4.142,0 7.5,-3.358 7.5,-7.5s-3.358,-7.5 -7.5,-7.5z"/>
    <path stroke="null" id="svg_73" d="m10115.25109,11634.15201l-32,0c-4.142,0 -7.5,3.358 -7.5,7.5s3.358,7.5 7.5,7.5l32,0c4.142,0 7.5,-3.358 7.5,-7.5s-3.358,-7.5 -7.5,-7.5z"/>
    <path stroke="null" id="svg_74" d="m10115.25109,11698.15201l-32,0c-4.142,0 -7.5,3.358 -7.5,7.5s3.358,7.5 7.5,7.5l32,0c4.142,0 7.5,-3.358 7.5,-7.5s-3.358,-7.5 -7.5,-7.5z"/>
   </g>
   <g stroke="null" transform="matrix(0.09925141273425196,0,0,0.09925141273425196,-973.1071775789362,-1106.747541521329) " id="svg_75"/>
   <g stroke="null" transform="matrix(0.09925141273425196,0,0,0.09925141273425196,-973.1071775789362,-1106.747541521329) " id="svg_76"/>
   <g stroke="null" transform="matrix(0.09925141273425196,0,0,0.09925141273425196,-973.1071775789362,-1106.747541521329) " id="svg_77"/>
   <g stroke="null" transform="matrix(0.09925141273425196,0,0,0.09925141273425196,-973.1071775789362,-1106.747541521329) " id="svg_78"/>
   <g stroke="null" transform="matrix(0.09925141273425196,0,0,0.09925141273425196,-973.1071775789362,-1106.747541521329) " id="svg_79"/>
   <g stroke="null" transform="matrix(0.09925141273425196,0,0,0.09925141273425196,-973.1071775789362,-1106.747541521329) " id="svg_80"/>
   <g stroke="null" transform="matrix(0.09925141273425196,0,0,0.09925141273425196,-973.1071775789362,-1106.747541521329) " id="svg_81"/>
   <g stroke="null" transform="matrix(0.09925141273425196,0,0,0.09925141273425196,-973.1071775789362,-1106.747541521329) " id="svg_82"/>
   <g stroke="null" transform="matrix(0.09925141273425196,0,0,0.09925141273425196,-973.1071775789362,-1106.747541521329) " id="svg_83"/>
   <g stroke="null" transform="matrix(0.09925141273425196,0,0,0.09925141273425196,-973.1071775789362,-1106.747541521329) " id="svg_84"/>
   <g stroke="null" transform="matrix(0.09925141273425196,0,0,0.09925141273425196,-973.1071775789362,-1106.747541521329) " id="svg_85"/>
   <g stroke="null" transform="matrix(0.09925141273425196,0,0,0.09925141273425196,-973.1071775789362,-1106.747541521329) " id="svg_86"/>
   <g stroke="null" transform="matrix(0.09925141273425196,0,0,0.09925141273425196,-973.1071775789362,-1106.747541521329) " id="svg_87"/>
   <g stroke="null" transform="matrix(0.09925141273425196,0,0,0.09925141273425196,-973.1071775789362,-1106.747541521329) " id="svg_88"/>
   <g stroke="null" transform="matrix(0.09925141273425196,0,0,0.09925141273425196,-973.1071775789362,-1106.747541521329) " id="svg_89"/>
  </g>
 </g>
</svg>