<svg width="87.10000000000001" height="98.2" xmlns="http://www.w3.org/2000/svg">
 <title>icon-eda</title>

 <g>
  <title>background</title>
  <rect x="-1" y="-1" width="89.1" height="100.2" id="canvas_background" fill="none"/>
 </g>
 <g>
  <title>Layer 1</title>
  <path d="m86.9,28.1a7.7,7.7 0 0 0 -3.5,-6l-36.4,-21a7.7,7.7 0 0 0 -6.9,0l-36.4,21a7.7,7.7 0 0 0 -3.5,6l0,42a7.7,7.7 0 0 0 3.5,6l36.4,21a7.7,7.7 0 0 0 6.9,0l36.4,-21a7.7,7.7 0 0 0 3.5,-6l0,-42z" stroke-width="0.5px" stroke-miterlimit="10" stroke="#000" fill="none" id="svg_2"/>
  <g stroke="null" id="svg_20">
   <g stroke="null" transform="matrix(0.1064475003802752,0,0,0.1064475003802752,-35.6666652225249,-110.81361315475078) " id="svg_16">
    <path stroke="null" id="svg_17" d="m955.18526,1246.27683l-30,0c-8.284,0 -15,6.716 -15,15l0,15l-407,0c-8.284,0 -15,6.716 -15,15l0,452c0,8.284 6.716,15 15,15l452,0c24.813,0 45,-20.187 45,-45l0,-422c0,-24.813 -20.187,-45 -45,-45zm-15,30l15,0c8.271,0 15,6.729 15,15l0,379.58c-4.695,-1.665 -9.742,-2.58 -15,-2.58l-15,0l0,-392zm15,452l-437,0l0,-422l392,0l0,377c0,8.284 6.716,15 15,15l30,0c8.271,0 15,6.729 15,15s-6.729,15 -15,15z"/>
    <path stroke="null" id="svg_18" d="m865.18526,1368.27683l-93.58,0c-6.192,-17.459 -22.865,-30 -42.42,-30s-36.228,12.541 -42.42,30l-93.58,0c-8.284,0 -15,6.716 -15,15l0,90l-15,0c-8.284,0 -15,6.716 -15,15s6.716,15 15,15l60,0c8.284,0 15,-6.716 15,-15s-6.716,-15 -15,-15l-15,0l0,-75l78.58,0c6.192,17.459 22.865,30 42.42,30s36.228,-12.541 42.42,-30l78.58,0l0,71.459l-28.417,56.833c-3.705,7.41 -0.701,16.42 6.708,20.125c7.419,3.71 16.425,0.691 20.125,-6.708l30,-60c1.042,-2.083 1.583,-4.38 1.583,-6.708l0,-90c0.001,-8.285 -6.715,-15.001 -14.999,-15.001zm-136,30c-8.271,0 -15,-6.729 -15,-15s6.729,-15 15,-15s15,6.729 15,15s-6.729,15 -15,15z"/>
    <path stroke="null" id="svg_19" d="m865.18526,1548.27683c-8.284,0 -15,6.716 -15,15l0,75l-46,0l0,-15c0,-8.284 -6.716,-15 -15,-15l-120,0c-8.284,0 -15,6.716 -15,15l0,14.992l-46,0.006l0,-74.998l15,0c8.284,0 15,-6.716 15,-15s-6.716,-15 -15,-15l-60,0c-8.284,0 -15,6.716 -15,15s6.716,15 15,15l15,0l0,90c0,8.28 6.718,15.001 15.002,15l60.998,-0.008l0,15.008c0,8.284 6.716,15 15,15l120,0c8.284,0 15,-6.716 15,-15l0,-15l61,0c8.284,0 15,-6.716 15,-15l0,-90c0,-8.284 -6.716,-15 -15,-15zm-91,120l-90,0l0,-30l90,0l0,30z"/>
   </g>
  </g>
 </g>
</svg>