<svg xmlns="http://www.w3.org/2000/svg" viewBox="0 0 87.1 98.2"><title>icon-eda</title><path d="M86.9,28.1a7.7,7.7,0,0,0-3.5-6L47,1.1a7.7,7.7,0,0,0-6.9,0L3.7,22.1a7.7,7.7,0,0,0-3.5,6v42a7.7,7.7,0,0,0,3.5,6l36.4,21a7.7,7.7,0,0,0,6.9,0l36.4-21a7.7,7.7,0,0,0,3.5-6Z" style="fill:#fff"/><path d="M86.9,28.1a7.7,7.7,0,0,0-3.5-6L47,1.1a7.7,7.7,0,0,0-6.9,0L3.7,22.1a7.7,7.7,0,0,0-3.5,6v42a7.7,7.7,0,0,0,3.5,6l36.4,21a7.7,7.7,0,0,0,6.9,0l36.4-21a7.7,7.7,0,0,0,3.5-6Z" style="fill:none;stroke:#000;stroke-miterlimit:10;stroke-width:0.5px"/><path d="M57.1,72.8A1.8,1.8,0,1,1,58.9,71,1.8,1.8,0,0,1,57.1,72.8Zm.8-5.2c0-.9,0-2.2,0-3.6a4.2,4.2,0,0,0-1.2-3.2,4,4,0,0,0-2.7-.9H50.6v.4a2.7,2.7,0,1,0,0,1.4h3.5a2.2,2.2,0,0,1,1.5.5,2.4,2.4,0,0,1,.6,1.9c0,1.4,0,2.8-.1,3.6a3.6,3.6,0,1,0,1.8,0ZM28.7,68.6a1.8,1.8,0,1,1-1.8-1.8A1.8,1.8,0,0,1,28.7,68.6ZM40.9,58.2a2.7,2.7,0,0,0-2.4,1.6H30a4,4,0,0,0-2.7.9,4.1,4.1,0,0,0-1.2,3.2c0,.4,0,.8,0,1.2a3.6,3.6,0,1,0,1.8,0c0-.4,0-.8,0-1.2a2.4,2.4,0,0,1,.6-1.9,2.2,2.2,0,0,1,1.5-.5h8.4a2.7,2.7,0,1,0,2.6-3.4Zm7.1-36A1.8,1.8,0,1,1,46.2,24,1.8,1.8,0,0,1,48,22.2Zm-.9,5.2v4.7a2.7,2.7,0,1,0,1.8,0V27.5a3.6,3.6,0,1,0-1.8,0ZM39.6,39.3a3.8,3.8,0,0,0-3.8,3.8v9.5a3.8,3.8,0,0,0,3.8,3.8h9.8a3.8,3.8,0,0,0,3.8-3.8V43.1a3.8,3.8,0,0,0-3.8-3.8H39.6ZM70.3,55.6a1.8,1.8,0,1,1,1.8-1.8A1.8,1.8,0,0,1,70.3,55.6Zm0-5.3a3.6,3.6,0,0,0-2.8,1.3L66,51a5.9,5.9,0,0,0-2.5-.5H60.4a2.7,2.7,0,1,0,0,1.8h3.1a4.1,4.1,0,0,1,1.8.3l1.5.6a3.4,3.4,0,0,0-.1.6,3.6,3.6,0,1,0,3.6-3.6Zm.2-7.7a1.8,1.8,0,1,1-1.8,1.8A1.8,1.8,0,0,1,70.5,42.5ZM58,47a2.7,2.7,0,0,0,2.5-1.8H67a3.6,3.6,0,1,0,0-1.8H60.5A2.7,2.7,0,1,0,58,47ZM21.4,73.8A1.8,1.8,0,1,1,19.7,72,1.8,1.8,0,0,1,21.4,73.8Zm-.2-20.8c.4-.5.8-.8,2-.8h5.2a2.7,2.7,0,1,0,0-1.8H23.3a4.1,4.1,0,0,0-3.5,1.5,6.2,6.2,0,0,0-.9,3.7V70.3a3.6,3.6,0,1,0,1.8,0V55.6A4.6,4.6,0,0,1,21.2,52.9ZM19.9,42.6a1.8,1.8,0,1,1-1.8,1.8A1.8,1.8,0,0,1,19.9,42.6Zm0,5.3a3.6,3.6,0,0,0,3.5-2.7h5.3a2.7,2.7,0,1,0,0-1.8H23.3a3.6,3.6,0,1,0-3.5,4.5Zm9.2-25.8a1.8,1.8,0,1,1-1.8,1.8A1.8,1.8,0,0,1,29.1,22.1Zm0,5.3a3.6,3.6,0,0,0,3.5-2.7h2.2A3.1,3.1,0,0,1,38.1,27a55.7,55.7,0,0,1,1.5,5.4,2.7,2.7,0,1,0,1.8-.3,56.4,56.4,0,0,0-1.5-5.6,5,5,0,0,0-5-3.5H32.6a3.6,3.6,0,1,0-3.5,4.5Z"/></svg>