<svg width="87.1" height="98.2" xmlns="http://www.w3.org/2000/svg">
 <title>icon-eda</title>

 <g>
  <title>background</title>
  <rect x="-1" y="-1" width="89.1" height="100.2" id="canvas_background" fill="none"/>
 </g>
 <g>
  <title>Layer 1</title>
  <path stroke="#4b8edb" d="m85.97143,28.54982a7.53506,7.53506 0 0 0 -3.42503,-5.87148l-35.6203,-20.55017a7.53506,7.53506 0 0 0 -6.7522,0l-35.6203,20.55017a7.53506,7.53506 0 0 0 -3.42503,5.87148l0,41.10035a7.53506,7.53506 0 0 0 3.42503,5.87148l35.6203,20.55017a7.53506,7.53506 0 0 0 6.7522,0l35.6203,-20.55017a7.53506,7.53506 0 0 0 3.42503,-5.87148l0,-41.10035z" stroke-width="2" stroke-miterlimit="10" fill="none" id="svg_2"/>
  <g fill-opacity="0" stroke="null" id="svg_22">
   <g stroke="null" transform="matrix(0.12494590944228308,0,0,0.12494590944228308,-1.3333951530871673,34.56863185031265) " id="svg_16">
    <path stroke="null" id="svg_17" d="m334.84535,-76.63242l-417.732,0c-26.035,0 -47.134,21.058 -47.134,47.133l0,289.2c0,26.31 21.36,47.133 47.134,47.133l113.533,0l0,34.267l-33.2,0c-8.284,0 -15,6.716 -15,15s6.716,15 15,15l257.066,0c8.284,0 15,-6.716 15,-15s-6.716,-15 -15,-15l-33.2,0l0,-34.267l113.533,0c25.855,0 47.134,-20.899 47.134,-47.133l0,-289.2c0,-26.031 -21.058,-47.133 -47.134,-47.133zm-143.533,417.732l-130.666,0l0,-34.266l130.666,0l0,34.266zm160.667,-81.399c0,9.576 -7.787,17.133 -17.134,17.133l-417.732,0c-9.338,0 -17.134,-7.548 -17.134,-17.133l0,-17.134l452,0l0,17.134zm0,-47.134l-452,0l0,-242.066c0,-9.45 7.639,-17.133 17.134,-17.133l417.732,0c9.488,0 17.134,7.676 17.134,17.133l0,242.066z"/>
    <path stroke="null" id="svg_18" d="m-21.57165,67.96658c-7.232,0 -13.116,-5.885 -13.116,-13.133c0,-7.224 5.884,-13.101 13.116,-13.101l12.051,0c8.284,0 15,-6.716 15,-15s-6.716,-15 -15,-15l-12.051,0c-23.774,0 -43.116,19.335 -43.116,43.116c0,23.774 19.342,43.117 43.116,43.117c7.232,0 13.117,5.884 13.117,13.116s-5.885,13.117 -13.117,13.117l-12.05,0c-8.284,0 -15,6.716 -15,15s6.716,15 15,15l12.05,0c23.774,0 43.117,-19.343 43.117,-43.117s-19.342,-43.115 -43.117,-43.115z"/>
    <path stroke="null" id="svg_19" d="m82.86235,11.73358c-23.774,0 -43.116,19.342 -43.116,43.116l0,84.351c0,8.284 6.716,15 15,15s15,-6.716 15,-15l0,-25.167l26.233,0l0,25.167c0,8.284 6.716,15 15,15s15,-6.716 15,-15l0,-84.351c0,-23.774 -19.343,-43.116 -43.117,-43.116zm13.117,72.3l-26.233,0l0,-29.184c0,-7.232 5.884,-13.116 13.116,-13.116s13.117,5.884 13.117,13.116l0,29.184z"/>
    <path stroke="null" id="svg_20" d="m293.61335,41.73358c8.284,0 15,-6.716 15,-15s-6.716,-15 -15,-15l-32.134,0c-8.284,0 -15,6.716 -15,15l0,112.467c0,8.284 6.716,15 15,15l32.134,0c8.284,0 15,-6.716 15,-15s-6.716,-15 -15,-15l-17.134,0l0,-26.233l17.134,0c8.284,0 15,-6.716 15,-15s-6.716,-15 -15,-15l-17.134,0l0,-26.234l17.134,0z"/>
    <path stroke="null" id="svg_21" d="m213.27935,124.20058l-31.066,0l0,-97.467c0,-8.284 -6.716,-15 -15,-15s-15,6.716 -15,15l0,112.467c0,8.284 6.716,15 15,15l46.066,0c8.284,0 15,-6.716 15,-15s-6.716,-15 -15,-15z"/>
   </g>
  </g>
  <g stroke="null" id="svg_33">
   <g stroke="null" transform="matrix(0.11155309983949645,0,0,0.11155309983949645,-2.385432470682794,0.7036080893368535) " id="svg_27">
    <path stroke="null" fill="#2e5790" id="svg_28" d="m620.64687,209.97526l-417.732,0c-26.035,0 -47.134,21.058 -47.134,47.133l0,289.2c0,26.31 21.36,47.133 47.134,47.133l113.533,0l0,34.267l-33.2,0c-8.284,0 -15,6.716 -15,15s6.716,15 15,15l257.066,0c8.284,0 15,-6.716 15,-15s-6.716,-15 -15,-15l-33.2,0l0,-34.267l113.533,0c25.855,0 47.134,-20.899 47.134,-47.133l0,-289.2c0,-26.031 -21.058,-47.133 -47.134,-47.133zm-143.533,417.732l-130.666,0l0,-34.266l130.666,0l0,34.266zm160.667,-81.399c0,9.576 -7.787,17.133 -17.134,17.133l-417.732,0c-9.338,0 -17.134,-7.548 -17.134,-17.133l0,-17.134l452,0l0,17.134zm0,-47.134l-452,0l0,-242.066c0,-9.45 7.639,-17.133 17.134,-17.133l417.732,0c9.488,0 17.134,7.676 17.134,17.133l0,242.066z"/>
    <path stroke="null" fill="#2e5790" id="svg_29" d="m264.22987,354.57426c-7.232,0 -13.116,-5.885 -13.116,-13.133c0,-7.224 5.884,-13.101 13.116,-13.101l12.051,0c8.284,0 15,-6.716 15,-15s-6.716,-15 -15,-15l-12.051,0c-23.774,0 -43.116,19.335 -43.116,43.116c0,23.774 19.342,43.117 43.116,43.117c7.232,0 13.117,5.884 13.117,13.116s-5.885,13.117 -13.117,13.117l-12.05,0c-8.284,0 -15,6.716 -15,15s6.716,15 15,15l12.05,0c23.774,0 43.117,-19.343 43.117,-43.117s-19.342,-43.115 -43.117,-43.115z"/>
    <path stroke="null" fill="#2e5790" id="svg_30" d="m368.66387,298.34126c-23.774,0 -43.116,19.342 -43.116,43.116l0,84.351c0,8.284 6.716,15 15,15s15,-6.716 15,-15l0,-25.167l26.233,0l0,25.167c0,8.284 6.716,15 15,15s15,-6.716 15,-15l0,-84.351c0,-23.774 -19.343,-43.116 -43.117,-43.116zm13.117,72.3l-26.233,0l0,-29.184c0,-7.232 5.884,-13.116 13.116,-13.116s13.117,5.884 13.117,13.116l0,29.184z"/>
    <path stroke="null" fill="#2e5790" id="svg_31" d="m579.41487,328.34126c8.284,0 15,-6.716 15,-15s-6.716,-15 -15,-15l-32.134,0c-8.284,0 -15,6.716 -15,15l0,112.467c0,8.284 6.716,15 15,15l32.134,0c8.284,0 15,-6.716 15,-15s-6.716,-15 -15,-15l-17.134,0l0,-26.233l17.134,0c8.284,0 15,-6.716 15,-15s-6.716,-15 -15,-15l-17.134,0l0,-26.234l17.134,0z"/>
    <path stroke="null" fill="#2e5790" id="svg_32" d="m499.08087,410.80826l-31.066,0l0,-97.467c0,-8.284 -6.716,-15 -15,-15s-15,6.716 -15,15l0,112.467c0,8.284 6.716,15 15,15l46.066,0c8.284,0 15,-6.716 15,-15s-6.716,-15 -15,-15z"/>
   </g>
  </g>
 </g>
</svg>