<svg width="87.1" height="98.2" xmlns="http://www.w3.org/2000/svg">
 <title>icon-eda</title>

 <g>
  <title>background</title>
  <rect x="-1" y="-1" width="89.1" height="100.2" id="canvas_background" fill="none"/>
 </g>
 <g>
  <title>Layer 1</title>
  <path stroke="#4b8edb" d="m85.97143,28.54982a7.53506,7.53506 0 0 0 -3.42503,-5.87148l-35.6203,-20.55017a7.53506,7.53506 0 0 0 -6.7522,0l-35.6203,20.55017a7.53506,7.53506 0 0 0 -3.42503,5.87148l0,41.10035a7.53506,7.53506 0 0 0 3.42503,5.87148l35.6203,20.55017a7.53506,7.53506 0 0 0 6.7522,0l35.6203,-20.55017a7.53506,7.53506 0 0 0 3.42503,-5.87148l0,-41.10035z" stroke-width="2" stroke-miterlimit="10" fill="none" id="svg_2"/>
  <g fill-opacity="0" stroke="null" id="svg_22">
   <g stroke="null" transform="matrix(0.12494590944228308,0,0,0.12494590944228308,-1.3333951530871673,34.56863185031265) " id="svg_16">
    <path stroke="null" id="svg_17" d="m334.84535,-76.63242l-417.732,0c-26.035,0 -47.134,21.058 -47.134,47.133l0,289.2c0,26.31 21.36,47.133 47.134,47.133l113.533,0l0,34.267l-33.2,0c-8.284,0 -15,6.716 -15,15s6.716,15 15,15l257.066,0c8.284,0 15,-6.716 15,-15s-6.716,-15 -15,-15l-33.2,0l0,-34.267l113.533,0c25.855,0 47.134,-20.899 47.134,-47.133l0,-289.2c0,-26.031 -21.058,-47.133 -47.134,-47.133zm-143.533,417.732l-130.666,0l0,-34.266l130.666,0l0,34.266zm160.667,-81.399c0,9.576 -7.787,17.133 -17.134,17.133l-417.732,0c-9.338,0 -17.134,-7.548 -17.134,-17.133l0,-17.134l452,0l0,17.134zm0,-47.134l-452,0l0,-242.066c0,-9.45 7.639,-17.133 17.134,-17.133l417.732,0c9.488,0 17.134,7.676 17.134,17.133l0,242.066z"/>
    <path stroke="null" id="svg_18" d="m-21.57165,67.96658c-7.232,0 -13.116,-5.885 -13.116,-13.133c0,-7.224 5.884,-13.101 13.116,-13.101l12.051,0c8.284,0 15,-6.716 15,-15s-6.716,-15 -15,-15l-12.051,0c-23.774,0 -43.116,19.335 -43.116,43.116c0,23.774 19.342,43.117 43.116,43.117c7.232,0 13.117,5.884 13.117,13.116s-5.885,13.117 -13.117,13.117l-12.05,0c-8.284,0 -15,6.716 -15,15s6.716,15 15,15l12.05,0c23.774,0 43.117,-19.343 43.117,-43.117s-19.342,-43.115 -43.117,-43.115z"/>
    <path stroke="null" id="svg_19" d="m82.86235,11.73358c-23.774,0 -43.116,19.342 -43.116,43.116l0,84.351c0,8.284 6.716,15 15,15s15,-6.716 15,-15l0,-25.167l26.233,0l0,25.167c0,8.284 6.716,15 15,15s15,-6.716 15,-15l0,-84.351c0,-23.774 -19.343,-43.116 -43.117,-43.116zm13.117,72.3l-26.233,0l0,-29.184c0,-7.232 5.884,-13.116 13.116,-13.116s13.117,5.884 13.117,13.116l0,29.184z"/>
    <path stroke="null" id="svg_20" d="m293.61335,41.73358c8.284,0 15,-6.716 15,-15s-6.716,-15 -15,-15l-32.134,0c-8.284,0 -15,6.716 -15,15l0,112.467c0,8.284 6.716,15 15,15l32.134,0c8.284,0 15,-6.716 15,-15s-6.716,-15 -15,-15l-17.134,0l0,-26.233l17.134,0c8.284,0 15,-6.716 15,-15s-6.716,-15 -15,-15l-17.134,0l0,-26.234l17.134,0z"/>
    <path stroke="null" id="svg_21" d="m213.27935,124.20058l-31.066,0l0,-97.467c0,-8.284 -6.716,-15 -15,-15s-15,6.716 -15,15l0,112.467c0,8.284 6.716,15 15,15l46.066,0c8.284,0 15,-6.716 15,-15s-6.716,-15 -15,-15z"/>
   </g>
  </g>
  <g stroke="null" id="svg_47">
   <path stroke="null" fill="#2e5790" id="svg_44" d="m53.58166,33.00577l-3.73541,2.15658c-0.4827,-0.3337 -0.98864,-0.62755 -1.51492,-0.87948l0,-4.30818l-9.56266,0l0,4.30818c-0.52628,0.25193 -1.03222,0.54578 -1.51492,0.87948l-3.73541,-2.15658l-4.78133,8.28183l3.69889,2.13541c-0.05479,0.59352 -0.05811,1.15964 0,1.79134l-3.69889,2.13541l4.78133,8.28141l3.73541,-2.15658c0.4827,0.33411 0.98864,0.62755 1.51492,0.87948l0,4.30859l9.56266,0l0,-4.30818c0.52628,-0.25193 1.03222,-0.54579 1.51492,-0.87948l3.73541,2.15658l4.78133,-8.28183l-3.69889,-2.13541c0.05437,-0.59186 0.05852,-1.15798 0,-1.79134l3.69889,-2.13541l-4.78133,-8.28183zm-2.41681,13.86917l2.84389,1.64192l-1.59378,2.76005l-2.8717,-1.65769c-2.0358,1.73697 -2.18522,1.76145 -4.39949,2.55087l0,3.30501l-3.18755,0l0,-3.30501c-2.49982,-0.8911 -2.5903,-1.00732 -4.39949,-2.55087l-2.8717,1.65769l-1.59378,-2.76005l2.84431,-1.64192c-0.48187,-2.60192 -0.47357,-2.55585 0,-5.11253l-2.84431,-1.64192l1.59378,-2.76005l2.8717,1.65769c2.05987,-1.7573 2.21219,-1.771 4.39949,-2.55087l0,-3.30501l3.18755,0l0,3.30501c2.47035,0.88073 2.56913,0.98905 4.39949,2.55087l2.8717,-1.65811l1.59378,2.76047l-2.84389,1.64192c0.47813,2.58283 0.47647,2.53967 0,5.11253zm0,0"/>
   <path stroke="null" fill="#2e5790" id="svg_45" d="m43.55,39.53734c-2.63637,0 -4.78133,2.14496 -4.78133,4.78133s2.14496,4.78133 4.78133,4.78133s4.78133,-2.14496 4.78133,-4.78133s-2.14496,-4.78133 -4.78133,-4.78133zm0,6.3751c-0.87865,0 -1.59378,-0.71512 -1.59378,-1.59378s0.71512,-1.59378 1.59378,-1.59378s1.59378,0.71512 1.59378,1.59378s-0.71512,1.59378 -1.59378,1.59378zm0,0"/>
   <path stroke="null" fill="#2e5790" id="svg_46" d="m59.59401,23.59958l-32.08803,0c-6.15181,0 -11.15643,5.00462 -11.15643,11.15643l0,19.12531c0,5.61059 4.16332,10.26741 9.56266,11.04313l0,9.67597l2.98169,0l9.03679,-9.56266l21.66332,0c6.15181,0 11.15643,-5.00462 11.15643,-11.15643l0,-19.12531c0,-6.15181 -5.00462,-11.15643 -11.15643,-11.15643zm7.96888,30.28175c0,4.39409 -3.57479,7.96888 -7.96888,7.96888l-23.03671,0l-7.45754,7.89127l0,-7.89127l-1.59378,0c-4.39409,0 -7.96888,-3.57479 -7.96888,-7.96888l0,-19.12531c0,-4.39409 3.57479,-7.96888 7.96888,-7.96888l32.08803,0c4.39409,0 7.96888,3.57479 7.96888,7.96888l0,19.12531zm0,0"/>
  </g>
 </g>
</svg>