<svg width="87" height="98" xmlns="http://www.w3.org/2000/svg">
 <title>icon-eda</title>

 <g>
  <title>background</title>
  <rect x="-1" y="-1" width="89" height="100" id="canvas_background" fill="none"/>
 </g>
 <g>
  <title>Layer 1</title>
  <path stroke="#4b8edb" d="m85.82857,28.69268a7.53506,7.53506 0 0 0 -3.42503,-5.87148l-35.6203,-20.55017a7.53506,7.53506 0 0 0 -6.7522,0l-35.6203,20.55017a7.53506,7.53506 0 0 0 -3.42503,5.87148l0,41.10035a7.53506,7.53506 0 0 0 3.42503,5.87148l35.6203,20.55017a7.53506,7.53506 0 0 0 6.7522,0l35.6203,-20.55017a7.53506,7.53506 0 0 0 3.42503,-5.87148l0,-41.10035z" stroke-width="2" stroke-miterlimit="10" fill="none" id="svg_2"/>
  <g stroke="null" id="svg_138">
   <path stroke="null" id="svg_130" d="m735.49143,429.41342l-4.89233,-4.89233l-7.9336,7.9336l0,-15.8672l13.83968,0c1.91334,0 3.45992,-1.55004 3.45992,-3.45992l0,-20.75952c0,-1.90988 -1.54658,-3.45992 -3.45992,-3.45992l-34.59921,0c-1.91334,0 -3.45992,1.55004 -3.45992,3.45992l0,20.75952c0,1.90988 1.54658,3.45992 3.45992,3.45992l13.83968,0l0,15.8672l-7.9336,-7.9336l-4.89233,4.89233l13.83968,13.83968c0.67468,0.67468 1.56042,1.01376 2.44616,1.01376s1.77148,-0.33907 2.44616,-1.01376l13.83968,-13.83968zm-30.12553,-33.58545l27.67937,0l0,13.83968l-27.67937,0l0,-13.83968z"/>
   <path stroke="null" id="svg_131" d="m754.81163,492.04144l-6.1725,-2.53266c-0.41865,-1.21789 -0.9065,-2.40119 -1.46009,-3.54296l2.56726,-6.14482c0.48093,-1.15215 0.30447,-2.46692 -0.46017,-3.453c-1.97561,-2.55688 -4.273,-4.85081 -6.82296,-6.82642c-0.98608,-0.75772 -2.30085,-0.93418 -3.453,-0.45671l-6.14482,2.56726c-1.14177,-0.55359 -2.32507,-1.04144 -3.5395,-1.45663l-2.53266,-6.17596c-0.47401,-1.15215 -1.52583,-1.96178 -2.76448,-2.12093c-3.6087,-0.45671 -6.0341,-0.45671 -9.6428,0c-1.23519,0.1557 -2.29047,0.96532 -2.76448,2.12093l-2.53266,6.17596c-1.21789,0.41519 -2.39773,0.90304 -3.5395,1.45663l-6.14482,-2.57072c-1.14523,-0.48093 -2.47038,-0.31139 -3.453,0.45671c-2.54996,1.97561 -4.84735,4.273 -6.82296,6.82642c-0.76464,0.98608 -0.93764,2.30431 -0.46017,3.453l2.57072,6.14482c-0.55359,1.13831 -1.0449,2.32161 -1.46355,3.54296l-6.1725,2.53266c-1.15215,0.47401 -1.95832,1.52928 -2.11747,2.76448c-0.23527,1.80608 -0.33907,3.33882 -0.33907,4.82313s0.1038,3.01705 0.33561,4.81967c0.15916,1.23519 0.96532,2.29393 2.11747,2.76448l6.1725,2.53266c0.41865,1.21789 0.9065,2.40119 1.46009,3.54296l-2.56726,6.14482c-0.48093,1.15215 -0.30447,2.46692 0.46017,3.453c1.97561,2.55342 4.26954,4.85081 6.82296,6.82642c0.98262,0.76464 2.30777,0.93418 3.453,0.45671l6.14482,-2.57072c1.14177,0.55359 2.32507,1.04144 3.5395,1.46009l2.53266,6.1725c0.47401,1.15215 1.52583,1.96178 2.76448,2.12093c1.80608,0.22835 3.33536,0.33561 4.82313,0.33561s3.01705,-0.10726 4.82313,-0.33561c1.23519,-0.1557 2.29047,-0.96532 2.76448,-2.12093l2.53266,-6.1725c1.22135,-0.41865 2.40119,-0.9065 3.5395,-1.46009l6.14482,2.57072c1.13831,0.47401 2.46346,0.30447 3.453,-0.45671c2.54304,-1.97215 4.84043,-4.26608 6.82296,-6.82642c0.76464,-0.98608 0.93764,-2.30431 0.46017,-3.453l-2.57072,-6.14482c0.55359,-1.13831 1.0449,-2.32161 1.46355,-3.54296l6.1725,-2.53266c1.15215,-0.47401 1.95832,-1.52928 2.11747,-2.76448c0.23181,-1.80262 0.33561,-3.33536 0.33561,-4.81967s-0.1038,-3.01705 -0.33561,-4.81967c-0.15916,-1.23519 -0.96532,-2.29393 -2.11747,-2.76448zm-4.54288,9.55284l-5.76077,2.36313c-0.98262,0.40481 -1.7265,1.23519 -2.01367,2.25933c-0.52591,1.85106 -1.24903,3.60524 -2.15207,5.2141c-0.51899,0.93072 -0.58473,2.04827 -0.17646,3.02743l2.39081,5.71579c-0.87536,0.993 -1.80954,1.93064 -2.80254,2.80254l-5.71579,-2.39081c-0.98262,-0.40481 -2.09671,-0.34599 -3.02743,0.17646c-1.60886,0.90304 -3.36304,1.62616 -5.2141,2.15207c-1.02414,0.28717 -1.85452,1.03106 -2.25587,2.01713l-2.36659,5.76077c-1.38397,0.10034 -2.55342,0.10034 -3.94085,0l-2.36659,-5.76077c-0.40135,-0.98262 -1.23173,-1.7265 -2.25587,-2.01713c-1.84414,-0.52245 -3.59832,-1.24903 -5.21756,-2.15207c-0.93072,-0.51899 -2.04135,-0.57781 -3.02397,-0.173l-5.71579,2.39081c-0.98954,-0.8719 -1.92718,-1.80954 -2.80254,-2.80254l2.38735,-5.71579c0.40827,-0.98262 0.34599,-2.09671 -0.173,-3.02397c-0.9065,-1.61232 -1.62962,-3.36996 -2.15207,-5.21756c-0.28717,-1.02068 -1.03106,-1.85452 -2.01367,-2.25933l-5.76077,-2.36313c-0.04844,-0.69544 -0.07266,-1.34245 -0.07266,-1.97215s0.02422,-1.27671 0.07612,-1.96869l5.76077,-2.36313c0.98262,-0.40481 1.7265,-1.23519 2.01367,-2.25933c0.52591,-1.85106 1.24903,-3.60524 2.15207,-5.2141c0.51899,-0.93072 0.58473,-2.04827 0.17646,-3.02743l-2.39081,-5.71579c0.87536,-0.993 1.80954,-1.92718 2.80254,-2.80254l5.71579,2.39081c0.98262,0.40827 2.09325,0.34599 3.02397,-0.173c1.61924,-0.9065 3.37342,-1.62962 5.2141,-2.14861c1.02414,-0.28717 1.85798,-1.03452 2.25933,-2.01713l2.36659,-5.76423c1.38397,-0.10034 2.55342,-0.10034 3.94085,0l2.36659,5.76423c0.40135,0.98262 1.23519,1.72996 2.25933,2.01713c1.84068,0.51899 3.59486,1.24211 5.2141,2.14861c0.93072,0.51899 2.04135,0.58473 3.02397,0.173l5.71579,-2.38735c0.98954,0.8719 1.92718,1.80954 2.80254,2.80254l-2.38735,5.71579c-0.40827,0.98262 -0.34599,2.09671 0.173,3.02397c0.9065,1.61232 1.62962,3.36996 2.15207,5.21756c0.28717,1.02068 1.03106,1.85452 2.01367,2.25933l5.76077,2.36313c0.04844,0.68852 0.07266,1.33553 0.07266,1.96523s-0.02422,1.27671 -0.07612,1.96869z"/>
   <path stroke="null" id="svg_132" d="m715.74566,482.32598l6.91984,0l0,6.91984l-6.91984,0l0,-6.91984z"/>
   <path stroke="null" id="svg_133" d="m715.74566,510.00535l6.91984,0l0,6.91984l-6.91984,0l0,-6.91984z"/>
   <path stroke="null" id="svg_134" d="m729.58535,496.16567l6.91984,0l0,6.91984l-6.91984,0l0,-6.91984z"/>
   <path stroke="null" id="svg_135" d="m701.90598,496.16567l6.91984,0l0,6.91984l-6.91984,0l0,-6.91984z"/>
   <path stroke="null" id="svg_136" d="m715.74566,496.16567l6.91984,0l0,6.91984l-6.91984,0l0,-6.91984z"/>
   <path stroke="null" id="svg_137" d="m784.94408,485.78591c0.92034,0 1.79916,-0.36329 2.44616,-1.01376l12.82593,-12.82593l2.66414,0c1.43241,4.01697 5.23832,6.91984 9.74314,6.91984c5.72271,0 10.37976,-4.65705 10.37976,-10.37976s-4.65705,-10.37976 -10.37976,-10.37976c-4.50482,0 -8.31073,2.90287 -9.74314,6.91984l-4.09655,0c-0.92034,0 -1.79916,0.36329 -2.44616,1.01376l-12.82593,12.82593l-5.48743,0l0,-17.2996c0,-9.539 -7.7606,-17.2996 -17.2996,-17.2996l-83.0381,0c-9.539,0 -17.2996,7.7606 -17.2996,17.2996l0,17.2996l-5.48743,0l-12.82593,-12.82593c-0.64701,-0.65047 -1.52583,-1.01376 -2.44616,-1.01376l-4.09655,0c-1.43241,-4.01697 -5.23832,-6.91984 -9.74314,-6.91984c-5.72271,0 -10.37976,4.65705 -10.37976,10.37976s4.65705,10.37976 10.37976,10.37976c4.50482,0 8.31073,-2.90287 9.74314,-6.91984l2.66414,0l12.82593,12.82593c0.64701,0.65047 1.52583,1.01376 2.44616,1.01376l6.91984,0l0,10.37976l-24.85607,0c-1.43241,-4.01697 -5.23832,-6.91984 -9.74314,-6.91984c-5.72271,0 -10.37976,4.65705 -10.37976,10.37976s4.65705,10.37976 10.37976,10.37976c4.50482,0 8.31073,-2.90287 9.74314,-6.91984l24.85607,0l0,10.37976l-6.91984,0c-0.92034,0 -1.79916,0.36329 -2.44616,1.01376l-12.82593,12.82593l-2.66414,0c-1.43241,-4.01697 -5.23832,-6.91984 -9.74314,-6.91984c-5.72271,0 -10.37976,4.65705 -10.37976,10.37976s4.65705,10.37976 10.37976,10.37976c4.50482,0 8.31073,-2.90287 9.74314,-6.91984l4.09655,0c0.92034,0 1.79916,-0.36329 2.44616,-1.01376l12.82593,-12.82593l5.48743,0l0,17.2996c0,9.539 7.7606,17.2996 17.2996,17.2996l24.21945,0l0,10.37976l-10.37976,0c-1.44279,0 -2.73334,0.89266 -3.24195,2.24203c-0.50515,1.34937 -0.1211,2.87173 0.96186,3.81975l27.67937,24.21945c0.65393,0.57089 1.46701,0.85806 2.28009,0.85806s1.62616,-0.28717 2.27663,-0.85806l27.67937,-24.21945c1.08296,-0.94802 1.47047,-2.47038 0.96186,-3.81975c-0.50515,-1.34937 -1.7957,-2.24203 -3.23849,-2.24203l-10.37976,0l0,-10.37976l24.21945,0c9.539,0 17.2996,-7.7606 17.2996,-17.2996l0,-17.2996l5.48743,0l12.82593,12.82593c0.64701,0.65047 1.52583,1.01376 2.44616,1.01376l4.09655,0c1.43241,4.01697 5.23832,6.91984 9.74314,6.91984c5.72271,0 10.37976,-4.65705 10.37976,-10.37976s-4.65705,-10.37976 -10.37976,-10.37976c-4.50482,0 -8.31073,2.90287 -9.74314,6.91984l-2.66414,0l-12.82593,-12.82593c-0.64701,-0.65047 -1.52583,-1.01376 -2.44616,-1.01376l-6.91984,0l0,-10.37976l24.85607,0c1.43241,4.01697 5.23832,6.91984 9.74314,6.91984c5.72271,0 10.37976,-4.65705 10.37976,-10.37976s-4.65705,-10.37976 -10.37976,-10.37976c-4.50482,0 -8.31073,2.90287 -9.74314,6.91984l-24.85607,0l0,-10.37976l6.91984,0zm27.67937,-20.75952c1.90988,0 3.45992,1.5535 3.45992,3.45992s-1.55004,3.45992 -3.45992,3.45992s-3.45992,-1.5535 -3.45992,-3.45992s1.55004,-3.45992 3.45992,-3.45992zm-186.83572,6.91984c-1.90988,0 -3.45992,-1.5535 -3.45992,-3.45992s1.55004,-3.45992 3.45992,-3.45992s3.45992,1.5535 3.45992,3.45992s-1.55004,3.45992 -3.45992,3.45992zm0,31.13929c-1.90988,0 -3.45992,-1.5535 -3.45992,-3.45992s1.55004,-3.45992 3.45992,-3.45992s3.45992,1.5535 3.45992,3.45992s-1.55004,3.45992 -3.45992,3.45992zm0,31.13929c-1.90988,0 -3.45992,-1.5535 -3.45992,-3.45992s1.55004,-3.45992 3.45992,-3.45992s3.45992,1.5535 3.45992,3.45992s-1.55004,3.45992 -3.45992,3.45992zm107.25754,38.05913l4.63283,0l-18.47252,16.16129l-18.47252,-16.16129l4.63283,0c1.91334,0 3.45992,-1.55004 3.45992,-3.45992l0,-13.83968l20.75952,0l0,13.83968c0,1.90988 1.54658,3.45992 3.45992,3.45992zm38.05913,-34.59921c0,5.72271 -4.65705,10.37976 -10.37976,10.37976l-83.0381,0c-5.72271,0 -10.37976,-4.65705 -10.37976,-10.37976l0,-76.11826c0,-5.72271 4.65705,-10.37976 10.37976,-10.37976l83.0381,0c5.72271,0 10.37976,4.65705 10.37976,10.37976l0,76.11826zm41.51905,-10.37976c1.90988,0 3.45992,1.5535 3.45992,3.45992s-1.55004,3.45992 -3.45992,3.45992s-3.45992,-1.5535 -3.45992,-3.45992s1.55004,-3.45992 3.45992,-3.45992zm0,-31.13929c1.90988,0 3.45992,1.5535 3.45992,3.45992s-1.55004,3.45992 -3.45992,3.45992s-3.45992,-1.5535 -3.45992,-3.45992s1.55004,-3.45992 3.45992,-3.45992z"/>
  </g>
  <g stroke="null" id="svg_151">
   <path fill="#2e5790" stroke="null" id="svg_143" d="m47.62943,32.95162l-1.2405,-1.2405l-2.01164,2.01164l0,-4.02328l3.50918,0c0.48514,0 0.8773,-0.39303 0.8773,-0.8773l0,-5.26378c0,-0.48427 -0.39215,-0.8773 -0.8773,-0.8773l-8.77296,0c-0.48514,0 -0.8773,0.39303 -0.8773,0.8773l0,5.26378c0,0.48427 0.39215,0.8773 0.8773,0.8773l3.50918,0l0,4.02328l-2.01164,-2.01164l-1.2405,1.2405l3.50918,3.50918c0.17107,0.17107 0.39566,0.25705 0.62025,0.25705s0.44918,-0.08598 0.62025,-0.25705l3.50918,-3.50918zm-7.63862,-8.51591l7.01837,0l0,3.50918l-7.01837,0l0,-3.50918z"/>
   <path fill="#2e5790" stroke="null" id="svg_144" d="m52.52825,48.83156l-1.5651,-0.64218c-0.10615,-0.30881 -0.22985,-0.60884 -0.37022,-0.89835l0.65095,-1.55808c0.12194,-0.29214 0.0772,-0.62551 -0.11668,-0.87554c-0.50094,-0.64832 -1.08346,-1.22997 -1.73003,-1.73091c-0.25003,-0.19213 -0.5834,-0.23687 -0.87554,-0.1158l-1.55808,0.65095c-0.28951,-0.14037 -0.58954,-0.26407 -0.89747,-0.36934l-0.64218,-1.56597c-0.12019,-0.29214 -0.38689,-0.49743 -0.70096,-0.53778c-0.91502,-0.1158 -1.53,-0.1158 -2.44502,0c-0.31319,0.03948 -0.58077,0.24477 -0.70096,0.53778l-0.64218,1.56597c-0.30881,0.10528 -0.60797,0.22897 -0.89747,0.36934l-1.55808,-0.65183c-0.29038,-0.12194 -0.62639,-0.07896 -0.87554,0.1158c-0.64657,0.50094 -1.22909,1.08346 -1.73003,1.73091c-0.19388,0.25003 -0.23775,0.58428 -0.11668,0.87554l0.65183,1.55808c-0.14037,0.28863 -0.26494,0.58867 -0.3711,0.89835l-1.5651,0.64218c-0.29214,0.12019 -0.49655,0.38776 -0.53691,0.70096c-0.05966,0.45795 -0.08598,0.84659 -0.08598,1.22295s0.02632,0.765 0.0851,1.22207c0.04036,0.31319 0.24477,0.58165 0.53691,0.70096l1.5651,0.64218c0.10615,0.30881 0.22985,0.60884 0.37022,0.89835l-0.65095,1.55808c-0.12194,0.29214 -0.0772,0.62551 0.11668,0.87554c0.50094,0.64744 1.08258,1.22997 1.73003,1.73091c0.24915,0.19388 0.58516,0.23687 0.87554,0.1158l1.55808,-0.65183c0.28951,0.14037 0.58954,0.26407 0.89747,0.37022l0.64218,1.5651c0.12019,0.29214 0.38689,0.49743 0.70096,0.53778c0.45795,0.0579 0.84571,0.0851 1.22295,0.0851s0.765,-0.0272 1.22295,-0.0851c0.31319,-0.03948 0.58077,-0.24477 0.70096,-0.53778l0.64218,-1.5651c0.30969,-0.10615 0.60884,-0.22985 0.89747,-0.37022l1.55808,0.65183c0.28863,0.12019 0.62463,0.0772 0.87554,-0.1158c0.64481,-0.50006 1.22734,-1.08171 1.73003,-1.73091c0.19388,-0.25003 0.23775,-0.58428 0.11668,-0.87554l-0.65183,-1.55808c0.14037,-0.28863 0.26494,-0.58867 0.3711,-0.89835l1.5651,-0.64218c0.29214,-0.12019 0.49655,-0.38776 0.53691,-0.70096c0.05878,-0.45707 0.0851,-0.84571 0.0851,-1.22207s-0.02632,-0.765 -0.0851,-1.22207c-0.04036,-0.31319 -0.24477,-0.58165 -0.53691,-0.70096zm-1.15189,2.42221l-1.4607,0.59919c-0.24915,0.10264 -0.43777,0.31319 -0.51059,0.57287c-0.13335,0.46935 -0.3167,0.91414 -0.54568,1.32209c-0.13159,0.23599 -0.14826,0.51936 -0.04474,0.76763l0.60621,1.44929c-0.22196,0.25178 -0.45883,0.48953 -0.71061,0.71061l-1.44929,-0.60621c-0.24915,-0.10264 -0.53164,-0.08773 -0.76763,0.04474c-0.40794,0.22897 -0.85273,0.41233 -1.32209,0.54568c-0.25968,0.07282 -0.47023,0.26143 -0.572,0.51146l-0.60007,1.4607c-0.35092,0.02544 -0.64744,0.02544 -0.99924,0l-0.60007,-1.4607c-0.10177,-0.24915 -0.31232,-0.43777 -0.572,-0.51146c-0.4676,-0.13247 -0.91239,-0.3167 -1.32296,-0.54568c-0.23599,-0.13159 -0.5176,-0.14651 -0.76676,-0.04386l-1.44929,0.60621c-0.25091,-0.22108 -0.48865,-0.45883 -0.71061,-0.71061l0.60533,-1.44929c0.10352,-0.24915 0.08773,-0.53164 -0.04386,-0.76676c-0.22985,-0.40882 -0.41321,-0.85449 -0.54568,-1.32296c-0.07282,-0.2588 -0.26143,-0.47023 -0.51059,-0.57287l-1.4607,-0.59919c-0.01228,-0.17634 -0.01842,-0.34039 -0.01842,-0.50006s0.00614,-0.32372 0.0193,-0.49918l1.4607,-0.59919c0.24915,-0.10264 0.43777,-0.31319 0.51059,-0.57287c0.13335,-0.46935 0.3167,-0.91414 0.54568,-1.32209c0.13159,-0.23599 0.14826,-0.51936 0.04474,-0.76763l-0.60621,-1.44929c0.22196,-0.25178 0.45883,-0.48865 0.71061,-0.71061l1.44929,0.60621c0.24915,0.10352 0.53076,0.08773 0.76676,-0.04386c0.41057,-0.22985 0.85536,-0.41321 1.32209,-0.5448c0.25968,-0.07282 0.47111,-0.26231 0.57287,-0.51146l0.60007,-1.46158c0.35092,-0.02544 0.64744,-0.02544 0.99924,0l0.60007,1.46158c0.10177,0.24915 0.31319,0.43865 0.57287,0.51146c0.46672,0.13159 0.91151,0.31495 1.32209,0.5448c0.23599,0.13159 0.5176,0.14826 0.76676,0.04386l1.44929,-0.60533c0.25091,0.22108 0.48865,0.45883 0.71061,0.71061l-0.60533,1.44929c-0.10352,0.24915 -0.08773,0.53164 0.04386,0.76676c0.22985,0.40882 0.41321,0.85449 0.54568,1.32296c0.07282,0.2588 0.26143,0.47023 0.51059,0.57287l1.4607,0.59919c0.01228,0.17458 0.01842,0.33864 0.01842,0.4983s-0.00614,0.32372 -0.0193,0.49918z"/>
   <path fill="#2e5790" stroke="null" id="svg_145" d="m42.62271,46.36811l1.75459,0l0,1.75459l-1.75459,0l0,-1.75459z"/>
   <path fill="#2e5790" stroke="null" id="svg_146" d="m42.62271,53.38648l1.75459,0l0,1.75459l-1.75459,0l0,-1.75459z"/>
   <path fill="#2e5790" stroke="null" id="svg_147" d="m46.13189,49.8773l1.75459,0l0,1.75459l-1.75459,0l0,-1.75459z"/>
   <path fill="#2e5790" stroke="null" id="svg_148" d="m39.11352,49.8773l1.75459,0l0,1.75459l-1.75459,0l0,-1.75459z"/>
   <path fill="#2e5790" stroke="null" id="svg_149" d="m42.62271,49.8773l1.75459,0l0,1.75459l-1.75459,0l0,-1.75459z"/>
   <path fill="#2e5790" stroke="null" id="svg_150" d="m60.16863,47.24541c0.23336,0 0.45619,-0.09212 0.62025,-0.25705l3.25214,-3.25214l0.67552,0c0.3632,1.01854 1.32823,1.75459 2.47047,1.75459c1.45105,0 2.63189,-1.18084 2.63189,-2.63189s-1.18084,-2.63189 -2.63189,-2.63189c-1.14224,0 -2.10727,0.73605 -2.47047,1.75459l-1.03872,0c-0.23336,0 -0.45619,0.09212 -0.62025,0.25705l-3.25214,3.25214l-1.39139,0l0,-4.38648c0,-2.41871 -1.96777,-4.38648 -4.38648,-4.38648l-21.0551,0c-2.41871,0 -4.38648,1.96777 -4.38648,4.38648l0,4.38648l-1.39139,0l-3.25214,-3.25214c-0.16405,-0.16493 -0.38689,-0.25705 -0.62025,-0.25705l-1.03872,0c-0.3632,-1.01854 -1.32823,-1.75459 -2.47047,-1.75459c-1.45105,0 -2.63189,1.18084 -2.63189,2.63189s1.18084,2.63189 2.63189,2.63189c1.14224,0 2.10727,-0.73605 2.47047,-1.75459l0.67552,0l3.25214,3.25214c0.16405,0.16493 0.38689,0.25705 0.62025,0.25705l1.75459,0l0,2.63189l-6.30249,0c-0.3632,-1.01854 -1.32823,-1.75459 -2.47047,-1.75459c-1.45105,0 -2.63189,1.18084 -2.63189,2.63189s1.18084,2.63189 2.63189,2.63189c1.14224,0 2.10727,-0.73605 2.47047,-1.75459l6.30249,0l0,2.63189l-1.75459,0c-0.23336,0 -0.45619,0.09212 -0.62025,0.25705l-3.25214,3.25214l-0.67552,0c-0.3632,-1.01854 -1.32823,-1.75459 -2.47047,-1.75459c-1.45105,0 -2.63189,1.18084 -2.63189,2.63189s1.18084,2.63189 2.63189,2.63189c1.14224,0 2.10727,-0.73605 2.47047,-1.75459l1.03872,0c0.23336,0 0.45619,-0.09212 0.62025,-0.25705l3.25214,-3.25214l1.39139,0l0,4.38648c0,2.41871 1.96777,4.38648 4.38648,4.38648l6.14107,0l0,2.63189l-2.63189,0c-0.36583,0 -0.69306,0.22634 -0.82203,0.56849c-0.12809,0.34215 -0.03071,0.72816 0.24389,0.96853l7.01837,6.14107c0.16581,0.14475 0.37197,0.21757 0.57814,0.21757s0.41233,-0.07282 0.57726,-0.21757l7.01837,-6.14107c0.27459,-0.24038 0.37285,-0.62639 0.24389,-0.96853c-0.12809,-0.34215 -0.45532,-0.56849 -0.82115,-0.56849l-2.63189,0l0,-2.63189l6.14107,0c2.41871,0 4.38648,-1.96777 4.38648,-4.38648l0,-4.38648l1.39139,0l3.25214,3.25214c0.16405,0.16493 0.38689,0.25705 0.62025,0.25705l1.03872,0c0.3632,1.01854 1.32823,1.75459 2.47047,1.75459c1.45105,0 2.63189,-1.18084 2.63189,-2.63189s-1.18084,-2.63189 -2.63189,-2.63189c-1.14224,0 -2.10727,0.73605 -2.47047,1.75459l-0.67552,0l-3.25214,-3.25214c-0.16405,-0.16493 -0.38689,-0.25705 -0.62025,-0.25705l-1.75459,0l0,-2.63189l6.30249,0c0.3632,1.01854 1.32823,1.75459 2.47047,1.75459c1.45105,0 2.63189,-1.18084 2.63189,-2.63189s-1.18084,-2.63189 -2.63189,-2.63189c-1.14224,0 -2.10727,0.73605 -2.47047,1.75459l-6.30249,0l0,-2.63189l1.75459,0zm7.01837,-5.26378c0.48427,0 0.8773,0.39391 0.8773,0.8773s-0.39303,0.8773 -0.8773,0.8773s-0.8773,-0.39391 -0.8773,-0.8773s0.39303,-0.8773 0.8773,-0.8773zm-47.37398,1.75459c-0.48427,0 -0.8773,-0.39391 -0.8773,-0.8773s0.39303,-0.8773 0.8773,-0.8773s0.8773,0.39391 0.8773,0.8773s-0.39303,0.8773 -0.8773,0.8773zm0,7.89566c-0.48427,0 -0.8773,-0.39391 -0.8773,-0.8773s0.39303,-0.8773 0.8773,-0.8773s0.8773,0.39391 0.8773,0.8773s-0.39303,0.8773 -0.8773,0.8773zm0,7.89566c-0.48427,0 -0.8773,-0.39391 -0.8773,-0.8773s0.39303,-0.8773 0.8773,-0.8773s0.8773,0.39391 0.8773,0.8773s-0.39303,0.8773 -0.8773,0.8773zm27.19618,9.65026l1.1747,0l-4.68388,4.09785l-4.68388,-4.09785l1.1747,0c0.48514,0 0.8773,-0.39303 0.8773,-0.8773l0,-3.50918l5.26378,0l0,3.50918c0,0.48427 0.39215,0.8773 0.8773,0.8773zm9.65026,-8.77296c0,1.45105 -1.18084,2.63189 -2.63189,2.63189l-21.0551,0c-1.45105,0 -2.63189,-1.18084 -2.63189,-2.63189l0,-19.30051c0,-1.45105 1.18084,-2.63189 2.63189,-2.63189l21.0551,0c1.45105,0 2.63189,1.18084 2.63189,2.63189l0,19.30051zm10.52755,-2.63189c0.48427,0 0.8773,0.39391 0.8773,0.8773s-0.39303,0.8773 -0.8773,0.8773s-0.8773,-0.39391 -0.8773,-0.8773s0.39303,-0.8773 0.8773,-0.8773zm0,-7.89566c0.48427,0 0.8773,0.39391 0.8773,0.8773s-0.39303,0.8773 -0.8773,0.8773s-0.8773,-0.39391 -0.8773,-0.8773s0.39303,-0.8773 0.8773,-0.8773z"/>
  </g>
 </g>
</svg>