<svg width="87" height="98" xmlns="http://www.w3.org/2000/svg">
 <title>icon-eda</title>

 <g>
  <title>background</title>
  <rect x="-1" y="-1" width="89" height="100" id="canvas_background" fill="none"/>
 </g>
 <g>
  <title>Layer 1</title>
  <path stroke="#4b8edb" d="m85.82857,28.69268a7.53506,7.53506 0 0 0 -3.42503,-5.87148l-35.6203,-20.55017a7.53506,7.53506 0 0 0 -6.7522,0l-35.6203,20.55017a7.53506,7.53506 0 0 0 -3.42503,5.87148l0,41.10035a7.53506,7.53506 0 0 0 3.42503,5.87148l35.6203,20.55017a7.53506,7.53506 0 0 0 6.7522,0l35.6203,-20.55017a7.53506,7.53506 0 0 0 3.42503,-5.87148l0,-41.10035z" stroke-width="2" stroke-miterlimit="10" fill="none" id="svg_2"/>
  <g stroke="null" id="svg_138">
   <path stroke="null" id="svg_130" d="m735.49143,429.41342l-4.89233,-4.89233l-7.9336,7.9336l0,-15.8672l13.83968,0c1.91334,0 3.45992,-1.55004 3.45992,-3.45992l0,-20.75952c0,-1.90988 -1.54658,-3.45992 -3.45992,-3.45992l-34.59921,0c-1.91334,0 -3.45992,1.55004 -3.45992,3.45992l0,20.75952c0,1.90988 1.54658,3.45992 3.45992,3.45992l13.83968,0l0,15.8672l-7.9336,-7.9336l-4.89233,4.89233l13.83968,13.83968c0.67468,0.67468 1.56042,1.01376 2.44616,1.01376s1.77148,-0.33907 2.44616,-1.01376l13.83968,-13.83968zm-30.12553,-33.58545l27.67937,0l0,13.83968l-27.67937,0l0,-13.83968z"/>
   <path stroke="null" id="svg_131" d="m754.81163,492.04144l-6.1725,-2.53266c-0.41865,-1.21789 -0.9065,-2.40119 -1.46009,-3.54296l2.56726,-6.14482c0.48093,-1.15215 0.30447,-2.46692 -0.46017,-3.453c-1.97561,-2.55688 -4.273,-4.85081 -6.82296,-6.82642c-0.98608,-0.75772 -2.30085,-0.93418 -3.453,-0.45671l-6.14482,2.56726c-1.14177,-0.55359 -2.32507,-1.04144 -3.5395,-1.45663l-2.53266,-6.17596c-0.47401,-1.15215 -1.52583,-1.96178 -2.76448,-2.12093c-3.6087,-0.45671 -6.0341,-0.45671 -9.6428,0c-1.23519,0.1557 -2.29047,0.96532 -2.76448,2.12093l-2.53266,6.17596c-1.21789,0.41519 -2.39773,0.90304 -3.5395,1.45663l-6.14482,-2.57072c-1.14523,-0.48093 -2.47038,-0.31139 -3.453,0.45671c-2.54996,1.97561 -4.84735,4.273 -6.82296,6.82642c-0.76464,0.98608 -0.93764,2.30431 -0.46017,3.453l2.57072,6.14482c-0.55359,1.13831 -1.0449,2.32161 -1.46355,3.54296l-6.1725,2.53266c-1.15215,0.47401 -1.95832,1.52928 -2.11747,2.76448c-0.23527,1.80608 -0.33907,3.33882 -0.33907,4.82313s0.1038,3.01705 0.33561,4.81967c0.15916,1.23519 0.96532,2.29393 2.11747,2.76448l6.1725,2.53266c0.41865,1.21789 0.9065,2.40119 1.46009,3.54296l-2.56726,6.14482c-0.48093,1.15215 -0.30447,2.46692 0.46017,3.453c1.97561,2.55342 4.26954,4.85081 6.82296,6.82642c0.98262,0.76464 2.30777,0.93418 3.453,0.45671l6.14482,-2.57072c1.14177,0.55359 2.32507,1.04144 3.5395,1.46009l2.53266,6.1725c0.47401,1.15215 1.52583,1.96178 2.76448,2.12093c1.80608,0.22835 3.33536,0.33561 4.82313,0.33561s3.01705,-0.10726 4.82313,-0.33561c1.23519,-0.1557 2.29047,-0.96532 2.76448,-2.12093l2.53266,-6.1725c1.22135,-0.41865 2.40119,-0.9065 3.5395,-1.46009l6.14482,2.57072c1.13831,0.47401 2.46346,0.30447 3.453,-0.45671c2.54304,-1.97215 4.84043,-4.26608 6.82296,-6.82642c0.76464,-0.98608 0.93764,-2.30431 0.46017,-3.453l-2.57072,-6.14482c0.55359,-1.13831 1.0449,-2.32161 1.46355,-3.54296l6.1725,-2.53266c1.15215,-0.47401 1.95832,-1.52928 2.11747,-2.76448c0.23181,-1.80262 0.33561,-3.33536 0.33561,-4.81967s-0.1038,-3.01705 -0.33561,-4.81967c-0.15916,-1.23519 -0.96532,-2.29393 -2.11747,-2.76448zm-4.54288,9.55284l-5.76077,2.36313c-0.98262,0.40481 -1.7265,1.23519 -2.01367,2.25933c-0.52591,1.85106 -1.24903,3.60524 -2.15207,5.2141c-0.51899,0.93072 -0.58473,2.04827 -0.17646,3.02743l2.39081,5.71579c-0.87536,0.993 -1.80954,1.93064 -2.80254,2.80254l-5.71579,-2.39081c-0.98262,-0.40481 -2.09671,-0.34599 -3.02743,0.17646c-1.60886,0.90304 -3.36304,1.62616 -5.2141,2.15207c-1.02414,0.28717 -1.85452,1.03106 -2.25587,2.01713l-2.36659,5.76077c-1.38397,0.10034 -2.55342,0.10034 -3.94085,0l-2.36659,-5.76077c-0.40135,-0.98262 -1.23173,-1.7265 -2.25587,-2.01713c-1.84414,-0.52245 -3.59832,-1.24903 -5.21756,-2.15207c-0.93072,-0.51899 -2.04135,-0.57781 -3.02397,-0.173l-5.71579,2.39081c-0.98954,-0.8719 -1.92718,-1.80954 -2.80254,-2.80254l2.38735,-5.71579c0.40827,-0.98262 0.34599,-2.09671 -0.173,-3.02397c-0.9065,-1.61232 -1.62962,-3.36996 -2.15207,-5.21756c-0.28717,-1.02068 -1.03106,-1.85452 -2.01367,-2.25933l-5.76077,-2.36313c-0.04844,-0.69544 -0.07266,-1.34245 -0.07266,-1.97215s0.02422,-1.27671 0.07612,-1.96869l5.76077,-2.36313c0.98262,-0.40481 1.7265,-1.23519 2.01367,-2.25933c0.52591,-1.85106 1.24903,-3.60524 2.15207,-5.2141c0.51899,-0.93072 0.58473,-2.04827 0.17646,-3.02743l-2.39081,-5.71579c0.87536,-0.993 1.80954,-1.92718 2.80254,-2.80254l5.71579,2.39081c0.98262,0.40827 2.09325,0.34599 3.02397,-0.173c1.61924,-0.9065 3.37342,-1.62962 5.2141,-2.14861c1.02414,-0.28717 1.85798,-1.03452 2.25933,-2.01713l2.36659,-5.76423c1.38397,-0.10034 2.55342,-0.10034 3.94085,0l2.36659,5.76423c0.40135,0.98262 1.23519,1.72996 2.25933,2.01713c1.84068,0.51899 3.59486,1.24211 5.2141,2.14861c0.93072,0.51899 2.04135,0.58473 3.02397,0.173l5.71579,-2.38735c0.98954,0.8719 1.92718,1.80954 2.80254,2.80254l-2.38735,5.71579c-0.40827,0.98262 -0.34599,2.09671 0.173,3.02397c0.9065,1.61232 1.62962,3.36996 2.15207,5.21756c0.28717,1.02068 1.03106,1.85452 2.01367,2.25933l5.76077,2.36313c0.04844,0.68852 0.07266,1.33553 0.07266,1.96523s-0.02422,1.27671 -0.07612,1.96869z"/>
   <path stroke="null" id="svg_132" d="m715.74566,482.32598l6.91984,0l0,6.91984l-6.91984,0l0,-6.91984z"/>
   <path stroke="null" id="svg_133" d="m715.74566,510.00535l6.91984,0l0,6.91984l-6.91984,0l0,-6.91984z"/>
   <path stroke="null" id="svg_134" d="m729.58535,496.16567l6.91984,0l0,6.91984l-6.91984,0l0,-6.91984z"/>
   <path stroke="null" id="svg_135" d="m701.90598,496.16567l6.91984,0l0,6.91984l-6.91984,0l0,-6.91984z"/>
   <path stroke="null" id="svg_136" d="m715.74566,496.16567l6.91984,0l0,6.91984l-6.91984,0l0,-6.91984z"/>
   <path stroke="null" id="svg_137" d="m784.94408,485.78591c0.92034,0 1.79916,-0.36329 2.44616,-1.01376l12.82593,-12.82593l2.66414,0c1.43241,4.01697 5.23832,6.91984 9.74314,6.91984c5.72271,0 10.37976,-4.65705 10.37976,-10.37976s-4.65705,-10.37976 -10.37976,-10.37976c-4.50482,0 -8.31073,2.90287 -9.74314,6.91984l-4.09655,0c-0.92034,0 -1.79916,0.36329 -2.44616,1.01376l-12.82593,12.82593l-5.48743,0l0,-17.2996c0,-9.539 -7.7606,-17.2996 -17.2996,-17.2996l-83.0381,0c-9.539,0 -17.2996,7.7606 -17.2996,17.2996l0,17.2996l-5.48743,0l-12.82593,-12.82593c-0.64701,-0.65047 -1.52583,-1.01376 -2.44616,-1.01376l-4.09655,0c-1.43241,-4.01697 -5.23832,-6.91984 -9.74314,-6.91984c-5.72271,0 -10.37976,4.65705 -10.37976,10.37976s4.65705,10.37976 10.37976,10.37976c4.50482,0 8.31073,-2.90287 9.74314,-6.91984l2.66414,0l12.82593,12.82593c0.64701,0.65047 1.52583,1.01376 2.44616,1.01376l6.91984,0l0,10.37976l-24.85607,0c-1.43241,-4.01697 -5.23832,-6.91984 -9.74314,-6.91984c-5.72271,0 -10.37976,4.65705 -10.37976,10.37976s4.65705,10.37976 10.37976,10.37976c4.50482,0 8.31073,-2.90287 9.74314,-6.91984l24.85607,0l0,10.37976l-6.91984,0c-0.92034,0 -1.79916,0.36329 -2.44616,1.01376l-12.82593,12.82593l-2.66414,0c-1.43241,-4.01697 -5.23832,-6.91984 -9.74314,-6.91984c-5.72271,0 -10.37976,4.65705 -10.37976,10.37976s4.65705,10.37976 10.37976,10.37976c4.50482,0 8.31073,-2.90287 9.74314,-6.91984l4.09655,0c0.92034,0 1.79916,-0.36329 2.44616,-1.01376l12.82593,-12.82593l5.48743,0l0,17.2996c0,9.539 7.7606,17.2996 17.2996,17.2996l24.21945,0l0,10.37976l-10.37976,0c-1.44279,0 -2.73334,0.89266 -3.24195,2.24203c-0.50515,1.34937 -0.1211,2.87173 0.96186,3.81975l27.67937,24.21945c0.65393,0.57089 1.46701,0.85806 2.28009,0.85806s1.62616,-0.28717 2.27663,-0.85806l27.67937,-24.21945c1.08296,-0.94802 1.47047,-2.47038 0.96186,-3.81975c-0.50515,-1.34937 -1.7957,-2.24203 -3.23849,-2.24203l-10.37976,0l0,-10.37976l24.21945,0c9.539,0 17.2996,-7.7606 17.2996,-17.2996l0,-17.2996l5.48743,0l12.82593,12.82593c0.64701,0.65047 1.52583,1.01376 2.44616,1.01376l4.09655,0c1.43241,4.01697 5.23832,6.91984 9.74314,6.91984c5.72271,0 10.37976,-4.65705 10.37976,-10.37976s-4.65705,-10.37976 -10.37976,-10.37976c-4.50482,0 -8.31073,2.90287 -9.74314,6.91984l-2.66414,0l-12.82593,-12.82593c-0.64701,-0.65047 -1.52583,-1.01376 -2.44616,-1.01376l-6.91984,0l0,-10.37976l24.85607,0c1.43241,4.01697 5.23832,6.91984 9.74314,6.91984c5.72271,0 10.37976,-4.65705 10.37976,-10.37976s-4.65705,-10.37976 -10.37976,-10.37976c-4.50482,0 -8.31073,2.90287 -9.74314,6.91984l-24.85607,0l0,-10.37976l6.91984,0zm27.67937,-20.75952c1.90988,0 3.45992,1.5535 3.45992,3.45992s-1.55004,3.45992 -3.45992,3.45992s-3.45992,-1.5535 -3.45992,-3.45992s1.55004,-3.45992 3.45992,-3.45992zm-186.83572,6.91984c-1.90988,0 -3.45992,-1.5535 -3.45992,-3.45992s1.55004,-3.45992 3.45992,-3.45992s3.45992,1.5535 3.45992,3.45992s-1.55004,3.45992 -3.45992,3.45992zm0,31.13929c-1.90988,0 -3.45992,-1.5535 -3.45992,-3.45992s1.55004,-3.45992 3.45992,-3.45992s3.45992,1.5535 3.45992,3.45992s-1.55004,3.45992 -3.45992,3.45992zm0,31.13929c-1.90988,0 -3.45992,-1.5535 -3.45992,-3.45992s1.55004,-3.45992 3.45992,-3.45992s3.45992,1.5535 3.45992,3.45992s-1.55004,3.45992 -3.45992,3.45992zm107.25754,38.05913l4.63283,0l-18.47252,16.16129l-18.47252,-16.16129l4.63283,0c1.91334,0 3.45992,-1.55004 3.45992,-3.45992l0,-13.83968l20.75952,0l0,13.83968c0,1.90988 1.54658,3.45992 3.45992,3.45992zm38.05913,-34.59921c0,5.72271 -4.65705,10.37976 -10.37976,10.37976l-83.0381,0c-5.72271,0 -10.37976,-4.65705 -10.37976,-10.37976l0,-76.11826c0,-5.72271 4.65705,-10.37976 10.37976,-10.37976l83.0381,0c5.72271,0 10.37976,4.65705 10.37976,10.37976l0,76.11826zm41.51905,-10.37976c1.90988,0 3.45992,1.5535 3.45992,3.45992s-1.55004,3.45992 -3.45992,3.45992s-3.45992,-1.5535 -3.45992,-3.45992s1.55004,-3.45992 3.45992,-3.45992zm0,-31.13929c1.90988,0 3.45992,1.5535 3.45992,3.45992s-1.55004,3.45992 -3.45992,3.45992s-3.45992,-1.5535 -3.45992,-3.45992s1.55004,-3.45992 3.45992,-3.45992z"/>
  </g>
  <g stroke="null" id="svg_201">
   <g stroke="null" transform="matrix(0.0886945192866093,0,0,0.0886945192866093,41.91856968883205,46.5090097220162) " id="svg_156">
    <g stroke="null" id="svg_157">
     <path fill="#2e5790" stroke="null" id="svg_158" d="m203.84407,-176.34645l-372.028,0c-10.172,0 -18.417,8.245 -18.417,18.417l0,372.029c0,10.172 8.245,18.417 18.417,18.417l372.029,0c10.172,0 18.417,-8.245 18.417,-18.417l0,-372.028c0,-10.173 -8.245,-18.418 -18.418,-18.418zm-18.417,372.029l-335.194,0l0,-335.194l335.194,0l0,335.194z"/>
    </g>
   </g>
   <g stroke="null" transform="matrix(0.0886945192866093,0,0,0.0886945192866093,41.91856968883205,46.5090097220162) " id="svg_159">
    <g stroke="null" id="svg_160">
     <path fill="#2e5790" stroke="null" id="svg_161" d="m89.65707,-61.54545l-143.04,0c-10.172,0 -18.417,8.245 -18.417,18.417l0,143.041c0,10.172 8.245,18.417 18.417,18.417l143.041,0c10.179,0 18.417,-8.239 18.417,-18.417l0,-143.04c0,-10.173 -8.245,-18.418 -18.418,-18.418zm-18.417,143.041l-106.206,0l0,-106.206l106.206,0l0,106.206z"/>
    </g>
   </g>
   <g stroke="null" transform="matrix(0.0886945192866093,0,0,0.0886945192866093,41.91856968883205,46.5090097220162) " id="svg_162">
    <g stroke="null" id="svg_163">
     <path fill="#2e5790" stroke="null" id="svg_164" d="m-60.13593,-227.91445c-10.172,0 -18.417,8.245 -18.417,18.417l0,51.568c0,10.172 8.245,18.417 18.417,18.417s18.417,-8.245 18.417,-18.417l0,-51.568c0,-10.172 -8.245,-18.417 -18.417,-18.417z"/>
    </g>
   </g>
   <g stroke="null" transform="matrix(0.0886945192866093,0,0,0.0886945192866093,41.91856968883205,46.5090097220162) " id="svg_165">
    <g stroke="null" id="svg_166">
     <path fill="#2e5790" stroke="null" id="svg_167" d="m95.79607,-227.91445c-10.172,0 -18.417,8.245 -18.417,18.417l0,51.568c0,10.172 8.245,18.417 18.417,18.417c10.179,0 18.417,-8.245 18.417,-18.417l0,-51.568c0.001,-10.172 -8.244,-18.417 -18.417,-18.417z"/>
    </g>
   </g>
   <g stroke="null" transform="matrix(0.0886945192866093,0,0,0.0886945192866093,41.91856968883205,46.5090097220162) " id="svg_168">
    <g stroke="null" id="svg_169">
     <path fill="#2e5790" stroke="null" id="svg_170" d="m-60.13593,195.68255c-10.172,0 -18.417,8.245 -18.417,18.417l0,51.568c0,10.172 8.245,18.417 18.417,18.417s18.417,-8.239 18.417,-18.417l0,-51.568c0,-10.172 -8.245,-18.417 -18.417,-18.417z"/>
    </g>
   </g>
   <g stroke="null" transform="matrix(0.0886945192866093,0,0,0.0886945192866093,41.91856968883205,46.5090097220162) " id="svg_171">
    <g stroke="null" id="svg_172">
     <path fill="#2e5790" stroke="null" id="svg_173" d="m95.79607,195.68255c-10.172,0 -18.417,8.245 -18.417,18.417l0,51.568c0,10.172 8.245,18.417 18.417,18.417c10.179,0 18.417,-8.239 18.417,-18.417l0,-51.568c0.001,-10.172 -8.244,-18.417 -18.417,-18.417z"/>
    </g>
   </g>
   <g stroke="null" transform="matrix(0.0886945192866093,0,0,0.0886945192866093,41.91856968883205,46.5090097220162) " id="svg_174">
    <g stroke="null" id="svg_175">
     <path fill="#2e5790" stroke="null" id="svg_176" d="m255.41307,-68.29845l-51.568,0c-10.172,0 -18.417,8.245 -18.417,18.417s8.245,18.417 18.417,18.417l51.568,0c10.179,0 18.417,-8.245 18.417,-18.417s-8.245,-18.417 -18.417,-18.417z"/>
    </g>
   </g>
   <g stroke="null" transform="matrix(0.0886945192866093,0,0,0.0886945192866093,41.91856968883205,46.5090097220162) " id="svg_177">
    <g stroke="null" id="svg_178">
     <path fill="#2e5790" stroke="null" id="svg_179" d="m255.41307,66.14755l-51.568,0c-10.172,0 -18.417,8.245 -18.417,18.417s8.245,18.417 18.417,18.417l51.568,0c10.179,0 18.417,-8.245 18.417,-18.417s-8.245,-18.417 -18.417,-18.417z"/>
    </g>
   </g>
   <g stroke="null" transform="matrix(0.0886945192866093,0,0,0.0886945192866093,41.91856968883205,46.5090097220162) " id="svg_180">
    <g stroke="null" id="svg_181">
     <path fill="#2e5790" stroke="null" id="svg_182" d="m-168.18393,-68.29845l-51.569,0c-10.172,0 -18.417,8.245 -18.417,18.418s8.245,18.417 18.417,18.417l51.568,0c10.172,0 18.417,-8.245 18.417,-18.417s-8.244,-18.418 -18.416,-18.418z"/>
    </g>
   </g>
   <g stroke="null" transform="matrix(0.0886945192866093,0,0,0.0886945192866093,41.91856968883205,46.5090097220162) " id="svg_183">
    <g stroke="null" id="svg_184">
     <path fill="#2e5790" stroke="null" id="svg_185" d="m-168.18393,66.14755l-51.569,0c-10.172,0 -18.417,8.245 -18.417,18.418s8.245,18.417 18.417,18.417l51.568,0c10.172,0 18.417,-8.245 18.417,-18.417s-8.244,-18.418 -18.416,-18.418z"/>
    </g>
   </g>
   <g stroke="null" transform="matrix(0.0886945192866093,0,0,0.0886945192866093,41.91856968883205,46.5090097220162) " id="svg_186"/>
   <g stroke="null" transform="matrix(0.0886945192866093,0,0,0.0886945192866093,41.91856968883205,46.5090097220162) " id="svg_187"/>
   <g stroke="null" transform="matrix(0.0886945192866093,0,0,0.0886945192866093,41.91856968883205,46.5090097220162) " id="svg_188"/>
   <g stroke="null" transform="matrix(0.0886945192866093,0,0,0.0886945192866093,41.91856968883205,46.5090097220162) " id="svg_189"/>
   <g stroke="null" transform="matrix(0.0886945192866093,0,0,0.0886945192866093,41.91856968883205,46.5090097220162) " id="svg_190"/>
   <g stroke="null" transform="matrix(0.0886945192866093,0,0,0.0886945192866093,41.91856968883205,46.5090097220162) " id="svg_191"/>
   <g stroke="null" transform="matrix(0.0886945192866093,0,0,0.0886945192866093,41.91856968883205,46.5090097220162) " id="svg_192"/>
   <g stroke="null" transform="matrix(0.0886945192866093,0,0,0.0886945192866093,41.91856968883205,46.5090097220162) " id="svg_193"/>
   <g stroke="null" transform="matrix(0.0886945192866093,0,0,0.0886945192866093,41.91856968883205,46.5090097220162) " id="svg_194"/>
   <g stroke="null" transform="matrix(0.0886945192866093,0,0,0.0886945192866093,41.91856968883205,46.5090097220162) " id="svg_195"/>
   <g stroke="null" transform="matrix(0.0886945192866093,0,0,0.0886945192866093,41.91856968883205,46.5090097220162) " id="svg_196"/>
   <g stroke="null" transform="matrix(0.0886945192866093,0,0,0.0886945192866093,41.91856968883205,46.5090097220162) " id="svg_197"/>
   <g stroke="null" transform="matrix(0.0886945192866093,0,0,0.0886945192866093,41.91856968883205,46.5090097220162) " id="svg_198"/>
   <g stroke="null" transform="matrix(0.0886945192866093,0,0,0.0886945192866093,41.91856968883205,46.5090097220162) " id="svg_199"/>
   <g stroke="null" transform="matrix(0.0886945192866093,0,0,0.0886945192866093,41.91856968883205,46.5090097220162) " id="svg_200"/>
  </g>
 </g>
</svg>