<svg width="87.10000000000001" height="98.2" xmlns="http://www.w3.org/2000/svg">
 <title>icon-eda</title>

 <g>
  <title>background</title>
  <rect fill="none" id="canvas_background" height="100.2" width="89.1" y="-1" x="-1"/>
 </g>
 <g>
  <title>Layer 1</title>
  <path id="svg_2" fill="none" stroke="#000" stroke-miterlimit="10" stroke-width="0.5px" d="m86.9,28.43333a7.7,7.7 0 0 0 -3.5,-6l-36.4,-21a7.7,7.7 0 0 0 -6.9,0l-36.4,21a7.7,7.7 0 0 0 -3.5,6l0,42a7.7,7.7 0 0 0 3.5,6l36.4,21a7.7,7.7 0 0 0 6.9,0l36.4,-21a7.7,7.7 0 0 0 3.5,-6l0,-42z"/>
  <g stroke="null" id="svg_26">
   <g stroke="null" transform="matrix(0.4404025817305639,0,0,0.4404025817305639,-11.081601095069765,52.380379783438386) " id="svg_18">
    <path stroke="null" id="svg_19" d="m181.54323,-8.69909a1.75,1.75 0 0 0 1.75,-1.75l0,-36.809a1.75,1.75 0 0 0 -1.75,-1.75l-115,0a1.75,1.75 0 0 0 -1.75,1.75l0,36.809a1.75,1.75 0 0 0 1.75,1.75l3.25,0l0,8.5l-3.25,0a1.749,1.749 0 0 0 -1.75,1.75l0,13.121a1.75,1.75 0 0 0 1.75,1.75l7.1,0l0,7.053c0,0.013 0,0.026 0,0.039l0,8.846a1.751,1.751 0 0 0 1.4,1.715a1.814,1.814 0 0 0 0.356,0.036l97.3,0a1.814,1.814 0 0 0 0.356,-0.036a1.751,1.751 0 0 0 1.4,-1.715l0,-8.846c0,-0.013 0,-0.026 0,-0.039l0,-7.053l7.1,0a1.75,1.75 0 0 0 1.75,-1.75l0,-13.121a1.749,1.749 0 0 0 -1.75,-1.75l-3.25,0l0,-8.5l3.238,0zm-10.6,39.31l-8.66,0l0,-7.1a1.75,1.75 0 0 0 -3.5,0l0,7.1l-8.663,0l0,-7.1a1.75,1.75 0 0 0 -3.5,0l0,7.1l-8.664,0l0,-7.1a1.75,1.75 0 0 0 -3.5,0l0,7.1l-8.663,0l0,-7.1a1.75,1.75 0 0 0 -3.5,0l0,7.1l-8.663,0l0,-7.1a1.75,1.75 0 0 0 -3.5,0l0,7.1l-8.664,0l0,-7.1a1.75,1.75 0 0 0 -3.5,0l0,7.1l-8.663,0l0,-7.1a1.75,1.75 0 0 0 -3.5,0l0,7.1l-8.66,0l0,-14.189l93.8,0l0,14.189zm5.6,-27.31l3.25,0l0,9.621l-111.5,0l0,-9.621l3.25,0a1.75,1.75 0 0 0 1.75,-1.75l0,-12a1.749,1.749 0 0 0 -1.75,-1.75l-3.25,0l0,-33.309l111.5,0l0,33.309l-3.25,0a1.749,1.749 0 0 0 -1.75,1.75l0,12a1.75,1.75 0 0 0 1.75,1.75z"/>
    <path stroke="null" id="svg_20" d="m155.63323,3.92191l-63.18,0a1.75,1.75 0 1 0 0,3.5l63.18,0a1.75,1.75 0 0 0 0,-3.5z"/>
    <path stroke="null" id="svg_21" d="m116.91423,-13.44909l14.258,0a1.75,1.75 0 0 0 1.75,-1.75l0,-20a1.75,1.75 0 0 0 -1.75,-1.75l-14.258,0a1.75,1.75 0 0 0 -1.75,1.75l0,20a1.75,1.75 0 0 0 1.75,1.75zm1.75,-20l10.758,0l0,16.5l-10.758,0l0,-16.5z"/>
    <path stroke="null" id="svg_22" d="m155.63323,-36.94909l-14.258,0a1.75,1.75 0 0 0 -1.75,1.75l0,20a1.75,1.75 0 0 0 1.75,1.75l14.258,0a1.75,1.75 0 0 0 1.75,-1.75l0,-20a1.75,1.75 0 0 0 -1.75,-1.75zm-1.75,20l-10.758,0l0,-16.5l10.758,0l0,16.5z"/>
    <path stroke="null" id="svg_23" d="m92.45323,-13.44909l14.258,0a1.75,1.75 0 0 0 1.75,-1.75l0,-20a1.75,1.75 0 0 0 -1.75,-1.75l-14.258,0a1.75,1.75 0 0 0 -1.75,1.75l0,20a1.75,1.75 0 0 0 1.75,1.75zm1.75,-20l10.758,0l0,16.5l-10.758,0l0,-16.5z"/>
    <path stroke="null" id="svg_24" d="m169.54323,-29.94909a4.75,4.75 0 1 0 4.75,4.75a4.756,4.756 0 0 0 -4.75,-4.75zm0,6a1.25,1.25 0 1 1 1.25,-1.25a1.252,1.252 0 0 1 -1.25,1.25z"/>
    <path stroke="null" id="svg_25" d="m78.38923,-29.94909a4.75,4.75 0 1 0 4.75,4.75a4.756,4.756 0 0 0 -4.75,-4.75zm0,6a1.25,1.25 0 1 1 1.25,-1.25a1.251,1.251 0 0 1 -1.25,1.25z"/>
   </g>
  </g>
 </g>
</svg>