<svg width="87.10000000000001" height="98.2" xmlns="http://www.w3.org/2000/svg">
 <title>icon-eda</title>

 <g>
  <title>background</title>
  <rect x="-1" y="-1" width="89.1" height="100.2" id="canvas_background" fill="none"/>
 </g>
 <g>
  <title>Layer 1</title>
  <path d="m86.9,28.1a7.7,7.7 0 0 0 -3.5,-6l-36.4,-21a7.7,7.7 0 0 0 -6.9,0l-36.4,21a7.7,7.7 0 0 0 -3.5,6l0,42a7.7,7.7 0 0 0 3.5,6l36.4,21a7.7,7.7 0 0 0 6.9,0l36.4,-21a7.7,7.7 0 0 0 3.5,-6l0,-42z" stroke-width="0.5px" stroke-miterlimit="10" stroke="#000" fill="none" id="svg_2"/>
  <g transform="matrix(0.8832648968247057,0,0,0.8832648968247057,115.14150189117467,135.3328607792037) " id="svg_240">
   <path id="svg_241" d="m-100.55326,-121.12967c-2.481,0 -4.5,2.019 -4.5,4.5s2.019,4.5 4.5,4.5s4.5,-2.019 4.5,-4.5s-2.019,-4.5 -4.5,-4.5zm0,7c-1.378,0 -2.5,-1.121 -2.5,-2.5s1.122,-2.5 2.5,-2.5s2.5,1.121 2.5,2.5s-1.122,2.5 -2.5,2.5z"/>
   <circle id="svg_242" r="1" cy="-118.12967" cx="-61.05326"/>
   <circle id="svg_243" r="1" cy="-118.12967" cx="-65.05326"/>
   <circle id="svg_244" r="1" cy="-115.12967" cx="-59.05326"/>
   <circle id="svg_245" r="1" cy="-115.12967" cx="-63.05326"/>
   <circle id="svg_246" r="1" cy="-118.12967" cx="-69.05326"/>
   <circle id="svg_247" r="1" cy="-115.12967" cx="-67.05326"/>
   <circle id="svg_248" r="1" cy="-118.12967" cx="-73.05326"/>
   <circle id="svg_249" r="1" cy="-115.12967" cx="-71.05326"/>
   <circle id="svg_250" r="1" cy="-118.12967" cx="-77.05326"/>
   <circle id="svg_251" r="1" cy="-115.12967" cx="-75.05326"/>
   <path id="svg_252" d="m-51.05326,-110.73767l0,-11.784c0,-2.541 -2.067,-4.608 -4.608,-4.608l-50.784,0c-2.541,0 -4.608,2.067 -4.608,4.608l0,11.783c0,1.469 0.703,2.764 1.777,3.608c-1.074,0.845 -1.777,2.141 -1.777,3.609l0,11.783c0,1.469 0.703,2.764 1.777,3.608c-1.074,0.845 -1.777,2.141 -1.777,3.609l0,11.783c0,2.542 2.067,4.609 4.608,4.609l50.783,0c2.541,0 4.608,-2.067 4.608,-4.608l0,-11.784c0,-1.469 -0.703,-2.764 -1.777,-3.608c1.075,-0.844 1.778,-2.14 1.778,-3.608l0,-11.784c0,-1.469 -0.703,-2.764 -1.777,-3.608c1.074,-0.844 1.777,-2.14 1.777,-3.608zm-2,26.216l0,11.783c0,1.438 -1.17,2.608 -2.608,2.608l-50.784,0c-1.438,0.001 -2.608,-1.169 -2.608,-2.607l0,-11.784c0,-1.438 1.17,-2.608 2.608,-2.608l50.783,0c1.439,0 2.609,1.17 2.609,2.608zm0,-19l0,11.783c0,1.438 -1.17,2.608 -2.608,2.608l-50.784,0c-1.438,0.001 -2.608,-1.169 -2.608,-2.607l0,-11.784c0,-1.438 1.17,-2.608 2.608,-2.608l50.783,0c1.439,0 2.609,1.17 2.609,2.608zm-53.392,-4.608c-1.438,0 -2.608,-1.17 -2.608,-2.608l0,-11.784c0,-1.438 1.17,-2.608 2.608,-2.608l50.783,0c1.439,0 2.609,1.17 2.609,2.608l0,11.783c0,1.438 -1.17,2.608 -2.608,2.608l-50.784,0l0,0.001z"/>
   <path id="svg_253" d="m-100.55326,-93.12967c2.481,0 4.5,-2.019 4.5,-4.5s-2.019,-4.5 -4.5,-4.5s-4.5,2.019 -4.5,4.5s2.019,4.5 4.5,4.5zm0,-7c1.378,0 2.5,1.121 2.5,2.5s-1.122,2.5 -2.5,2.5s-2.5,-1.121 -2.5,-2.5s1.122,-2.5 2.5,-2.5z"/>
   <circle id="svg_254" r="1" cy="-99.12967" cx="-61.05326"/>
   <circle id="svg_255" r="1" cy="-99.12967" cx="-65.05326"/>
   <circle id="svg_256" r="1" cy="-96.12967" cx="-59.05326"/>
   <circle id="svg_257" r="1" cy="-96.12967" cx="-63.05326"/>
   <circle id="svg_258" r="1" cy="-99.12967" cx="-69.05326"/>
   <circle id="svg_259" r="1" cy="-96.12967" cx="-67.05326"/>
   <circle id="svg_260" r="1" cy="-99.12967" cx="-73.05326"/>
   <circle id="svg_261" r="1" cy="-96.12967" cx="-71.05326"/>
   <circle id="svg_262" r="1" cy="-99.12967" cx="-77.05326"/>
   <circle id="svg_263" r="1" cy="-96.12967" cx="-75.05326"/>
   <path id="svg_264" d="m-100.55326,-74.12967c2.481,0 4.5,-2.019 4.5,-4.5s-2.019,-4.5 -4.5,-4.5s-4.5,2.019 -4.5,4.5s2.019,4.5 4.5,4.5zm0,-7c1.378,0 2.5,1.121 2.5,2.5s-1.122,2.5 -2.5,2.5s-2.5,-1.121 -2.5,-2.5s1.122,-2.5 2.5,-2.5z"/>
   <circle id="svg_265" r="1" cy="-80.12967" cx="-61.05326"/>
   <circle id="svg_266" r="1" cy="-80.12967" cx="-65.05326"/>
   <circle id="svg_267" r="1" cy="-77.12967" cx="-59.05326"/>
   <circle id="svg_268" r="1" cy="-77.12967" cx="-63.05326"/>
   <circle id="svg_269" r="1" cy="-80.12967" cx="-69.05326"/>
   <circle id="svg_270" r="1" cy="-77.12967" cx="-67.05326"/>
   <circle id="svg_271" r="1" cy="-80.12967" cx="-73.05326"/>
   <circle id="svg_272" r="1" cy="-77.12967" cx="-71.05326"/>
   <circle id="svg_273" r="1" cy="-80.12967" cx="-77.05326"/>
   <circle id="svg_274" r="1" cy="-77.12967" cx="-75.05326"/>
  </g>
  <g transform="matrix(7.175368388252593,0,0,7.175368388252593,0,0) " id="svg_275"/>
  <g transform="matrix(7.175368388252593,0,0,7.175368388252593,0,0) " id="svg_276"/>
  <g transform="matrix(7.175368388252593,0,0,7.175368388252593,0,0) " id="svg_277"/>
  <g transform="matrix(7.175368388252593,0,0,7.175368388252593,0,0) " id="svg_278"/>
  <g transform="matrix(7.175368388252593,0,0,7.175368388252593,0,0) " id="svg_279"/>
  <g transform="matrix(7.175368388252593,0,0,7.175368388252593,0,0) " id="svg_280"/>
  <g transform="matrix(7.175368388252593,0,0,7.175368388252593,0,0) " id="svg_281"/>
  <g transform="matrix(7.175368388252593,0,0,7.175368388252593,0,0) " id="svg_282"/>
  <g transform="matrix(7.175368388252593,0,0,7.175368388252593,0,0) " id="svg_283"/>
  <g transform="matrix(7.175368388252593,0,0,7.175368388252593,0,0) " id="svg_284"/>
  <g transform="matrix(7.175368388252593,0,0,7.175368388252593,0,0) " id="svg_285"/>
  <g transform="matrix(7.175368388252593,0,0,7.175368388252593,0,0) " id="svg_286"/>
  <g transform="matrix(7.175368388252593,0,0,7.175368388252593,0,0) " id="svg_287"/>
  <g transform="matrix(7.175368388252593,0,0,7.175368388252593,0,0) " id="svg_288"/>
  <g transform="matrix(7.175368388252593,0,0,7.175368388252593,0,0) " id="svg_289"/>
 </g>
</svg>