<svg width="87.10000000000001" height="98.2" xmlns="http://www.w3.org/2000/svg">
 <title>icon-eda</title>

 <g>
  <title>background</title>
  <rect x="-1" y="-1" width="89.1" height="100.2" id="canvas_background" fill="none"/>
 </g>
 <g>
  <title>Layer 1</title>
  <path d="m86.9,28.1a7.7,7.7 0 0 0 -3.5,-6l-36.4,-21a7.7,7.7 0 0 0 -6.9,0l-36.4,21a7.7,7.7 0 0 0 -3.5,6l0,42a7.7,7.7 0 0 0 3.5,6l36.4,21a7.7,7.7 0 0 0 6.9,0l36.4,-21a7.7,7.7 0 0 0 3.5,-6l0,-42z" stroke-width="0.5px" stroke-miterlimit="10" stroke="#000" fill="none" id="svg_2"/>
  <g stroke="null" id="svg_85">
   <g stroke="null" transform="matrix(0.10874906937999104,0,0,0.10874906937999104,-72.62741474886867,-127.81406513596107) " id="svg_7">
    <g stroke="null" id="svg_8">
     <rect stroke="null" id="svg_9" height="458.73" width="15" y="1401.03396" x="1083.78433"/>
    </g>
   </g>
   <g stroke="null" transform="matrix(0.10874906937999104,0,0,0.10874906937999104,-72.62741474886867,-127.81406513596107) " id="svg_10">
    <g stroke="null" id="svg_11">
     <rect stroke="null" id="svg_12" height="15" width="15" y="1867.80996" x="1083.30733"/>
    </g>
   </g>
   <g stroke="null" transform="matrix(0.10874906937999104,0,0,0.10874906937999104,-72.62741474886867,-127.81406513596107) " id="svg_13">
    <g stroke="null" id="svg_14">
     <polygon stroke="null" id="svg_15" points="1113.307197308306,1423.3100585937498 1113.307197308306,1438.3100585937498 1156.432197308306,1438.3100585937498 1156.432197308306,1468.3100585937498 1113.307197308306,1468.3100585937498 1113.307197308306,1483.3100585937498 1171.432197308306,1483.3100585937498 1171.432197308306,1423.3100585937498 "/>
    </g>
   </g>
   <g stroke="null" transform="matrix(0.10874906937999104,0,0,0.10874906937999104,-72.62741474886867,-127.81406513596107) " id="svg_16">
    <g stroke="null" id="svg_17">
     <polygon stroke="null" id="svg_18" points="1068.307197308306,1438.3100585937498 1068.307197308306,1423.3100585937498 813.3073804137748,1423.3100585937498 813.3073804137748,1483.3100585937498 1068.307197308306,1483.3100585937498 1068.307197308306,1468.3100585937498 828.3073193786186,1468.3100585937498 828.3073193786186,1438.3100585937498 "/>
    </g>
   </g>
   <g stroke="null" transform="matrix(0.10874906937999104,0,0,0.10874906937999104,-72.62741474886867,-127.81406513596107) " id="svg_19">
    <g stroke="null" id="svg_20">
     <path stroke="null" id="svg_21" d="m903.30733,1505.80996l0,60l148.125,0l0,-60l-148.125,0zm133.125,45l-118.125,0l0,-30l118.125,0l0,30z"/>
    </g>
   </g>
   <g stroke="null" transform="matrix(0.10874906937999104,0,0,0.10874906937999104,-72.62741474886867,-127.81406513596107) " id="svg_22">
    <g stroke="null" id="svg_23">
     <polygon stroke="null" id="svg_24" points="1113.307197308306,1588.3100585937498 1113.307197308306,1603.3100585937498 1308.307197308306,1603.3100585937498 1308.307197308306,1633.3100585937498 1113.307197308306,1633.3100585937498 1113.307197308306,1648.3100585937498 1323.307197308306,1648.3100585937498 1323.307197308306,1588.3100585937498 "/>
    </g>
   </g>
   <g stroke="null" transform="matrix(0.10874906937999104,0,0,0.10874906937999104,-72.62741474886867,-127.81406513596107) " id="svg_25">
    <g stroke="null" id="svg_26">
     <polygon stroke="null" id="svg_27" points="1068.307197308306,1603.3100585937498 1068.307197308306,1588.3100585937498 952.0572583434623,1588.3100585937498 952.0572583434623,1648.3100585937498 1068.307197308306,1648.3100585937498 1068.307197308306,1633.3100585937498 967.0572583434623,1633.3100585937498 967.0572583434623,1603.3100585937498 "/>
    </g>
   </g>
   <g stroke="null" transform="matrix(0.10874906937999104,0,0,0.10874906937999104,-72.62741474886867,-127.81406513596107) " id="svg_28">
    <g stroke="null" id="svg_29">
     <path stroke="null" id="svg_30" d="m1118.93233,1670.80996l0,60l135,0l0,-60l-135,0zm120,45l-105,0l0,-30l105,0l0,30z"/>
    </g>
   </g>
   <g stroke="null" transform="matrix(0.10874906937999104,0,0,0.10874906937999104,-72.62741474886867,-127.81406513596107) " id="svg_31">
    <g stroke="null" id="svg_32">
     <polygon stroke="null" id="svg_33" points="1113.307197308306,1753.3100585937498 1113.307197308306,1768.3100585937498 1180.8073193786186,1768.3100585937498 1180.8073193786186,1798.3100585937498 1113.307197308306,1798.3100585937498 1113.307197308306,1813.3100585937498 1195.8073193786186,1813.3100585937498 1195.8073193786186,1753.3100585937498 "/>
    </g>
   </g>
   <g stroke="null" transform="matrix(0.10874906937999104,0,0,0.10874906937999104,-72.62741474886867,-127.81406513596107) " id="svg_34">
    <g stroke="null" id="svg_35">
     <polygon stroke="null" id="svg_36" points="1068.307197308306,1768.3100585937498 1068.307197308306,1753.3100585937498 1028.9323193786186,1753.3100585937498 1028.9323193786186,1813.3100585937498 1068.307197308306,1813.3100585937498 1068.307197308306,1798.3100585937498 1043.932197308306,1798.3100585937498 1043.932197308306,1768.3100585937498 "/>
    </g>
   </g>
   <g stroke="null" transform="matrix(0.10874906937999104,0,0,0.10874906937999104,-72.62741474886867,-127.81406513596107) " id="svg_37">
    <g stroke="null" id="svg_38">
     <rect stroke="null" y="1370.80996" id="svg_39" height="15" width="15" x="1083.11733"/>
    </g>
   </g>
   <g stroke="null" transform="matrix(0.10874906937999104,0,0,0.10874906937999104,-72.62741474886867,-127.81406513596107) " id="svg_40">
    <g stroke="null" id="svg_41">
     <path stroke="null" id="svg_42" d="m813.30733,1745.80996l0,135l195,0l0,-135l-195,0zm180,120l-165,0l0,-105l165,0l0,105z"/>
    </g>
   </g>
   <g stroke="null" transform="matrix(0.10874906937999104,0,0,0.10874906937999104,-72.62741474886867,-127.81406513596107) " id="svg_43">
    <g stroke="null" id="svg_44">
     <rect stroke="null" id="svg_45" height="15" width="15" y="1775.80996" x="843.30733"/>
    </g>
   </g>
   <g stroke="null" transform="matrix(0.10874906937999104,0,0,0.10874906937999104,-72.62741474886867,-127.81406513596107) " id="svg_46">
    <g stroke="null" id="svg_47">
     <rect stroke="null" id="svg_48" height="15" width="15" y="1805.80996" x="843.30733"/>
    </g>
   </g>
   <g stroke="null" transform="matrix(0.10874906937999104,0,0,0.10874906937999104,-72.62741474886867,-127.81406513596107) " id="svg_49">
    <g stroke="null" id="svg_50">
     <rect stroke="null" id="svg_51" height="15" width="15" y="1835.80996" x="843.30733"/>
    </g>
   </g>
   <g stroke="null" transform="matrix(0.10874906937999104,0,0,0.10874906937999104,-72.62741474886867,-127.81406513596107) " id="svg_52">
    <g stroke="null" id="svg_53">
     <rect stroke="null" id="svg_54" height="15" width="105" y="1775.80996" x="873.30733"/>
    </g>
   </g>
   <g stroke="null" transform="matrix(0.10874906937999104,0,0,0.10874906937999104,-72.62741474886867,-127.81406513596107) " id="svg_55">
    <g stroke="null" id="svg_56">
     <rect stroke="null" id="svg_57" height="15" width="75" y="1805.80996" x="873.30733"/>
    </g>
   </g>
   <g stroke="null" transform="matrix(0.10874906937999104,0,0,0.10874906937999104,-72.62741474886867,-127.81406513596107) " id="svg_58">
    <g stroke="null" id="svg_59">
     <rect stroke="null" id="svg_60" height="15" width="15" y="1835.80996" x="873.30733"/>
    </g>
   </g>
   <g stroke="null" transform="matrix(0.10874906937999104,0,0,0.10874906937999104,-72.62741474886867,-127.81406513596107) " id="svg_61">
    <g stroke="null" id="svg_62">
     <rect stroke="null" id="svg_63" height="15" width="22.5" y="1835.80996" x="903.30733"/>
    </g>
   </g>
   <g stroke="null" transform="matrix(0.10874906937999104,0,0,0.10874906937999104,-72.62741474886867,-127.81406513596107) " id="svg_64">
    <g stroke="null" id="svg_65">
     <rect stroke="null" id="svg_66" height="15" width="37.5" y="1835.80996" x="940.80733"/>
    </g>
   </g>
   <g stroke="null" transform="matrix(0.10874906937999104,0,0,0.10874906937999104,-72.62741474886867,-127.81406513596107) " id="svg_67">
    <g stroke="null" id="svg_68">
     <rect stroke="null" id="svg_69" height="15" width="15" y="1805.80996" x="963.30733"/>
    </g>
   </g>
   <g stroke="null" transform="matrix(0.10874906937999104,0,0,0.10874906937999104,-72.62741474886867,-127.81406513596107) " id="svg_70"/>
   <g stroke="null" transform="matrix(0.10874906937999104,0,0,0.10874906937999104,-72.62741474886867,-127.81406513596107) " id="svg_71"/>
   <g stroke="null" transform="matrix(0.10874906937999104,0,0,0.10874906937999104,-72.62741474886867,-127.81406513596107) " id="svg_72"/>
   <g stroke="null" transform="matrix(0.10874906937999104,0,0,0.10874906937999104,-72.62741474886867,-127.81406513596107) " id="svg_73"/>
   <g stroke="null" transform="matrix(0.10874906937999104,0,0,0.10874906937999104,-72.62741474886867,-127.81406513596107) " id="svg_74"/>
   <g stroke="null" transform="matrix(0.10874906937999104,0,0,0.10874906937999104,-72.62741474886867,-127.81406513596107) " id="svg_75"/>
   <g stroke="null" transform="matrix(0.10874906937999104,0,0,0.10874906937999104,-72.62741474886867,-127.81406513596107) " id="svg_76"/>
   <g stroke="null" transform="matrix(0.10874906937999104,0,0,0.10874906937999104,-72.62741474886867,-127.81406513596107) " id="svg_77"/>
   <g stroke="null" transform="matrix(0.10874906937999104,0,0,0.10874906937999104,-72.62741474886867,-127.81406513596107) " id="svg_78"/>
   <g stroke="null" transform="matrix(0.10874906937999104,0,0,0.10874906937999104,-72.62741474886867,-127.81406513596107) " id="svg_79"/>
   <g stroke="null" transform="matrix(0.10874906937999104,0,0,0.10874906937999104,-72.62741474886867,-127.81406513596107) " id="svg_80"/>
   <g stroke="null" transform="matrix(0.10874906937999104,0,0,0.10874906937999104,-72.62741474886867,-127.81406513596107) " id="svg_81"/>
   <g stroke="null" transform="matrix(0.10874906937999104,0,0,0.10874906937999104,-72.62741474886867,-127.81406513596107) " id="svg_82"/>
   <g stroke="null" transform="matrix(0.10874906937999104,0,0,0.10874906937999104,-72.62741474886867,-127.81406513596107) " id="svg_83"/>
   <g stroke="null" transform="matrix(0.10874906937999104,0,0,0.10874906937999104,-72.62741474886867,-127.81406513596107) " id="svg_84"/>
  </g>
 </g>
</svg>