<svg width="87.10000000000001" height="98.2" xmlns="http://www.w3.org/2000/svg">
 <title>icon-eda</title>

 <g>
  <title>background</title>
  <rect x="-1" y="-1" width="89.1" height="100.2" id="canvas_background" fill="none"/>
 </g>
 <g>
  <title>Layer 1</title>
  <path d="m86.9,28.1a7.7,7.7 0 0 0 -3.5,-6l-36.4,-21a7.7,7.7 0 0 0 -6.9,0l-36.4,21a7.7,7.7 0 0 0 -3.5,6l0,42a7.7,7.7 0 0 0 3.5,6l36.4,21a7.7,7.7 0 0 0 6.9,0l36.4,-21a7.7,7.7 0 0 0 3.5,-6l0,-42z" stroke-width="0.5px" stroke-miterlimit="10" stroke="#000" fill="none" id="svg_2"/>
  <g transform="matrix(7.175368388252593,0,0,7.175368388252593,0,0) " id="svg_275"/>
  <g transform="matrix(7.175368388252593,0,0,7.175368388252593,0,0) " id="svg_276"/>
  <g transform="matrix(7.175368388252593,0,0,7.175368388252593,0,0) " id="svg_277"/>
  <g transform="matrix(7.175368388252593,0,0,7.175368388252593,0,0) " id="svg_278"/>
  <g transform="matrix(7.175368388252593,0,0,7.175368388252593,0,0) " id="svg_279"/>
  <g transform="matrix(7.175368388252593,0,0,7.175368388252593,0,0) " id="svg_280"/>
  <g transform="matrix(7.175368388252593,0,0,7.175368388252593,0,0) " id="svg_281"/>
  <g transform="matrix(7.175368388252593,0,0,7.175368388252593,0,0) " id="svg_282"/>
  <g transform="matrix(7.175368388252593,0,0,7.175368388252593,0,0) " id="svg_283"/>
  <g transform="matrix(7.175368388252593,0,0,7.175368388252593,0,0) " id="svg_284"/>
  <g transform="matrix(7.175368388252593,0,0,7.175368388252593,0,0) " id="svg_285"/>
  <g transform="matrix(7.175368388252593,0,0,7.175368388252593,0,0) " id="svg_286"/>
  <g transform="matrix(7.175368388252593,0,0,7.175368388252593,0,0) " id="svg_287"/>
  <g transform="matrix(7.175368388252593,0,0,7.175368388252593,0,0) " id="svg_288"/>
  <g transform="matrix(7.175368388252593,0,0,7.175368388252593,0,0) " id="svg_289"/>
  <g id="svg_299">
   <g transform="matrix(0.0985386882444681,0,0,0.0985386882444681,0,0) " id="svg_295">
    <path id="svg_296" d="m261.95829,257.28136l0,482c0,8.284 6.716,15 15,15l330,0c8.284,0 15,-6.716 15,-15l0,-392c0,-3.896 -1.555,-7.768 -4.394,-10.607l-90,-90c-0.001,-0.001 -0.002,-0.002 -0.004,-0.003c-2.819,-2.82 -6.673,-4.39 -10.602,-4.39l-240,0c-8.284,0 -15,6.716 -15,15zm270,36.213l38.787,38.787l-38.787,0l0,-38.787zm-240,-21.213l210,0l0,75c0,8.284 6.716,15 15,15l75,0l0,362l-300,0l0,-452z"/>
    <path id="svg_297" d="m441.95829,362.28136c-66.168,0 -120,53.832 -120,120c0,66.407 54.108,120 120,120c66.168,0 120,-53.832 120,-120s-53.832,-120 -120,-120zm88.743,105l-30.642,0c-5.439,-21.053 -22.048,-37.663 -43.101,-43.101l0,-30.642c37.631,6.34 67.403,36.112 73.743,73.743zm-109.888,36.259c-0.019,-0.02 -0.035,-0.041 -0.055,-0.061c-0.02,-0.019 -0.041,-0.035 -0.06,-0.055c-5.398,-5.426 -8.74,-12.901 -8.74,-21.143c0,-16.542 13.458,-30 30,-30s30,13.458 30,30s-13.458,30 -30,30c-8.242,0 -15.717,-3.342 -21.145,-8.741zm6.145,-110.002l0,30.642c-25.849,6.677 -45,30.195 -45,58.101c0,11.111 3.047,21.52 8.333,30.454l-21.666,21.667c-10.49,-14.718 -16.667,-32.711 -16.667,-52.121c0,-44.516 32.489,-81.58 75,-88.743zm15,178.743c-19.41,0 -37.403,-6.177 -52.12,-16.667l21.666,-21.667c8.934,5.287 19.343,8.334 30.454,8.334c27.906,0 51.424,-19.151 58.101,-45.01l30.642,0c-7.163,42.521 -44.227,75.01 -88.743,75.01z"/>
    <path id="svg_298" d="m516.95829,632.28136l-150,0c-8.284,0 -15,6.716 -15,15s6.716,15 15,15l150,0c8.284,0 15,-6.716 15,-15s-6.716,-15 -15,-15z"/>
   </g>
  </g>
 </g>
</svg>