<svg width="87.10000000000001" height="98.2" xmlns="http://www.w3.org/2000/svg">
 <title>icon-eda</title>

 <g>
  <title>background</title>
  <rect x="-1" y="-1" width="89.1" height="100.2" id="canvas_background" fill="none"/>
 </g>
 <g>
  <title>Layer 1</title>
  <path d="m86.9,28.1a7.7,7.7 0 0 0 -3.5,-6l-36.4,-21a7.7,7.7 0 0 0 -6.9,0l-36.4,21a7.7,7.7 0 0 0 -3.5,6l0,42a7.7,7.7 0 0 0 3.5,6l36.4,21a7.7,7.7 0 0 0 6.9,0l36.4,-21a7.7,7.7 0 0 0 3.5,-6l0,-42z" stroke-width="0.5px" stroke-miterlimit="10" stroke="#000" fill="none" id="svg_2"/>
  <g stroke="null" id="svg_11">
   <g stroke="null" transform="matrix(0.10254119093103362,0,0,0.10254119093103362,-61.01239050431104,-70.93303233905317) " id="svg_7">
    <path stroke="null" id="svg_8" d="m993.70989,1049.58362c25.371,0 49.229,9.881 67.18,27.823c0.001,0.001 0.002,0.002 0.003,0.003c17.937,17.95 27.816,41.806 27.816,67.174c0,5.522 4.477,10 10,10l114.999,0c5.523,0 10,-4.478 10,-10c0,-61.441 -23.926,-119.198 -67.369,-162.633c-0.002,-0.002 -0.005,-0.004 -0.007,-0.007c-43.432,-43.437 -101.185,-67.36 -162.622,-67.36c-61.434,0 -119.191,23.925 -162.633,67.366c-43.442,43.443 -67.366,101.2 -67.366,162.634c0,61.441 23.926,119.198 67.369,162.633c0.002,0.002 0.005,0.004 0.007,0.007c43.433,43.437 101.186,67.36 162.623,67.36c5.523,0 10,-4.478 10,-10l0,-115c0,-5.522 -4.477,-10 -10,-10c-25.371,0 -49.229,-9.881 -67.18,-27.823c-0.001,-0.001 -0.002,-0.002 -0.003,-0.003c-17.937,-17.95 -27.816,-41.806 -27.816,-67.174c-0.001,-52.383 42.616,-95 94.999,-95zm114.574,85c-2.023,-23.637 -11.201,-45.797 -26.485,-63.947l67.307,-67.308c33.05,36.27 52.089,82.23 54.371,131.255l-95.193,0zm-40.627,-78.09c-18.15,-15.283 -40.311,-24.462 -63.947,-26.484l0,-95.194c49.024,2.282 94.984,21.32 131.254,54.37l-67.307,67.308zm-83.947,297.858c-49.024,-2.282 -94.984,-21.32 -131.254,-54.37l67.307,-67.308c18.15,15.283 40.311,24.462 63.947,26.484l0,95.194zm-78.089,-135.821l-67.307,67.308c-35.288,-38.726 -54.603,-88.502 -54.603,-141.255c0,-112.444 88.827,-204.531 199.999,-209.765l0,95.195c-58.749,5.082 -105,54.525 -105,114.569c0,27.357 9.489,53.259 26.911,73.948z"/>
    <path stroke="null" id="svg_9" d="m1274.37889,1256.61362c-1.33,-2.32 -3.48,-3.98 -6.06,-4.671c0,0 -112.999,-30.369 -113.879,-30.369c-4.49,0 -8.45,3.04 -9.63,7.38c-8.8,32.359 -34.369,57.93 -66.73,66.72c-5.31,1.45 -8.46,6.95 -7.02,12.26l30,111.25c0.7,2.58 2.36,4.74 4.68,6.07c1.52,0.87 3.24,1.33 4.96,1.33c0.88,0 1.77,-0.11 2.63,-0.351c23.4,-6.33 45.57,-16.31 65.9,-29.649c2.23,-1.47 3.76,-3.71 4.3,-6.33c0.54,-2.61 0.03,-5.28 -1.43,-7.521c-1.86,-2.819 -4.99,-4.51 -8.37,-4.51c-1.95,0 -3.84,0.57 -5.48,1.641c-15.71,10.31 -32.71,18.46 -50.54,24.22l-24.86,-92.15c7.8,-2.88 15.31,-6.62 22.32,-11.12c6.93,-4.449 13.41,-9.67 19.25,-15.51s11.06,-12.32 15.52,-19.26c4.5,-7.01 8.24,-14.521 11.12,-22.32l92.15,24.86c-5.82,18 -14.07,35.17 -24.54,51.02c-1.47,2.23 -1.98,4.9 -1.45,7.521c0.54,2.609 2.06,4.859 4.29,6.34c1.64,1.08 3.54,1.65 5.5,1.65c3.38,0 6.5,-1.681 8.36,-4.49c13.51,-20.471 23.6,-42.82 29.99,-66.42c0.698,-2.581 0.349,-5.271 -0.981,-7.591z"/>
    <circle stroke="null" id="svg_10" r="10" cy="1359.89362" cx="1208.59689"/>
   </g>
  </g>
 </g>
</svg>