<svg width="298" height="64" viewBox="0 0 298 64" fill="none" xmlns="http://www.w3.org/2000/svg">
<path d="M9.75 9.96094L10.0664 14.2148C12.7617 10.9102 16.4062 9.25781 21 9.25781C25.8984 9.25781 29.2617 11.1914 31.0898 15.0586C33.7617 11.1914 37.5703 9.25781 42.5156 9.25781C46.6406 9.25781 49.7109 10.4648 51.7266 12.8789C53.7422 15.2695 54.75 18.8789 54.75 23.707V48H44.5547V23.7422C44.5547 21.5859 44.1328 20.0156 43.2891 19.0312C42.4453 18.0234 40.957 17.5195 38.8242 17.5195C35.7773 17.5195 33.668 18.9727 32.4961 21.8789L32.5312 48H22.3711V23.7773C22.3711 21.5742 21.9375 19.9805 21.0703 18.9961C20.2031 18.0117 18.7266 17.5195 16.6406 17.5195C13.7578 17.5195 11.6719 18.7148 10.3828 21.1055V48H0.222656V9.96094H9.75Z" fill="white"/>
<path d="M80.0977 48.7031C74.5195 48.7031 69.9727 46.9922 66.457 43.5703C62.9648 40.1484 61.2188 35.5898 61.2188 29.8945V28.9102C61.2188 25.0898 61.957 21.6797 63.4336 18.6797C64.9102 15.6562 66.9961 13.3359 69.6914 11.7188C72.4102 10.0781 75.5039 9.25781 78.9727 9.25781C84.1758 9.25781 88.2656 10.8984 91.2422 14.1797C94.2422 17.4609 95.7422 22.1133 95.7422 28.1367V32.2852H71.5195C71.8477 34.7695 72.832 36.7617 74.4727 38.2617C76.1367 39.7617 78.2344 40.5117 80.7656 40.5117C84.6797 40.5117 87.7383 39.0938 89.9414 36.2578L94.9336 41.8477C93.4102 44.0039 91.3477 45.6914 88.7461 46.9102C86.1445 48.1055 83.2617 48.7031 80.0977 48.7031ZM78.9375 17.4844C76.9219 17.4844 75.2812 18.1641 74.0156 19.5234C72.7734 20.8828 71.9766 22.8281 71.625 25.3594H85.7578V24.5508C85.7109 22.3008 85.1016 20.5664 83.9297 19.3477C82.7578 18.1055 81.0938 17.4844 78.9375 17.4844Z" fill="white"/>
<path d="M100.066 28.6992C100.066 22.8633 101.449 18.1641 104.215 14.6016C107.004 11.0391 110.754 9.25781 115.465 9.25781C119.637 9.25781 122.883 10.6875 125.203 13.5469L125.625 9.96094H134.836V46.7344C134.836 50.0625 134.074 52.957 132.551 55.418C131.051 57.8789 128.93 59.7539 126.188 61.043C123.445 62.332 120.234 62.9766 116.555 62.9766C113.766 62.9766 111.047 62.4141 108.398 61.2891C105.75 60.1875 103.746 58.7578 102.387 57L106.887 50.8125C109.418 53.6484 112.488 55.0664 116.098 55.0664C118.793 55.0664 120.891 54.3398 122.391 52.8867C123.891 51.457 124.641 49.418 124.641 46.7695V44.7305C122.297 47.3789 119.215 48.7031 115.395 48.7031C110.824 48.7031 107.121 46.9219 104.285 43.3594C101.473 39.7734 100.066 35.0273 100.066 29.1211V28.6992ZM110.227 29.4375C110.227 32.8828 110.918 35.5898 112.301 37.5586C113.684 39.5039 115.582 40.4766 117.996 40.4766C121.09 40.4766 123.305 39.3164 124.641 36.9961V21C123.281 18.6797 121.09 17.5195 118.066 17.5195C115.629 17.5195 113.707 18.5156 112.301 20.5078C110.918 22.5 110.227 25.4766 110.227 29.4375Z" fill="white"/>
<path d="M161.836 13.5469C160.945 13.3828 159.996 13.3008 158.988 13.3008C156.363 13.3008 154.137 14.0391 152.309 15.5156C150.504 16.9688 149.215 19.0898 148.441 21.8789V48H144.258V9.96094H148.371L148.441 16.0078C150.668 11.5078 154.242 9.25781 159.164 9.25781C160.336 9.25781 161.262 9.41016 161.941 9.71484L161.836 13.5469Z" fill="white"/>
<path d="M191.121 48C190.699 46.8047 190.43 45.0352 190.312 42.6914C188.836 44.6133 186.949 46.1016 184.652 47.1562C182.379 48.1875 179.965 48.7031 177.41 48.7031C173.754 48.7031 170.789 47.6836 168.516 45.6445C166.266 43.6055 165.141 41.0273 165.141 37.9102C165.141 34.207 166.676 31.2773 169.746 29.1211C172.84 26.9648 177.141 25.8867 182.648 25.8867H190.277V21.5625C190.277 18.8438 189.434 16.7109 187.746 15.1641C186.082 13.5938 183.645 12.8086 180.434 12.8086C177.504 12.8086 175.078 13.5586 173.156 15.0586C171.234 16.5586 170.273 18.3633 170.273 20.4727L166.055 20.4375C166.055 17.4141 167.461 14.8008 170.273 12.5977C173.086 10.3711 176.543 9.25781 180.645 9.25781C184.887 9.25781 188.227 10.3242 190.664 12.457C193.125 14.5664 194.391 17.5195 194.461 21.3164V39.3164C194.461 42.9961 194.848 45.75 195.621 47.5781V48H191.121ZM177.902 44.9766C180.715 44.9766 183.223 44.2969 185.426 42.9375C187.652 41.5781 189.27 39.7617 190.277 37.4883V29.1211H182.754C178.559 29.168 175.277 29.9414 172.91 31.4414C170.543 32.918 169.359 34.957 169.359 37.5586C169.359 39.6914 170.145 41.4609 171.715 42.8672C173.309 44.2734 175.371 44.9766 177.902 44.9766Z" fill="white"/>
<path d="M212.25 0.222656V9.96094H220.125V13.4062H212.25V38.7539C212.25 40.8633 212.625 42.4336 213.375 43.4648C214.148 44.4961 215.426 45.0117 217.207 45.0117C217.91 45.0117 219.047 44.8945 220.617 44.6602L220.793 48.1055C219.691 48.5039 218.191 48.7031 216.293 48.7031C213.41 48.7031 211.312 47.8711 210 46.207C208.688 44.5195 208.031 42.0469 208.031 38.7891V13.4062H201.035V9.96094H208.031V0.222656H212.25Z" fill="white"/>
<path d="M243.574 48.7031C240.34 48.7031 237.41 47.9062 234.785 46.3125C232.184 44.7188 230.156 42.5039 228.703 39.668C227.25 36.8086 226.523 33.6094 226.523 30.0703V28.5586C226.523 24.9023 227.227 21.6094 228.633 18.6797C230.062 15.75 232.043 13.4531 234.574 11.7891C237.105 10.1016 239.848 9.25781 242.801 9.25781C247.418 9.25781 251.074 10.8398 253.77 14.0039C256.488 17.1445 257.848 21.4453 257.848 26.9062V29.2617H230.707V30.0703C230.707 34.3828 231.938 37.9805 234.398 40.8633C236.883 43.7227 240 45.1523 243.75 45.1523C246 45.1523 247.98 44.7422 249.691 43.9219C251.426 43.1016 252.996 41.7891 254.402 39.9844L257.039 41.9883C253.945 46.4648 249.457 48.7031 243.574 48.7031ZM242.801 12.8438C239.637 12.8438 236.965 14.0039 234.785 16.3242C232.629 18.6445 231.316 21.7617 230.848 25.6758H253.664V25.2188C253.547 21.5625 252.504 18.5859 250.535 16.2891C248.566 13.9922 245.988 12.8438 242.801 12.8438Z" fill="white"/>
<path d="M280.102 45.1523C283.031 45.1523 285.48 44.332 287.449 42.6914C289.441 41.0273 290.52 38.8828 290.684 36.2578H294.727C294.609 38.5781 293.883 40.6992 292.547 42.6211C291.211 44.5195 289.43 46.0078 287.203 47.0859C285 48.1641 282.633 48.7031 280.102 48.7031C275.109 48.7031 271.148 46.9688 268.219 43.5C265.312 40.0312 263.859 35.3672 263.859 29.5078V28.2422C263.859 24.4922 264.516 21.1758 265.828 18.293C267.141 15.4102 269.016 13.1836 271.453 11.6133C273.914 10.043 276.785 9.25781 280.066 9.25781C284.238 9.25781 287.672 10.5 290.367 12.9844C293.086 15.4688 294.539 18.7383 294.727 22.793H290.684C290.496 19.8164 289.418 17.4141 287.449 15.5859C285.504 13.7578 283.043 12.8438 280.066 12.8438C276.27 12.8438 273.316 14.2148 271.207 16.957C269.121 19.6992 268.078 23.543 268.078 28.4883V29.7188C268.078 34.5703 269.121 38.3555 271.207 41.0742C273.316 43.793 276.281 45.1523 280.102 45.1523Z" fill="white"/>
<path d="M150.196 56.6016L152.042 61.5059L153.883 56.6016H155.32V63H154.212V60.8906L154.322 58.0693L152.433 63H151.637L149.752 58.0737L149.862 60.8906V63H148.754V56.6016H150.196Z" fill="white"/>
<path d="M160.378 60.1436H157.75V62.1123H160.822V63H156.638V56.6016H160.791V57.498H157.75V59.2646H160.378V60.1436Z" fill="white"/>
<path d="M166.803 63H165.691L162.839 58.4604V63H161.727V56.6016H162.839L165.7 61.1587V56.6016H166.803V63Z" fill="white"/>
<path d="M172.608 57.498H170.613V63H169.51V57.498H167.532V56.6016H172.608V57.498Z" fill="white"/>
<path d="M178.435 59.9678C178.435 60.5947 178.327 61.1455 178.11 61.6201C177.893 62.0918 177.583 62.4551 177.178 62.71C176.777 62.9619 176.314 63.0879 175.79 63.0879C175.271 63.0879 174.808 62.9619 174.401 62.71C173.997 62.4551 173.683 62.0933 173.46 61.6245C173.241 61.1558 173.129 60.6152 173.126 60.0029V59.6426C173.126 59.0186 173.236 58.4678 173.456 57.9902C173.679 57.5127 173.991 57.1479 174.392 56.896C174.796 56.6411 175.259 56.5137 175.781 56.5137C176.302 56.5137 176.764 56.6396 177.165 56.8916C177.569 57.1406 177.881 57.501 178.101 57.9727C178.321 58.4414 178.432 58.9878 178.435 59.6118V59.9678ZM177.323 59.6338C177.323 58.9248 177.188 58.3813 176.919 58.0034C176.652 57.6255 176.273 57.4365 175.781 57.4365C175.3 57.4365 174.924 57.6255 174.651 58.0034C174.382 58.3784 174.244 58.9102 174.238 59.5986V59.9678C174.238 60.6709 174.375 61.2144 174.647 61.5981C174.922 61.9819 175.303 62.1738 175.79 62.1738C176.282 62.1738 176.66 61.9863 176.923 61.6113C177.19 61.2363 177.323 60.6885 177.323 59.9678V59.6338Z" fill="white"/>
<path d="M181.894 60.5347H180.654V63H179.542V56.6016H181.792C182.531 56.6016 183.101 56.7671 183.502 57.0981C183.903 57.4292 184.104 57.9082 184.104 58.5352C184.104 58.9629 184 59.3218 183.792 59.6118C183.587 59.8989 183.3 60.1201 182.931 60.2754L184.368 62.9429V63H183.177L181.894 60.5347ZM180.654 59.6426H181.797C182.172 59.6426 182.465 59.5488 182.676 59.3613C182.887 59.1709 182.992 58.9116 182.992 58.5835C182.992 58.2407 182.894 57.9756 182.698 57.7881C182.504 57.6006 182.214 57.5039 181.828 57.498H180.654V59.6426Z" fill="white"/>
<path d="M192.304 62.1694C192.073 62.4712 191.752 62.6997 191.342 62.855C190.932 63.0103 190.466 63.0879 189.944 63.0879C189.408 63.0879 188.934 62.9663 188.521 62.7231C188.107 62.48 187.788 62.1328 187.562 61.6816C187.34 61.2275 187.224 60.6987 187.215 60.0952V59.5942C187.215 58.6274 187.447 57.873 187.91 57.3311C188.373 56.7861 189.019 56.5137 189.848 56.5137C190.56 56.5137 191.125 56.6895 191.544 57.041C191.963 57.3926 192.215 57.8994 192.3 58.5615H191.21C191.087 57.791 190.64 57.4058 189.87 57.4058C189.372 57.4058 188.992 57.5859 188.731 57.9463C188.474 58.3037 188.34 58.8296 188.332 59.5239V60.0161C188.332 60.7075 188.477 61.2451 188.767 61.6289C189.06 62.0098 189.465 62.2002 189.984 62.2002C190.552 62.2002 190.957 62.0713 191.197 61.8135V60.561H189.878V59.7173H192.304V62.1694Z" fill="white"/>
<path d="M195.877 60.5347H194.638V63H193.526V56.6016H195.776C196.514 56.6016 197.084 56.7671 197.485 57.0981C197.887 57.4292 198.087 57.9082 198.087 58.5352C198.087 58.9629 197.983 59.3218 197.775 59.6118C197.57 59.8989 197.283 60.1201 196.914 60.2754L198.351 62.9429V63H197.16L195.877 60.5347ZM194.638 59.6426H195.78C196.155 59.6426 196.448 59.5488 196.659 59.3613C196.87 59.1709 196.976 58.9116 196.976 58.5835C196.976 58.2407 196.877 57.9756 196.681 57.7881C196.488 57.6006 196.198 57.5039 195.811 57.498H194.638V59.6426Z" fill="white"/>
<path d="M202.724 61.5103H200.245L199.727 63H198.571L200.988 56.6016H201.985L204.407 63H203.247L202.724 61.5103ZM200.557 60.6138H202.412L201.484 57.9595L200.557 60.6138Z" fill="white"/>
<path d="M206.248 60.6226V63H205.136V56.6016H207.584C208.299 56.6016 208.866 56.7876 209.285 57.1597C209.707 57.5317 209.917 58.0239 209.917 58.6362C209.917 59.2632 209.711 59.751 209.298 60.0996C208.888 60.4482 208.312 60.6226 207.571 60.6226H206.248ZM206.248 59.7305H207.584C207.979 59.7305 208.281 59.6382 208.489 59.4536C208.697 59.2661 208.801 58.9966 208.801 58.645C208.801 58.2993 208.696 58.0239 208.485 57.8188C208.274 57.6108 207.984 57.5039 207.615 57.498H206.248V59.7305Z" fill="white"/>
<path d="M215.973 63H214.866V60.1567H212.005V63H210.893V56.6016H212.005V59.2646H214.866V56.6016H215.973V63Z" fill="white"/>
<path d="M218.465 63H217.357V56.6016H218.465V63Z" fill="white"/>
<path d="M224.714 60.917C224.649 61.5996 224.397 62.1328 223.958 62.5166C223.519 62.8975 222.934 63.0879 222.205 63.0879C221.695 63.0879 221.245 62.9678 220.855 62.7275C220.469 62.4844 220.17 62.1401 219.959 61.6948C219.748 61.2495 219.638 60.7324 219.629 60.1436V59.5459C219.629 58.9424 219.736 58.4106 219.95 57.9507C220.164 57.4907 220.47 57.1362 220.869 56.8872C221.27 56.6382 221.733 56.5137 222.257 56.5137C222.963 56.5137 223.532 56.7056 223.962 57.0894C224.393 57.4731 224.644 58.0151 224.714 58.7153H223.606C223.554 58.2554 223.419 57.9243 223.202 57.7222C222.988 57.5171 222.673 57.4146 222.257 57.4146C221.774 57.4146 221.402 57.5918 221.141 57.9463C220.883 58.2979 220.751 58.8149 220.746 59.4976V60.0645C220.746 60.7559 220.869 61.2832 221.115 61.6465C221.364 62.0098 221.727 62.1914 222.205 62.1914C222.641 62.1914 222.969 62.0933 223.189 61.897C223.409 61.7007 223.548 61.374 223.606 60.917H224.714Z" fill="white"/>
<path d="M229.056 61.3521C229.056 61.0708 228.956 60.854 228.757 60.7017C228.561 60.5493 228.205 60.3955 227.689 60.2402C227.173 60.085 226.763 59.9121 226.458 59.7217C225.875 59.3555 225.584 58.8779 225.584 58.2891C225.584 57.7734 225.793 57.3486 226.212 57.0146C226.634 56.6807 227.181 56.5137 227.852 56.5137C228.297 56.5137 228.694 56.5957 229.042 56.7598C229.391 56.9238 229.665 57.1582 229.864 57.4629C230.063 57.7646 230.163 58.1001 230.163 58.4692H229.056C229.056 58.1353 228.95 57.8745 228.739 57.687C228.531 57.4966 228.232 57.4014 227.843 57.4014C227.479 57.4014 227.197 57.479 226.995 57.6343C226.795 57.7896 226.696 58.0063 226.696 58.2847C226.696 58.519 226.804 58.7153 227.021 58.8735C227.238 59.0288 227.595 59.1812 228.093 59.3306C228.591 59.4771 228.991 59.6455 229.293 59.8359C229.595 60.0234 229.816 60.2402 229.957 60.4863C230.097 60.7295 230.167 61.0151 230.167 61.3433C230.167 61.8765 229.962 62.3013 229.552 62.6177C229.145 62.9312 228.591 63.0879 227.891 63.0879C227.428 63.0879 227.002 63.0029 226.612 62.833C226.226 62.6602 225.924 62.4229 225.707 62.1211C225.493 61.8193 225.386 61.4678 225.386 61.0664H226.498C226.498 61.4297 226.618 61.7109 226.858 61.9102C227.099 62.1094 227.443 62.209 227.891 62.209C228.278 62.209 228.568 62.1313 228.761 61.9761C228.958 61.8179 229.056 61.6099 229.056 61.3521Z" fill="white"/>
<path d="M237.744 57.498H235.749V63H234.646V57.498H232.668V56.6016H237.744V57.498Z" fill="white"/>
<path d="M242.327 60.1436H239.699V62.1123H242.771V63H238.587V56.6016H242.74V57.498H239.699V59.2646H242.327V60.1436Z" fill="white"/>
<path d="M248.559 60.917C248.494 61.5996 248.242 62.1328 247.803 62.5166C247.363 62.8975 246.779 63.0879 246.049 63.0879C245.54 63.0879 245.09 62.9678 244.7 62.7275C244.313 62.4844 244.015 62.1401 243.804 61.6948C243.593 61.2495 243.483 60.7324 243.474 60.1436V59.5459C243.474 58.9424 243.581 58.4106 243.795 57.9507C244.009 57.4907 244.315 57.1362 244.713 56.8872C245.115 56.6382 245.578 56.5137 246.102 56.5137C246.808 56.5137 247.376 56.7056 247.807 57.0894C248.238 57.4731 248.488 58.0151 248.559 58.7153H247.451C247.398 58.2554 247.264 57.9243 247.047 57.7222C246.833 57.5171 246.518 57.4146 246.102 57.4146C245.619 57.4146 245.247 57.5918 244.986 57.9463C244.728 58.2979 244.596 58.8149 244.59 59.4976V60.0645C244.59 60.7559 244.713 61.2832 244.959 61.6465C245.208 62.0098 245.572 62.1914 246.049 62.1914C246.486 62.1914 246.814 62.0933 247.034 61.897C247.253 61.7007 247.393 61.374 247.451 60.917H248.559Z" fill="white"/>
<path d="M254.636 63H253.529V60.1567H250.668V63H249.556V56.6016H250.668V59.2646H253.529V56.6016H254.636V63Z" fill="white"/>
<path d="M261.03 63H259.918L257.066 58.4604V63H255.955V56.6016H257.066L259.927 61.1587V56.6016H261.03V63Z" fill="white"/>
<path d="M267.451 59.9678C267.451 60.5947 267.342 61.1455 267.125 61.6201C266.909 62.0918 266.598 62.4551 266.194 62.71C265.792 62.9619 265.33 63.0879 264.805 63.0879C264.287 63.0879 263.824 62.9619 263.417 62.71C263.012 62.4551 262.699 62.0933 262.476 61.6245C262.256 61.1558 262.145 60.6152 262.142 60.0029V59.6426C262.142 59.0186 262.252 58.4678 262.472 57.9902C262.694 57.5127 263.006 57.1479 263.408 56.896C263.812 56.6411 264.275 56.5137 264.796 56.5137C265.318 56.5137 265.779 56.6396 266.181 56.8916C266.585 57.1406 266.897 57.501 267.117 57.9727C267.336 58.4414 267.448 58.9878 267.451 59.6118V59.9678ZM266.339 59.6338C266.339 58.9248 266.204 58.3813 265.935 58.0034C265.668 57.6255 265.289 57.4365 264.796 57.4365C264.316 57.4365 263.939 57.6255 263.667 58.0034C263.397 58.3784 263.26 58.9102 263.254 59.5986V59.9678C263.254 60.6709 263.39 61.2144 263.663 61.5981C263.938 61.9819 264.319 62.1738 264.805 62.1738C265.297 62.1738 265.675 61.9863 265.939 61.6113C266.206 61.2363 266.339 60.6885 266.339 59.9678V59.6338Z" fill="white"/>
<path d="M269.67 62.1123H272.575V63H268.558V56.6016H269.67V62.1123Z" fill="white"/>
<path d="M278.252 59.9678C278.252 60.5947 278.144 61.1455 277.927 61.6201C277.71 62.0918 277.4 62.4551 276.996 62.71C276.594 62.9619 276.131 63.0879 275.607 63.0879C275.088 63.0879 274.625 62.9619 274.218 62.71C273.814 62.4551 273.5 62.0933 273.278 61.6245C273.058 61.1558 272.947 60.6152 272.944 60.0029V59.6426C272.944 59.0186 273.054 58.4678 273.273 57.9902C273.496 57.5127 273.808 57.1479 274.209 56.896C274.614 56.6411 275.077 56.5137 275.598 56.5137C276.12 56.5137 276.581 56.6396 276.982 56.8916C277.387 57.1406 277.699 57.501 277.918 57.9727C278.138 58.4414 278.25 58.9878 278.252 59.6118V59.9678ZM277.141 59.6338C277.141 58.9248 277.006 58.3813 276.736 58.0034C276.47 57.6255 276.09 57.4365 275.598 57.4365C275.118 57.4365 274.741 57.6255 274.469 58.0034C274.199 58.3784 274.062 58.9102 274.056 59.5986V59.9678C274.056 60.6709 274.192 61.2144 274.464 61.5981C274.74 61.9819 275.121 62.1738 275.607 62.1738C276.099 62.1738 276.477 61.9863 276.741 61.6113C277.007 61.2363 277.141 60.6885 277.141 59.9678V59.6338Z" fill="white"/>
<path d="M284.264 62.1694C284.033 62.4712 283.712 62.6997 283.302 62.855C282.892 63.0103 282.426 63.0879 281.904 63.0879C281.368 63.0879 280.894 62.9663 280.48 62.7231C280.067 62.48 279.748 62.1328 279.522 61.6816C279.3 61.2275 279.184 60.6987 279.175 60.0952V59.5942C279.175 58.6274 279.407 57.873 279.87 57.3311C280.333 56.7861 280.979 56.5137 281.808 56.5137C282.52 56.5137 283.085 56.6895 283.504 57.041C283.923 57.3926 284.175 57.8994 284.26 58.5615H283.17C283.047 57.791 282.6 57.4058 281.83 57.4058C281.332 57.4058 280.952 57.5859 280.691 57.9463C280.434 58.3037 280.3 58.8296 280.292 59.5239V60.0161C280.292 60.7075 280.437 61.2451 280.727 61.6289C281.02 62.0098 281.425 62.2002 281.944 62.2002C282.512 62.2002 282.917 62.0713 283.157 61.8135V60.561H281.838V59.7173H284.264V62.1694Z" fill="white"/>
<path d="M286.659 63H285.552V56.6016H286.659V63Z" fill="white"/>
<path d="M291.766 60.1436H289.138V62.1123H292.209V63H288.026V56.6016H292.179V57.498H289.138V59.2646H291.766V60.1436Z" fill="white"/>
<path d="M296.459 61.3521C296.459 61.0708 296.359 60.854 296.16 60.7017C295.964 60.5493 295.608 60.3955 295.092 60.2402C294.577 60.085 294.167 59.9121 293.862 59.7217C293.279 59.3555 292.987 58.8779 292.987 58.2891C292.987 57.7734 293.197 57.3486 293.616 57.0146C294.038 56.6807 294.584 56.5137 295.255 56.5137C295.7 56.5137 296.097 56.5957 296.446 56.7598C296.794 56.9238 297.068 57.1582 297.268 57.4629C297.467 57.7646 297.566 58.1001 297.566 58.4692H296.459C296.459 58.1353 296.354 57.8745 296.143 57.687C295.935 57.4966 295.636 57.4014 295.246 57.4014C294.883 57.4014 294.6 57.479 294.398 57.6343C294.199 57.7896 294.099 58.0063 294.099 58.2847C294.099 58.519 294.208 58.7153 294.424 58.8735C294.641 59.0288 294.999 59.1812 295.497 59.3306C295.995 59.4771 296.395 59.6455 296.696 59.8359C296.998 60.0234 297.219 60.2402 297.36 60.4863C297.5 60.7295 297.571 61.0151 297.571 61.3433C297.571 61.8765 297.366 62.3013 296.956 62.6177C296.548 62.9312 295.995 63.0879 295.294 63.0879C294.832 63.0879 294.405 63.0029 294.016 62.833C293.629 62.6602 293.327 62.4229 293.11 62.1211C292.896 61.8193 292.79 61.4678 292.79 61.0664H293.901C293.901 61.4297 294.021 61.7109 294.262 61.9102C294.502 62.1094 294.846 62.209 295.294 62.209C295.681 62.209 295.971 62.1313 296.165 61.9761C296.361 61.8179 296.459 61.6099 296.459 61.3521Z" fill="white"/>
</svg>
