<svg width="87.10000000000001" height="98.2" xmlns="http://www.w3.org/2000/svg">
 <title>icon-eda</title>

 <g>
  <title>background</title>
  <rect x="-1" y="-1" width="89.1" height="100.2" id="canvas_background" fill="none"/>
 </g>
 <g>
  <title>Layer 1</title>
  <path d="m86.9,28.43333a7.7,7.7 0 0 0 -3.5,-6l-36.4,-21a7.7,7.7 0 0 0 -6.9,0l-36.4,21a7.7,7.7 0 0 0 -3.5,6l0,42a7.7,7.7 0 0 0 3.5,6l36.4,21a7.7,7.7 0 0 0 6.9,0l36.4,-21a7.7,7.7 0 0 0 3.5,-6l0,-42z" stroke-width="0.5px" stroke-miterlimit="10" stroke="#000" fill="none" id="svg_2"/>
  <g stroke="null" id="svg_109">
   <path stroke="null" id="svg_87" d="m67.30459,66.3016l-0.81912,0l0,-25.39284c0,-2.25832 -1.8373,-4.09562 -4.09562,-4.09562l-4.91474,0l0,-1.63825l-1.63825,0l0,1.63825l-1.63825,0l0,-2.45737l-1.63825,0l0,2.45737l-4.91474,0l0,-1.63825l-1.63825,0l0,1.63825l-4.91474,0l0,-3.2765l-1.63825,0l0,3.2765l-4.91474,0l0,-1.63825l-1.63825,0l0,1.63825l-1.63825,0l0,-2.45737l-1.63825,0l0,2.45737l-4.09562,0c-2.25832,0 -4.09562,1.8373 -4.09562,4.09562l0,25.39284l-1.63825,0c-0.45298,0 -0.81912,0.36697 -0.81912,0.81912l0,2.45737c0,2.25832 1.8373,4.09562 4.09562,4.09562l40.9562,0c2.25832,0 4.09562,-1.8373 4.09562,-4.09562l0,-2.45737c0,-0.45216 -0.36615,-0.81912 -0.81912,-0.81912zm-44.23269,-25.39284c0,-1.35483 1.10254,-2.45737 2.45737,-2.45737l36.86058,0c1.35483,0 2.45737,1.10254 2.45737,2.45737l0,25.39284l-15.56336,0c-0.31045,0 -0.59386,0.17529 -0.73312,0.45298l-0.59223,1.18527l-8.81705,0l-0.59305,-1.18527c-0.13843,-0.27768 -0.42185,-0.45298 -0.7323,-0.45298l-14.74423,0l0,-25.39284zm43.41357,28.66934c0,1.35483 -1.10254,2.45737 -2.45737,2.45737l-40.9562,0c-1.35483,0 -2.45737,-1.10254 -2.45737,-2.45737l0,-1.63825l16.69538,0l0.59305,1.18527c0.13843,0.27768 0.42185,0.45298 0.7323,0.45298l9.82949,0c0.31045,0 0.59386,-0.17529 0.73312,-0.45298l0.59223,-1.18527l16.69538,0l0,1.63825z"/>
   <path stroke="null" id="svg_88" d="m63.20897,63.84423l0,-22.93547c0,-0.45216 -0.36615,-0.81912 -0.81912,-0.81912l-36.86058,0c-0.45298,0 -0.81912,0.36697 -0.81912,0.81912l0,22.93547c0,0.45216 0.36615,0.81912 0.81912,0.81912l36.86058,0c0.45298,0 0.81912,-0.36697 0.81912,-0.81912zm-1.63825,-8.53036l-3.03649,3.03649c-0.154,0.15318 -0.24,0.36205 -0.24,0.57912l0,4.09562l-2.45737,0l0,-4.57563l2.21737,-2.21737c0.154,-0.15318 0.24,-0.36205 0.24,-0.57912l0,-7.52283c0.951,-0.33912 1.63825,-1.24015 1.63825,-2.30665s-0.68724,-1.96754 -1.63825,-2.30665l0,-1.78897l3.2765,0l0,13.58599zm-26.21197,1.97737c0,-0.45134 0.36697,-0.81912 0.81912,-0.81912s0.81912,0.36779 0.81912,0.81912s-0.36697,0.81912 -0.81912,0.81912s-0.81912,-0.36779 -0.81912,-0.81912zm1.63825,2.30665c0.951,-0.33912 1.63825,-1.24015 1.63825,-2.30665c0,-1.35483 -1.10254,-2.45737 -2.45737,-2.45737s-2.45737,1.10254 -2.45737,2.45737c0,1.0665 0.68724,1.96754 1.63825,2.30665l0,3.42721l-3.2765,0l0,-7.85212l3.85562,-3.85562c0.154,-0.15318 0.24,-0.36205 0.24,-0.57912l0,-9.01036l1.63825,0l0,10.64861c0,0.21707 0.08601,0.42594 0.24,0.57912l4.67474,4.67474l0,5.39475l-5.73387,0l0,-3.42721zm6.55299,-8.85964c-0.45216,0 -0.81912,-0.36779 -0.81912,-0.81912s0.36697,-0.81912 0.81912,-0.81912s0.81912,0.36779 0.81912,0.81912s-0.36697,0.81912 -0.81912,0.81912zm-0.81912,-3.12578c-0.951,0.33912 -1.63825,1.24015 -1.63825,2.30665s0.68724,1.96754 1.63825,2.30665l0,3.0881l-3.2765,-3.2765l0,-10.30949l3.2765,0l0,5.88459zm1.63825,4.61331c0.951,-0.33912 1.63825,-1.24015 1.63825,-2.30665s-0.68724,-1.96754 -1.63825,-2.30665l0,-5.88459l3.2765,0l0,1.63825c0,0.21707 0.08601,0.42594 0.24,0.57912l2.21737,2.21737l0,3.0881c-0.951,0.33912 -1.63825,1.24015 -1.63825,2.30665s0.68724,1.96754 1.63825,2.30665l0,1.44985l-3.85562,3.85562c-0.154,0.15318 -0.24,0.36205 -0.24,0.57912l0,3.2765l-1.63825,0l0,-10.79933zm6.55299,0.15072c-0.45216,0 -0.81912,-0.36779 -0.81912,-0.81912s0.36697,-0.81912 0.81912,-0.81912s0.81912,0.36779 0.81912,0.81912s-0.36697,0.81912 -0.81912,0.81912zm0,-7.71123l-1.63825,-1.63825l0,-1.29913l3.2765,0l0,1.29913l-1.63825,1.63825zm-3.2765,15.42247l2.45737,-2.45737l0,5.39475l-2.45737,0l0,-2.93738zm4.09562,-6.2237c0.951,-0.33912 1.63825,-1.24015 1.63825,-2.30665s-0.68724,-1.96754 -1.63825,-2.30665l0,-3.0881l2.21737,-2.21737c0.154,-0.15318 0.24,-0.36205 0.24,-0.57912l0,-1.63825l2.45737,0l0,1.78897c-0.951,0.33912 -1.63825,1.24015 -1.63825,2.30665s0.68724,1.96754 1.63825,2.30665l0,7.18372l-2.21737,2.21737c-0.154,0.15318 -0.24,0.36205 -0.24,0.57912l0,4.91474l-2.45737,0l0,-9.16108zm5.73387,-7.2214c-0.45216,0 -0.81912,-0.36779 -0.81912,-0.81912s0.36697,-0.81912 0.81912,-0.81912s0.81912,0.36779 0.81912,0.81912s-0.36697,0.81912 -0.81912,0.81912zm-27.03109,0c-0.45216,0 -0.81912,-0.36779 -0.81912,-0.81912s0.36697,-0.81912 0.81912,-0.81912s0.81912,0.36779 0.81912,0.81912s-0.36697,0.81912 -0.81912,0.81912zm-0.81912,-4.91474l0,1.78897c-0.951,0.33912 -1.63825,1.24015 -1.63825,2.30665s0.68724,1.96754 1.63825,2.30665l0,1.44985l-3.2765,3.2765l0,-11.12862l3.2765,0zm-3.2765,13.4451l4.67474,-4.67474c0.154,-0.15318 0.24,-0.36205 0.24,-0.57912l0,-1.78897c0.951,-0.33912 1.63825,-1.24015 1.63825,-2.30665s-0.68724,-1.96754 -1.63825,-2.30665l0,-1.78897l3.2765,0l0,8.67125l-3.85562,3.85562c-0.154,0.15318 -0.24,0.36205 -0.24,0.57912l0,8.19124l-4.09562,0l0,-7.85212zm33.58408,7.85212l0,-3.7565l1.63825,-1.63825l0,5.39475l-1.63825,0z"/>
   <path stroke="null" id="svg_89" d="m42.73088,33.53664l1.63825,0l0,1.63825l-1.63825,0l0,-1.63825z"/>
   <path stroke="null" id="svg_90" d="m42.73088,27.80278l1.63825,0l0,4.09562l-1.63825,0l0,-4.09562z"/>
   <path stroke="null" id="svg_91" d="m42.73088,24.52628l1.63825,0l0,1.63825l-1.63825,0l0,-1.63825z"/>
   <path stroke="null" id="svg_92" d="m46.00737,31.8984l1.63825,0l0,1.63825l-1.63825,0l0,-1.63825z"/>
   <path stroke="null" id="svg_93" d="m46.00737,24.52628l1.63825,0l0,5.73387l-1.63825,0l0,-5.73387z"/>
   <path stroke="null" id="svg_94" d="m55.83686,31.8984l1.63825,0l0,1.63825l-1.63825,0l0,-1.63825z"/>
   <path stroke="null" id="svg_95" d="m55.83686,24.52628l1.63825,0l0,5.73387l-1.63825,0l0,-5.73387z"/>
   <path stroke="null" id="svg_96" d="m32.90139,31.8984l1.63825,0l0,1.63825l-1.63825,0l0,-1.63825z"/>
   <path stroke="null" id="svg_97" d="m32.90139,24.52628l1.63825,0l0,2.45737l-1.63825,0l0,-2.45737z"/>
   <path stroke="null" id="svg_98" d="m49.28387,31.07927l1.63825,0l0,4.09562l-1.63825,0l0,-4.09562z"/>
   <path stroke="null" id="svg_99" d="m49.28387,27.80278l1.63825,0l0,1.63825l-1.63825,0l0,-1.63825z"/>
   <path stroke="null" id="svg_100" d="m49.28387,24.52628l1.63825,0l0,1.63825l-1.63825,0l0,-1.63825z"/>
   <path stroke="null" id="svg_101" d="m36.17788,24.52628l1.63825,0l0,2.45737l-1.63825,0l0,-2.45737z"/>
   <path stroke="null" id="svg_102" d="m36.17788,28.6219l1.63825,0l0,1.63825l-1.63825,0l0,-1.63825z"/>
   <path stroke="null" id="svg_103" d="m36.17788,31.8984l1.63825,0l0,3.2765l-1.63825,0l0,-3.2765z"/>
   <path stroke="null" id="svg_104" d="m39.45438,24.52628l1.63825,0l0,4.09562l-1.63825,0l0,-4.09562z"/>
   <path stroke="null" id="svg_105" d="m39.45438,30.26015l1.63825,0l0,1.63825l-1.63825,0l0,-1.63825z"/>
   <path stroke="null" id="svg_106" d="m32.90139,28.6219l1.63825,0l0,1.63825l-1.63825,0l0,-1.63825z"/>
   <path stroke="null" id="svg_107" d="m52.56036,24.52628l1.63825,0l0,8.19124l-1.63825,0l0,-8.19124z"/>
   <path stroke="null" id="svg_108" d="m29.62489,24.52628l1.63825,0l0,8.19124l-1.63825,0l0,-8.19124z"/>
  </g>
 </g>
</svg>