<svg width="87.10000000000001" height="98.2" xmlns="http://www.w3.org/2000/svg">
 <title>icon-eda</title>

 <g>
  <title>background</title>
  <rect x="-1" y="-1" width="89.1" height="100.2" id="canvas_background" fill="none"/>
 </g>
 <g>
  <title>Layer 1</title>
  <path d="m86.9,28.43333a7.7,7.7 0 0 0 -3.5,-6l-36.4,-21a7.7,7.7 0 0 0 -6.9,0l-36.4,21a7.7,7.7 0 0 0 -3.5,6l0,42a7.7,7.7 0 0 0 3.5,6l36.4,21a7.7,7.7 0 0 0 6.9,0l36.4,-21a7.7,7.7 0 0 0 3.5,-6l0,-42z" stroke-width="0.5px" stroke-miterlimit="10" stroke="#000" fill="none" id="svg_2"/>
  <g stroke="null" id="svg_34">
   <path stroke="null" id="svg_30" d="m68.14905,68.35142l-49.19809,0c-0.59038,0 -1.06952,-0.47915 -1.06952,-1.06952s0.47915,-1.06952 1.06952,-1.06952l49.19809,0c0.59038,0 1.06952,0.47915 1.06952,1.06952s-0.47915,1.06952 -1.06952,1.06952z"/>
   <path stroke="null" id="svg_31" d="m31.78524,68.35142l-10.69524,0c-0.59038,0 -1.06952,-0.47915 -1.06952,-1.06952l0,-18.1819c0,-1.17862 0.96043,-2.13905 2.13905,-2.13905l8.55619,0c1.17862,0 2.13905,0.96043 2.13905,2.13905l0,18.1819c0,0.59038 -0.47915,1.06952 -1.06952,1.06952zm-9.62571,-2.13905l8.55619,0l0,-17.11238l-8.55619,0l0,17.11238z"/>
   <path stroke="null" id="svg_32" d="m48.89762,68.35142l-10.69524,0c-0.59038,0 -1.06952,-0.47915 -1.06952,-1.06952l0,-26.73809c0,-1.17862 0.96043,-2.13905 2.13905,-2.13905l8.55619,0c1.17862,0 2.13905,0.96043 2.13905,2.13905l0,26.73809c0,0.59038 -0.47915,1.06952 -1.06952,1.06952zm-9.62571,-2.13905l8.55619,0l0,-25.66857l-8.55619,0l0,25.66857z"/>
   <path stroke="null" id="svg_33" d="m66.01,68.35142l-10.69524,0c-0.59038,0 -1.06952,-0.47915 -1.06952,-1.06952l0,-35.29428c0,-1.17862 0.96043,-2.13905 2.13905,-2.13905l8.55619,0c1.17862,0 2.13905,0.96043 2.13905,2.13905l0,35.29428c0,0.59038 -0.47915,1.06952 -1.06952,1.06952zm-9.62571,-2.13905l8.55619,0l0,-34.22476l-8.55619,0l0,34.22476z"/>
  </g>
 </g>
</svg>