<svg width="87.10000000000002" height="98.19999999999999" xmlns="http://www.w3.org/2000/svg">
 <title>icon-eda</title>

 <g>
  <title>background</title>
  <rect x="-1" y="-1" width="89.1" height="100.2" id="canvas_background" fill="none"/>
 </g>
 <g>
  <title>Layer 1</title>
  <path d="m86.9,28.1a7.7,7.7 0 0 0 -3.5,-6l-36.4,-21a7.7,7.7 0 0 0 -6.9,0l-36.4,21a7.7,7.7 0 0 0 -3.5,6l0,42a7.7,7.7 0 0 0 3.5,6l36.4,21a7.7,7.7 0 0 0 6.9,0l36.4,-21a7.7,7.7 0 0 0 3.5,-6l0,-42z" stroke-width="0.5px" stroke-miterlimit="10" stroke="#000" fill="none" id="svg_2"/>
  <g stroke="null" id="svg_48">
   <g stroke="null" transform="matrix(0.12053276235193554,0,0,0.12053276235193554,-45.981012452692205,-58.26357212868727) " id="svg_7">
    <path stroke="null" id="svg_8" d="m526.79399,866.2418l24,0c4.142,0 7.5,-3.358 7.5,-7.5s-3.358,-7.5 -7.5,-7.5l-24,0c-4.142,0 -7.5,3.358 -7.5,7.5s3.358,7.5 7.5,7.5z"/>
    <path stroke="null" id="svg_9" d="m526.79399,802.2418l168,0c4.142,0 7.5,-3.358 7.5,-7.5s-3.358,-7.5 -7.5,-7.5l-168,0c-4.142,0 -7.5,3.358 -7.5,7.5s3.358,7.5 7.5,7.5z"/>
    <path stroke="null" id="svg_10" d="m726.79399,802.2418l32,0c4.142,0 7.5,-3.358 7.5,-7.5s-3.358,-7.5 -7.5,-7.5l-32,0c-4.142,0 -7.5,3.358 -7.5,7.5s3.358,7.5 7.5,7.5z"/>
    <path stroke="null" id="svg_11" d="m862.79399,802.2418l96,0c4.142,0 7.5,-3.358 7.5,-7.5s-3.358,-7.5 -7.5,-7.5l-96,0c-4.142,0 -7.5,3.358 -7.5,7.5s3.358,7.5 7.5,7.5z"/>
    <path stroke="null" id="svg_12" d="m862.79399,851.2418c-1.97,0 -3.91,0.8 -5.3,2.2c-1.4,1.39 -2.2,3.33 -2.2,5.3s0.8,3.91 2.2,5.3c1.39,1.4 3.33,2.2 5.3,2.2c1.97,0 3.91,-0.8 5.3,-2.2c1.4,-1.39 2.2,-3.33 2.2,-5.3s-0.8,-3.91 -2.2,-5.3c-1.39,-1.4 -3.33,-2.2 -5.3,-2.2z"/>
    <path stroke="null" id="svg_13" d="m868.09399,917.4418c-1.39,-1.4 -3.33,-2.2 -5.3,-2.2c-1.97,0 -3.91,0.8 -5.3,2.2c-1.4,1.39 -2.2,3.33 -2.2,5.3s0.8,3.91 2.2,5.3c1.39,1.4 3.33,2.2 5.3,2.2c1.97,0 3.91,-0.8 5.3,-2.2c1.4,-1.39 2.2,-3.33 2.2,-5.3s-0.8,-3.91 -2.2,-5.3z"/>
    <path stroke="null" id="svg_14" d="m862.79399,979.2418c-1.97,0 -3.91,0.8 -5.3,2.2c-1.4,1.39 -2.2,3.33 -2.2,5.3s0.8,3.91 2.2,5.3c1.39,1.4 3.33,2.2 5.3,2.2c1.97,0 3.91,-0.8 5.3,-2.2c1.4,-1.39 2.2,-3.33 2.2,-5.3s-0.8,-3.91 -2.2,-5.3c-1.39,-1.4 -3.33,-2.2 -5.3,-2.2z"/>
    <path stroke="null" id="svg_15" d="m894.79399,979.2418c-1.98,0 -3.91,0.8 -5.3,2.2c-1.4,1.39 -2.2,3.33 -2.2,5.3s0.8,3.91 2.2,5.3c1.39,1.4 3.32,2.2 5.3,2.2c1.97,0 3.91,-0.8 5.3,-2.2c1.4,-1.39 2.2,-3.33 2.2,-5.3s-0.8,-3.91 -2.2,-5.3c-1.39,-1.4 -3.32,-2.2 -5.3,-2.2z"/>
    <path stroke="null" id="svg_16" d="m862.79399,1043.2418c-1.97,0 -3.91,0.8 -5.3,2.2c-1.4,1.39 -2.2,3.33 -2.2,5.3s0.8,3.91 2.2,5.3c1.39,1.4 3.33,2.2 5.3,2.2c1.97,0 3.91,-0.8 5.3,-2.2c1.4,-1.39 2.2,-3.33 2.2,-5.3s-0.8,-3.91 -2.2,-5.3c-1.39,-1.4 -3.33,-2.2 -5.3,-2.2z"/>
    <path stroke="null" id="svg_17" d="m894.79399,1043.2418c-1.97,0 -3.91,0.8 -5.3,2.2c-1.4,1.39 -2.2,3.33 -2.2,5.3s0.8,3.91 2.2,5.3c1.39,1.4 3.33,2.2 5.3,2.2c1.97,0 3.91,-0.8 5.3,-2.2c1.4,-1.39 2.2,-3.33 2.2,-5.3s-0.8,-3.91 -2.2,-5.3c-1.39,-1.4 -3.33,-2.2 -5.3,-2.2z"/>
    <path stroke="null" id="svg_18" d="m932.09399,981.4418c-1.39,-1.4 -3.33,-2.2 -5.3,-2.2c-1.97,0 -3.91,0.8 -5.3,2.2c-1.4,1.39 -2.2,3.32 -2.2,5.3s0.8,3.91 2.2,5.3c1.39,1.4 3.33,2.2 5.3,2.2c1.97,0 3.91,-0.8 5.3,-2.2c1.4,-1.39 2.2,-3.33 2.2,-5.3s-0.8,-3.91 -2.2,-5.3z"/>
    <path stroke="null" id="svg_19" d="m900.09399,853.4418c-1.39,-1.4 -3.32,-2.2 -5.3,-2.2s-3.91,0.8 -5.3,2.2c-1.4,1.39 -2.2,3.33 -2.2,5.3s0.8,3.91 2.2,5.3c1.39,1.4 3.33,2.2 5.3,2.2c1.97,0 3.91,-0.8 5.3,-2.2c1.4,-1.39 2.2,-3.33 2.2,-5.3s-0.8,-3.91 -2.2,-5.3z"/>
    <path stroke="null" id="svg_20" d="m550.79399,1043.2418l-24,0c-4.142,0 -7.5,3.358 -7.5,7.5s3.358,7.5 7.5,7.5l24,0c4.142,0 7.5,-3.358 7.5,-7.5s-3.358,-7.5 -7.5,-7.5z"/>
    <path stroke="null" id="svg_21" d="m630.79399,738.2418l224,0c4.142,0 7.5,-3.358 7.5,-7.5s-3.358,-7.5 -7.5,-7.5l-224,0c-4.142,0 -7.5,3.358 -7.5,7.5s3.358,7.5 7.5,7.5z"/>
    <path stroke="null" id="svg_22" d="m526.79399,930.2418l24,0c4.142,0 7.5,-3.358 7.5,-7.5s-3.358,-7.5 -7.5,-7.5l-24,0c-4.142,0 -7.5,3.358 -7.5,7.5s3.358,7.5 7.5,7.5z"/>
    <path stroke="null" id="svg_23" d="m550.79399,979.2418l-24,0c-4.142,0 -7.5,3.358 -7.5,7.5s3.358,7.5 7.5,7.5l24,0c4.142,0 7.5,-3.358 7.5,-7.5s-3.358,-7.5 -7.5,-7.5z"/>
    <path stroke="null" id="svg_24" d="m702.79399,979.2418l-16,0c-4.142,0 -7.5,3.358 -7.5,7.5s3.358,7.5 7.5,7.5l16,0c4.142,0 7.5,-3.358 7.5,-7.5s-3.358,-7.5 -7.5,-7.5z"/>
    <path stroke="null" id="svg_25" d="m686.79399,1058.2418l16,0c4.142,0 7.5,-3.358 7.5,-7.5s-3.358,-7.5 -7.5,-7.5l-16,0c-4.142,0 -7.5,3.358 -7.5,7.5s3.358,7.5 7.5,7.5z"/>
    <path stroke="null" id="svg_26" d="m702.79399,915.2418l-16,0c-4.142,0 -7.5,3.358 -7.5,7.5s3.358,7.5 7.5,7.5l16,0c4.142,0 7.5,-3.358 7.5,-7.5s-3.358,-7.5 -7.5,-7.5z"/>
    <path stroke="null" id="svg_27" d="m686.79399,866.2418l16,0c4.142,0 7.5,-3.358 7.5,-7.5s-3.358,-7.5 -7.5,-7.5l-16,0c-4.142,0 -7.5,3.358 -7.5,7.5s3.358,7.5 7.5,7.5z"/>
    <path stroke="null" id="svg_28" d="m734.79399,866.2418l32,0c4.142,0 7.5,-3.358 7.5,-7.5s-3.358,-7.5 -7.5,-7.5l-32,0c-4.142,0 -7.5,3.358 -7.5,7.5s3.358,7.5 7.5,7.5z"/>
    <path stroke="null" id="svg_29" d="m790.79399,915.2418l-56,0c-4.142,0 -7.5,3.358 -7.5,7.5s3.358,7.5 7.5,7.5l56,0c4.142,0 7.5,-3.358 7.5,-7.5s-3.358,-7.5 -7.5,-7.5z"/>
    <path stroke="null" id="svg_30" d="m750.79399,979.2418l-16,0c-4.142,0 -7.5,3.358 -7.5,7.5s3.358,7.5 7.5,7.5l16,0c4.142,0 7.5,-3.358 7.5,-7.5s-3.358,-7.5 -7.5,-7.5z"/>
    <path stroke="null" id="svg_31" d="m734.79399,1058.2418l32,0c4.142,0 7.5,-3.358 7.5,-7.5s-3.358,-7.5 -7.5,-7.5l-32,0c-4.142,0 -7.5,3.358 -7.5,7.5s3.358,7.5 7.5,7.5z"/>
    <path stroke="null" id="svg_32" d="m958.79399,691.2418l-432,0c-21.78,0 -39.5,17.72 -39.5,39.5l0,320c0,21.78 17.72,39.5 39.5,39.5l432,0c21.78,0 39.5,-17.72 39.5,-39.5l0,-320c0,-21.78 -17.72,-39.5 -39.5,-39.5zm-296.5,320l0,-49l161,0l0,49l-161,0zm161,15l0,49l-161,0l0,-49l161,0zm160,-256l0,49l-145,0l0,-49l145,0zm-160,64l0,49l-161,0l0,-49l161,0zm-176,49l-145,0l0,-49l145,0l0,49zm0,15l0,49l-145,0l0,-49l145,0zm15,0l161,0l0,49l-161,0l0,-49zm176,0l145,0l0,49l-145,0l0,-49zm0,-15l0,-49l145,0l0,49l-145,0zm-15,-64l-321,0l0,-49l321,0l0,49zm-321,143l145,0l0,49l-145,0l0,-49zm336,0l145,0l0,49l-145,0l0,-49zm-311.5,-256l432,0c13.509,0 24.5,10.991 24.5,24.5l0,24.5l-481,0l0,-24.5c0,-13.509 10.991,-24.5 24.5,-24.5zm-24.5,344.5l0,-24.5l145,0l0,49l-120.5,0c-13.509,0 -24.5,-10.991 -24.5,-24.5zm456.5,24.5l-120.5,0l0,-49l145,0l0,24.5c0,13.509 -10.991,24.5 -24.5,24.5z"/>
   </g>
   <g stroke="null" transform="matrix(0.12053276235193554,0,0,0.12053276235193554,-45.981012452692205,-58.26357212868727) " id="svg_33"/>
   <g stroke="null" transform="matrix(0.12053276235193554,0,0,0.12053276235193554,-45.981012452692205,-58.26357212868727) " id="svg_34"/>
   <g stroke="null" transform="matrix(0.12053276235193554,0,0,0.12053276235193554,-45.981012452692205,-58.26357212868727) " id="svg_35"/>
   <g stroke="null" transform="matrix(0.12053276235193554,0,0,0.12053276235193554,-45.981012452692205,-58.26357212868727) " id="svg_36"/>
   <g stroke="null" transform="matrix(0.12053276235193554,0,0,0.12053276235193554,-45.981012452692205,-58.26357212868727) " id="svg_37"/>
   <g stroke="null" transform="matrix(0.12053276235193554,0,0,0.12053276235193554,-45.981012452692205,-58.26357212868727) " id="svg_38"/>
   <g stroke="null" transform="matrix(0.12053276235193554,0,0,0.12053276235193554,-45.981012452692205,-58.26357212868727) " id="svg_39"/>
   <g stroke="null" transform="matrix(0.12053276235193554,0,0,0.12053276235193554,-45.981012452692205,-58.26357212868727) " id="svg_40"/>
   <g stroke="null" transform="matrix(0.12053276235193554,0,0,0.12053276235193554,-45.981012452692205,-58.26357212868727) " id="svg_41"/>
   <g stroke="null" transform="matrix(0.12053276235193554,0,0,0.12053276235193554,-45.981012452692205,-58.26357212868727) " id="svg_42"/>
   <g stroke="null" transform="matrix(0.12053276235193554,0,0,0.12053276235193554,-45.981012452692205,-58.26357212868727) " id="svg_43"/>
   <g stroke="null" transform="matrix(0.12053276235193554,0,0,0.12053276235193554,-45.981012452692205,-58.26357212868727) " id="svg_44"/>
   <g stroke="null" transform="matrix(0.12053276235193554,0,0,0.12053276235193554,-45.981012452692205,-58.26357212868727) " id="svg_45"/>
   <g stroke="null" transform="matrix(0.12053276235193554,0,0,0.12053276235193554,-45.981012452692205,-58.26357212868727) " id="svg_46"/>
   <g stroke="null" transform="matrix(0.12053276235193554,0,0,0.12053276235193554,-45.981012452692205,-58.26357212868727) " id="svg_47"/>
  </g>
 </g>
</svg>