<svg width="87.10000000000002" height="98.19999999999999" xmlns="http://www.w3.org/2000/svg">
 <title>icon-eda</title>

 <g>
  <title>background</title>
  <rect x="-1" y="-1" width="89.1" height="100.2" id="canvas_background" fill="none"/>
 </g>
 <g>
  <title>Layer 1</title>
  <path d="m86.9,28.1a7.7,7.7 0 0 0 -3.5,-6l-36.4,-21a7.7,7.7 0 0 0 -6.9,0l-36.4,21a7.7,7.7 0 0 0 -3.5,6l0,42a7.7,7.7 0 0 0 3.5,6l36.4,21a7.7,7.7 0 0 0 6.9,0l36.4,-21a7.7,7.7 0 0 0 3.5,-6l0,-42z" stroke-width="0.5px" stroke-miterlimit="10" stroke="#000" fill="none" id="svg_2"/>
  <g transform="matrix(0.8721160460426346,0,0,0.8721160460426346,-19.229981790306837,74.11989464484049) " stroke="null" fill-rule="nonzero" fill="rgb(0,0,0)" id="svg_66">
   <path stroke="null" d="m97.98581,-52.68884l-7.812,0l-36.376,0l-7.812,0c-2.20914,0 -4,1.79086 -4,4l0,42c0,2.20914 1.79086,4 4,4l52,0c2.20914,0 4,-1.79086 4,-4l0,-42c0,-2.20914 -1.79086,-4 -4,-4zm-26,-1.99976l-12.665,1.99976l12.665,-1.99976zm28,47.99976c0,1.10457 -0.89543,2 -2,2l-52,0c-1.10457,0 -2,-0.89543 -2,-2l0,-42c0,-1.10457 0.89543,-2 2,-2l52,0c1.10457,0 2,0.89543 2,2l0,42z" id="svg_68"/>
   <path stroke="null" d="m95.98581,-8.68885l-47,0l0,-39c0,-0.55228 -0.44772,-1 -1,-1s-1,0.44772 -1,1l0,39c-0.55228,0 -1,0.44772 -1,1s0.44772,1 1,1l49,0c0.55228,0 1,-0.44772 1,-1s-0.44772,-1 -1,-1z" id="svg_67"/>
   <path stroke="null" d="m52.98581,-42.68885l8,0l0,2c0,1.10457 0.89543,2 2,2l6,0l0,2c0,1.10457 0.89543,2 2,2l8,0l0,2c0,1.10457 0.89543,2 2,2l6,0c1.10457,0 2,-0.89543 2,-2l0,-2c0,-1.10457 -0.89543,-2 -2,-2l-6,0l0,-2c0,-1.10457 -0.89543,-2 -2,-2l-8,0l0,-2c0,-1.10457 -0.89543,-2 -2,-2l-6,0l0,-2c0,-1.10457 -0.89543,-2 -2,-2l-8,0c-1.10457,0 -2,0.89543 -2,2l0,2c0,1.10457 0.89543,2 2,2zm34,10l-6,0l0,-2l6,0l0,2zm-8,-4l-8,0l0,-2l8,0l0,2zm-10,-4l-6,0l0,-2l6,0l0,2zm-16,-6l8,0l0,2l-8,0l0,-2z" id="Shape"/>
   <path stroke="null" d="m52.98581,-18.68885l8,0l0,2c0,1.10457 0.89543,2 2,2l17,0l0,2c0,1.10457 0.89543,2 2,2l9,0c0.55228,0 1,-0.44772 1,-1l0,-3c0,-1.10457 -0.89543,-2 -2,-2l-8,0l0,-2c0,-1.10457 -0.89543,-2 -2,-2l-17,0l0,-2c0,-1.10457 -0.89543,-2 -2,-2l-8,0c-1.10457,0 -2,0.89543 -2,2l0,2c0,1.10457 0.89543,2 2,2zm37,6l-8,0l0,-2l8,0l0,2zm-10,-4l-17,0l0,-2l17,0l0,2zm-27,-6l8,0l0,2l-8,0l0,-2z" id="Shape"/>
   <path stroke="null" d="m52.98581,-30.68885l8,0l0,2c0,1.10457 0.89543,2 2,2l6,0l0,2c0,1.10457 0.89543,2 2,2l22,0c1.10457,0 2,-0.89543 2,-2l0,-2c0,-1.10457 -0.89543,-2 -2,-2l-22,0l0,-2c0,-1.10457 -0.89543,-2 -2,-2l-6,0l0,-2c0,-1.10457 -0.89543,-2 -2,-2l-8,0c-1.10457,0 -2,0.89543 -2,2l0,2c0,1.10457 0.89543,2 2,2zm40,6l-22,0l0,-2l22,0l0,2zm-24,-4l-6,0l0,-2l6,0l0,2zm-16,-6l8,0l0,2l-8,0l0,-2z" id="Shape"/>
  </g>
 </g>
</svg>