<svg width="87.1" height="98.2" xmlns="http://www.w3.org/2000/svg">
 <title>icon-eda</title>

 <g>
  <title>background</title>
  <rect fill="none" id="canvas_background" height="602" width="802" y="-1" x="-1"/>
 </g>
 <g>
  <title>Layer 1</title>
  <path id="svg_2" fill="none" stroke="#000" stroke-miterlimit="10" stroke-width="0.5px" d="m86.9,28.1a7.7,7.7 0 0 0 -3.5,-6l-36.4,-21a7.7,7.7 0 0 0 -6.9,0l-36.4,21a7.7,7.7 0 0 0 -3.5,6l0,42a7.7,7.7 0 0 0 3.5,6l36.4,21a7.7,7.7 0 0 0 6.9,0l36.4,-21a7.7,7.7 0 0 0 3.5,-6l0,-42z"/>
  <g stroke="null" id="svg_211">
   <g stroke="null" transform="matrix(0.11711484908395733,0,0,0.11711484908395733,-21.26873693467246,-25.44684437162914) " id="svg_181">
    <g stroke="null" id="svg_182">
     <path stroke="null" id="svg_183" d="m784.34137,613.82855c-4.5,-45.8 -22.4,-89.2 -51.6,-124.6c-3.5,-4.3 -9.8,-4.9 -14.1,-1.4c-0.3,0.2 -0.5,0.4 -0.7,0.7l-82.7,83c-3.3,3.4 -3.9,8.6 -1.3,12.5c6.6,10.4 11.3,22 13.8,34.1c1,4.6 5.1,8 9.8,7.9l116.9,0c5.5,0 10,-4.5 10,-10c0,-0.1 0,-0.1 0,-0.2c0,-0.7 0,-1.4 -0.1,-2zm-118.9,-7.8c-2.5,-9 -6,-17.7 -10.5,-26l69.2,-69.4c20.7,28.1 34.2,60.9 39.1,95.4l-97.8,0z"/>
    </g>
   </g>
   <g stroke="null" transform="matrix(0.11711484908395733,0,0,0.11711484908395733,-21.26873693467246,-25.44684437162914) " id="svg_184">
    <g stroke="null" id="svg_185">
     <path stroke="null" id="svg_186" d="m701.24137,457.62855c-0.2,-0.2 -0.5,-0.4 -0.7,-0.6c-35.5,-29.3 -78.9,-47.3 -124.7,-51.7c-0.7,-0.1 -1.3,-0.1 -2,-0.1c-5.5,-0.1 -10.1,4.3 -10.2,9.8c0,0.1 0,0.1 0,0.2l0,116.9c0,5.3 4.2,9.7 9.5,10c11.8,2.4 23,7.1 33.1,13.6c4,2.6 9.2,2.1 12.6,-1.3l82.4,-82.7c3.9,-3.9 3.9,-10.2 0,-14.1zm-91.1,77.1c-8.4,-4.6 -17.3,-8.2 -26.5,-10.7l0,-97.6c34.6,4.9 67.4,18.4 95.4,39.2l-68.9,69.1z"/>
    </g>
   </g>
   <g stroke="null" transform="matrix(0.11711484908395733,0,0,0.11711484908395733,-21.26873693467246,-25.44684437162914) " id="svg_187">
    <g stroke="null" id="svg_188">
     <path stroke="null" id="svg_189" d="m529.64137,405.72855c-0.3,0 -0.7,0 -1,0.1c-108.5,10.8 -195,98.8 -205.7,209.2c-0.5,5.5 3.5,10.4 9,10.9c0.3,0.1 0.6,0.1 1,0.1l116.9,0c4.7,0 8.8,-3.3 9.8,-8c7.8,-37.6 36.8,-68 72.1,-75.7c4.6,-1 7.9,-5.1 7.9,-9.8l0,-116.8c0,-5.5 -4.5,-10 -10,-10zm-10,119.1c-18.7,5.7 -35.6,16.2 -49,30.5c-13.6,14.3 -23.4,31.7 -28.7,50.7l-97.7,0c6.7,-44.8 27.4,-86.3 59,-118.6c31.3,-32.1 72.1,-53.3 116.4,-60.4l0,97.8z"/>
    </g>
   </g>
   <g stroke="null" transform="matrix(0.11711484908395733,0,0,0.11711484908395733,-21.26873693467246,-25.44684437162914) " id="svg_190">
    <g stroke="null" id="svg_191">
     <path stroke="null" id="svg_192" d="m533.74137,729.92855c-0.1,0 -0.2,0 -0.2,0c-37.2,-7.8 -66.3,-36.9 -74.1,-74.1c-1,-4.6 -5.1,-7.9 -9.8,-7.8l-117.2,0c-2.8,-0.1 -5.5,1.1 -7.4,3.1c-1.9,2.1 -2.8,4.9 -2.5,7.7c10.6,109.5 97.7,196.9 207.1,207.8c0.3,0 0.7,0 1,0c5.5,0 10,-4.4 10,-9.9c0,0 0.2,-29.3 0.4,-58.5c0.1,-14.6 0.2,-29.3 0.3,-40.3c0,-5.5 0.1,-10.1 0.1,-13.3c0,-1.6 0,-2.9 0,-3.8c0,-7.9 -4.9,-10.2 -7.7,-10.9zm-13,115.5c-91.4,-14.3 -162.9,-86.1 -177,-177.5l98,-0.2c11,38.6 41.1,68.7 79.6,79.8c0,17.4 -0.3,62.1 -0.6,97.9z"/>
    </g>
   </g>
   <g stroke="null" transform="matrix(0.11711484908395733,0,0,0.11711484908395733,-21.26873693467246,-25.44684437162914) " id="svg_193">
    <g stroke="null" id="svg_194">
     <path stroke="null" id="svg_195" d="m775.34137,650.22855c-0.3,-0.2 -0.7,-0.2 -1,-0.2l-117,0c-4.7,0 -8.8,3.3 -9.8,7.9c-3.9,17.9 -13,34.3 -26.2,47.2c-13.2,13.1 -29.9,22.1 -48.2,25.9c-4.6,1 -8,5 -8,9.8l-0.5,117c0,5.5 4.4,10 9.9,10c0,0 0,0 0.1,0c0.4,0 0.8,0 1.2,-0.1c0.1,0 0.3,0 0.4,0c109.6,-10.6 197.1,-97.5 208,-206.6c0.6,-5.5 -3.5,-10.4 -8.9,-10.9zm-190.5,196.2l0.1,-23.6l19.7,19.7c-6.5,1.6 -13.1,2.9 -19.8,3.9zm41.4,-10.5l-41.3,-41.3l0.2,-28.1l61,61c-6.5,3.1 -13.1,6 -19.9,8.4zm38.3,-18.3l-71.5,-71.5c6.7,-2.4 13.1,-5.4 19.3,-9l69,69c-5.4,4.1 -11,7.9 -16.8,11.5zm32.2,-24.4l-67.9,-67.9c2.3,-1.9 4.5,-3.9 6.6,-6c2.6,-2.6 5.1,-5.3 7.5,-8.1l67.9,67.9c-4.5,4.9 -9.2,9.6 -14.1,14.1zm26.9,-29.6l-69.1,-69.1c3.6,-6.2 6.5,-12.7 8.9,-19.4l71.6,71.6c-3.5,5.8 -7.3,11.4 -11.4,16.9zm21.4,-35.2l-58.4,-58.4l28.3,0l38.4,38.4c-2.4,6.8 -5.2,13.5 -8.3,20zm14.7,-41.9l-16.5,-16.5l19.8,0c-0.9,5.6 -2,11.1 -3.3,16.5z"/>
    </g>
   </g>
   <g stroke="null" transform="matrix(0.11711484908395733,0,0,0.11711484908395733,-21.26873693467246,-25.44684437162914) " id="svg_196"/>
   <g stroke="null" transform="matrix(0.11711484908395733,0,0,0.11711484908395733,-21.26873693467246,-25.44684437162914) " id="svg_197"/>
   <g stroke="null" transform="matrix(0.11711484908395733,0,0,0.11711484908395733,-21.26873693467246,-25.44684437162914) " id="svg_198"/>
   <g stroke="null" transform="matrix(0.11711484908395733,0,0,0.11711484908395733,-21.26873693467246,-25.44684437162914) " id="svg_199"/>
   <g stroke="null" transform="matrix(0.11711484908395733,0,0,0.11711484908395733,-21.26873693467246,-25.44684437162914) " id="svg_200"/>
   <g stroke="null" transform="matrix(0.11711484908395733,0,0,0.11711484908395733,-21.26873693467246,-25.44684437162914) " id="svg_201"/>
   <g stroke="null" transform="matrix(0.11711484908395733,0,0,0.11711484908395733,-21.26873693467246,-25.44684437162914) " id="svg_202"/>
   <g stroke="null" transform="matrix(0.11711484908395733,0,0,0.11711484908395733,-21.26873693467246,-25.44684437162914) " id="svg_203"/>
   <g stroke="null" transform="matrix(0.11711484908395733,0,0,0.11711484908395733,-21.26873693467246,-25.44684437162914) " id="svg_204"/>
   <g stroke="null" transform="matrix(0.11711484908395733,0,0,0.11711484908395733,-21.26873693467246,-25.44684437162914) " id="svg_205"/>
   <g stroke="null" transform="matrix(0.11711484908395733,0,0,0.11711484908395733,-21.26873693467246,-25.44684437162914) " id="svg_206"/>
   <g stroke="null" transform="matrix(0.11711484908395733,0,0,0.11711484908395733,-21.26873693467246,-25.44684437162914) " id="svg_207"/>
   <g stroke="null" transform="matrix(0.11711484908395733,0,0,0.11711484908395733,-21.26873693467246,-25.44684437162914) " id="svg_208"/>
   <g stroke="null" transform="matrix(0.11711484908395733,0,0,0.11711484908395733,-21.26873693467246,-25.44684437162914) " id="svg_209"/>
   <g stroke="null" transform="matrix(0.11711484908395733,0,0,0.11711484908395733,-21.26873693467246,-25.44684437162914) " id="svg_210"/>
  </g>
 </g>
</svg>