<svg width="87.1" height="98.2" xmlns="http://www.w3.org/2000/svg">
 <title>icon-eda</title>

 <g>
  <title>background</title>
  <rect fill="none" id="canvas_background" height="602" width="802" y="-1" x="-1"/>
 </g>
 <g>
  <title>Layer 1</title>
  <path id="svg_2" fill="none" stroke="#000" stroke-miterlimit="10" stroke-width="0.5px" d="m86.9,28.1a7.7,7.7 0 0 0 -3.5,-6l-36.4,-21a7.7,7.7 0 0 0 -6.9,0l-36.4,21a7.7,7.7 0 0 0 -3.5,6l0,42a7.7,7.7 0 0 0 3.5,6l36.4,21a7.7,7.7 0 0 0 6.9,0l36.4,-21a7.7,7.7 0 0 0 3.5,-6l0,-42z"/>
  <g stroke="null" id="svg_256">
   <g stroke="null" transform="matrix(0.10939320294623273,0,0,0.10939320294623273,-25.255569821015612,-30.195240161817445) " id="svg_216">
    <g stroke="null" id="svg_217">
     <g stroke="null" id="svg_218">
      <path stroke="null" id="svg_219" d="m876.97475,844.86438l0,-368l-384,0l0,80l-56,0c-22.056,0 -40,17.944 -40,40l0,280l-16,0l0,56c0,22.056 17.944,40 40,40l416,0c22.056,0 40,-17.944 40,-40l0,-56l-16,0l0,-32l16,0zm-368,-352l352,0l0,48l-352,0l0,-48zm288,352l0,32l-112,0l0,16l16,0l0,8c0,4.408 -3.592,8 -8,8l-128,0c-4.408,0 -8,-3.592 -8,-8l0,-8l112,0l0,-16l-208,0l0,-256l32,0l0,224l304,0zm-384,-248c0,-13.232 10.768,-24 24,-24l56,0l0,32l-32,0c-8.824,0 -16,7.176 -16,16l0,256l-32,0l0,-280zm448,336c0,13.232 -10.768,24 -24,24l-416,0c-13.232,0 -24,-10.768 -24,-24l0,-40l144,0l0,8c0,13.232 10.768,24 24,24l128,0c13.232,0 24,-10.768 24,-24l0,-8l144,0l0,40zm-48,-56l0,-32l32,0l0,32l-32,0zm-304,-48l0,-272l352,0l0,272l-352,0z"/>
      <rect stroke="null" id="svg_220" height="16" width="16" y="924.86438" x="444.97475"/>
      <rect stroke="null" id="svg_221" height="16" width="16" y="924.86438" x="476.97475"/>
      <rect stroke="null" id="svg_222" height="16" width="16" y="924.86438" x="508.97475"/>
      <rect stroke="null" id="svg_223" height="16" width="16" y="508.86438" x="524.97475"/>
      <rect stroke="null" id="svg_224" height="16" width="16" y="508.86438" x="556.97475"/>
      <rect stroke="null" id="svg_225" height="16" width="16" y="508.86438" x="588.97475"/>
      <path stroke="null" id="svg_226" d="m700.97475,572.86438l-176,0l0,208l144,0l0,32l176,0l0,-208l-144,0l0,-32zm-160,192l0,-176l144,0l0,176l-144,0zm288,-144l0,176l-144,0l0,-16l16,0l0,-160l128,0z"/>
      <rect stroke="null" id="svg_227" height="16" width="16" y="604.86438" x="556.97475"/>
      <rect stroke="null" id="svg_228" height="16" width="80" y="604.86438" x="588.97475"/>
      <rect stroke="null" id="svg_229" height="16" width="112" y="636.86438" x="556.97475"/>
      <rect stroke="null" id="svg_230" height="16" width="16" y="732.86438" x="652.97475"/>
      <rect stroke="null" id="svg_231" height="16" width="80" y="732.86438" x="556.97475"/>
      <rect stroke="null" id="svg_232" height="16" width="112" y="700.86438" x="556.97475"/>
      <rect stroke="null" id="svg_233" height="16" width="112" y="668.86438" x="556.97475"/>
      <rect stroke="null" id="svg_234" height="16" width="16" y="636.86438" x="716.97475"/>
      <rect stroke="null" id="svg_235" height="16" width="64" y="636.86438" x="748.97475"/>
      <rect stroke="null" id="svg_236" height="16" width="96" y="668.86438" x="716.97475"/>
      <rect stroke="null" id="svg_237" height="16" width="16" y="764.86438" x="796.97475"/>
      <rect stroke="null" id="svg_238" height="16" width="64" y="764.86438" x="716.97475"/>
      <rect stroke="null" id="svg_239" height="16" width="96" y="732.86438" x="716.97475"/>
      <rect stroke="null" id="svg_240" height="16" width="96" y="700.86438" x="716.97475"/>
     </g>
    </g>
   </g>
   <g stroke="null" transform="matrix(0.10939320294623273,0,0,0.10939320294623273,-25.255569821015612,-30.195240161817445) " id="svg_241"/>
   <g stroke="null" transform="matrix(0.10939320294623273,0,0,0.10939320294623273,-25.255569821015612,-30.195240161817445) " id="svg_242"/>
   <g stroke="null" transform="matrix(0.10939320294623273,0,0,0.10939320294623273,-25.255569821015612,-30.195240161817445) " id="svg_243"/>
   <g stroke="null" transform="matrix(0.10939320294623273,0,0,0.10939320294623273,-25.255569821015612,-30.195240161817445) " id="svg_244"/>
   <g stroke="null" transform="matrix(0.10939320294623273,0,0,0.10939320294623273,-25.255569821015612,-30.195240161817445) " id="svg_245"/>
   <g stroke="null" transform="matrix(0.10939320294623273,0,0,0.10939320294623273,-25.255569821015612,-30.195240161817445) " id="svg_246"/>
   <g stroke="null" transform="matrix(0.10939320294623273,0,0,0.10939320294623273,-25.255569821015612,-30.195240161817445) " id="svg_247"/>
   <g stroke="null" transform="matrix(0.10939320294623273,0,0,0.10939320294623273,-25.255569821015612,-30.195240161817445) " id="svg_248"/>
   <g stroke="null" transform="matrix(0.10939320294623273,0,0,0.10939320294623273,-25.255569821015612,-30.195240161817445) " id="svg_249"/>
   <g stroke="null" transform="matrix(0.10939320294623273,0,0,0.10939320294623273,-25.255569821015612,-30.195240161817445) " id="svg_250"/>
   <g stroke="null" transform="matrix(0.10939320294623273,0,0,0.10939320294623273,-25.255569821015612,-30.195240161817445) " id="svg_251"/>
   <g stroke="null" transform="matrix(0.10939320294623273,0,0,0.10939320294623273,-25.255569821015612,-30.195240161817445) " id="svg_252"/>
   <g stroke="null" transform="matrix(0.10939320294623273,0,0,0.10939320294623273,-25.255569821015612,-30.195240161817445) " id="svg_253"/>
   <g stroke="null" transform="matrix(0.10939320294623273,0,0,0.10939320294623273,-25.255569821015612,-30.195240161817445) " id="svg_254"/>
   <g stroke="null" transform="matrix(0.10939320294623273,0,0,0.10939320294623273,-25.255569821015612,-30.195240161817445) " id="svg_255"/>
  </g>
 </g>
</svg>