<svg width="87.10000000000001" height="98.2" xmlns="http://www.w3.org/2000/svg">
 <title>icon-eda</title>

 <g>
  <title>background</title>
  <rect x="-1" y="-1" width="89.1" height="100.2" id="canvas_background" fill="none"/>
 </g>
 <g>
  <title>Layer 1</title>
  <path d="m86.9,28.43333a7.7,7.7 0 0 0 -3.5,-6l-36.4,-21a7.7,7.7 0 0 0 -6.9,0l-36.4,21a7.7,7.7 0 0 0 -3.5,6l0,42a7.7,7.7 0 0 0 3.5,6l36.4,21a7.7,7.7 0 0 0 6.9,0l36.4,-21a7.7,7.7 0 0 0 3.5,-6l0,-42z" stroke-width="0.5px" stroke-miterlimit="10" stroke="#000" fill="none" id="svg_2"/>
  <g stroke="null" transform="rotate(-90 43.549999237060554,49.10000228881836) " id="svg_25">
   <path stroke="null" id="svg_24" d="m18.0916,65.46612c-1.00441,0 -1.81846,0.81404 -1.81846,1.81846l0,11.03197c0,1.00441 0.81404,1.81846 1.81846,1.81846l21.82149,0c1.00441,0 1.81846,-0.81404 1.81846,-1.81846l0,-11.03197c0,-1.00441 -0.81404,-1.81846 -1.81846,-1.81846l-9.09229,0l0,-3.63691l5.45537,0c1.00441,0 1.81846,-0.81404 1.81846,-1.81846l0,-14.54766c0,-1.00441 -0.81404,-1.81846 -1.81846,-1.81846l-5.45537,0l0,-3.63691l25.4584,0l0,3.63691l-5.45537,0c-1.00441,0 -1.81846,0.81404 -1.81846,1.81846l0,14.54766c0,1.00441 0.81404,1.81846 1.81846,1.81846l5.45537,0l0,3.63691l-9.09229,0c-1.00441,0 -1.81846,0.81404 -1.81846,1.81846l0,11.03197c0,1.00441 0.81404,1.81846 1.81846,1.81846l21.82149,0c1.00441,0 1.81846,-0.81404 1.81846,-1.81846l0,-11.03197c0,-1.00441 -0.81404,-1.81846 -1.81846,-1.81846l-9.09229,0l0,-3.63691l5.45537,0c1.00441,0 1.81846,-0.81404 1.81846,-1.81846l0,-14.54766c0,-1.00441 -0.81404,-1.81846 -1.81846,-1.81846l-5.45537,0l0,-5.45537c0,-1.00441 -0.81404,-1.81846 -1.81846,-1.81846l-12.7292,0l0,-3.63691l20.00303,0c1.00441,0 1.81846,-0.81404 1.81846,-1.81846l0,-11.03197c0,-1.00441 -0.81404,-1.81846 -1.81846,-1.81846l-43.64298,0c-1.00441,0 -1.81846,0.81404 -1.81846,1.81846l0,11.03197c0,1.00441 0.81404,1.81846 1.81846,1.81846l20.00303,0l0,3.63691l-12.7292,0c-1.00441,0 -1.81846,0.81404 -1.81846,1.81846l0,5.45537l-5.45537,0c-1.00441,0 -1.81846,0.81404 -1.81846,1.81846l0,14.54766c0,1.00441 0.81404,1.81846 1.81846,1.81846l5.45537,0l0,3.63691l-9.09229,0zm49.09835,11.03197l-18.18457,0l0,-7.39506l18.18457,0l0,7.39506zm-3.63691,-18.3058l-10.91074,0l0,-10.91074l10.91074,0l0,10.91074zm-40.00606,-36.49038l40.00606,0l0,7.39506l-40.00606,0l0,-7.39506zm0,25.57963l10.91074,0l0,10.91074l-10.91074,0l0,-10.91074zm14.54766,29.21655l-18.18457,0l0,-7.39506l18.18457,0l0,7.39506zm0,0"/>
  </g>
 </g>
</svg>