<svg width="87.1" height="98.2" xmlns="http://www.w3.org/2000/svg">
 <title>icon-eda</title>

 <g>
  <title>background</title>
  <rect fill="none" id="canvas_background" height="602" width="802" y="-1" x="-1"/>
 </g>
 <g>
  <title>Layer 1</title>
  <path id="svg_2" fill="none" stroke="#000" stroke-miterlimit="10" stroke-width="0.5px" d="m86.9,28.1a7.7,7.7 0 0 0 -3.5,-6l-36.4,-21a7.7,7.7 0 0 0 -6.9,0l-36.4,21a7.7,7.7 0 0 0 -3.5,6l0,42a7.7,7.7 0 0 0 3.5,6l36.4,21a7.7,7.7 0 0 0 6.9,0l36.4,-21a7.7,7.7 0 0 0 3.5,-6l0,-42z"/>
  <g stroke="null" id="svg_176">
   <path stroke="null" id="svg_175" d="m67.75024,35.8289l0,-10.92914l-15.61306,0l0,4.68392l-3.12261,0c-2.15226,0 -3.90327,1.751 -3.90327,3.90327l0,5.46457l-3.12261,0l0,-4.68392c0,-2.15226 -1.751,-3.90327 -3.90327,-3.90327l-4.42318,0l-6.50596,-4.87908l-7.54657,5.65973l7.54657,5.65973l6.50596,-4.87908l4.42318,0c1.2912,0 2.34196,1.05076 2.34196,2.34196l0,4.68392l-5.46457,0c-0.86262,0 -1.56131,0.69868 -1.56131,1.56131l0,1.56131c0,0.86262 0.69868,1.56131 1.56131,1.56131l2.34196,0c-0.86262,0 -1.56131,0.69868 -1.56131,1.56131s0.69868,1.56131 1.56131,1.56131l-2.34196,0c-0.86262,0 -1.56131,0.69868 -1.56131,1.56131l-3.18506,0c-0.38096,-2.64407 -2.655,-4.68392 -5.40212,-4.68392c-3.01254,0 -5.46457,2.45125 -5.46457,5.46457s2.45203,5.46457 5.46457,5.46457c2.74712,0 5.02116,-2.03985 5.40212,-4.68392l3.18506,0c0,0.86262 0.69868,1.56131 1.56131,1.56131l2.34196,0c-0.86262,0 -1.56131,0.69868 -1.56131,1.56131s0.69868,1.56131 1.56131,1.56131l-2.34196,0c-0.86262,0 -1.56131,0.69868 -1.56131,1.56131l0,1.56131c0,0.86262 0.69868,1.56131 1.56131,1.56131l5.46457,0l0,5.46457c0,1.2912 -1.05076,2.34196 -2.34196,2.34196l-3.12261,0l0,-4.68392l-15.61306,0l0,10.92914l15.61306,0l0,-4.68392l3.12261,0c2.15226,0 3.90327,-1.751 3.90327,-3.90327l0,-5.46457l3.12261,0l0,5.46457c0,2.15226 1.751,3.90327 3.90327,3.90327l7.86898,0c0.38096,2.64407 2.655,4.68392 5.40212,4.68392c3.01254,0 5.46457,-2.45125 5.46457,-5.46457s-2.45203,-5.46457 -5.46457,-5.46457c-2.74712,0 -5.02116,2.03985 -5.40212,4.68392l-7.86898,0c-1.2912,0 -2.34196,-1.05076 -2.34196,-2.34196l0,-5.46457l5.46457,0c0.86262,0 1.56131,-0.69868 1.56131,-1.56131l0,-1.56131c0,-0.86262 -0.69868,-1.56131 -1.56131,-1.56131l-2.34196,0c0.86262,0 1.56131,-0.69868 1.56131,-1.56131s-0.69868,-1.56131 -1.56131,-1.56131l2.34196,0c0.86262,0 1.56131,-0.69868 1.56131,-1.56131l4.68392,0l0,4.68392l9.36784,0l0,-10.92914l-9.36784,0l0,4.68392l-4.68392,0c0,-0.86262 -0.69868,-1.56131 -1.56131,-1.56131l-2.34196,0c0.86262,0 1.56131,-0.69868 1.56131,-1.56131s-0.69868,-1.56131 -1.56131,-1.56131l2.34196,0c0.86262,0 1.56131,-0.69868 1.56131,-1.56131l0,-1.56131c0,-0.86262 -0.69868,-1.56131 -1.56131,-1.56131l-5.46457,0l0,-5.46457c0,-1.2912 1.05076,-2.34196 2.34196,-2.34196l3.12261,0l0,4.68392l15.61306,0zm-12.49045,-7.80653l9.36784,0l0,1.56131l-9.36784,0l0,-1.56131zm0,3.12261l9.36784,0l0,1.56131l-9.36784,0l0,-1.56131zm-25.76155,0.78065l-4.68392,0l0,-1.56131l4.68392,0l0,1.56131zm-3.12261,19.51633l-3.12261,0l0,-1.56131l3.12261,0l0,1.56131zm0,-3.12261l-3.12261,0l0,-1.56131l3.12261,0l0,1.56131zm-0.78065,17.17437l1.56131,0l0,1.56131l-1.56131,0l0,-1.56131zm-3.12261,0l1.56131,0l0,1.56131l-1.56131,0l0,-1.56131zm9.36784,4.68392l-9.36784,0l0,-1.56131l9.36784,0l0,1.56131zm0,-3.12261l-3.12261,0l0,-1.56131l3.12261,0l0,1.56131zm28.88416,-1.56131l3.12261,0l0,1.56131l-3.12261,0l0,-1.56131zm0,3.12261l3.12261,0l0,1.56131l-3.12261,0l0,-1.56131zm0.78065,-21.85829l3.12261,0l0,1.56131l-3.12261,0l0,-1.56131zm0,3.12261l3.12261,0l0,1.56131l-3.12261,0l0,-1.56131z"/>
  </g>
 </g>
</svg>