<svg width="87.10000000000001" height="98.2" xmlns="http://www.w3.org/2000/svg">
 <title>icon-eda</title>

 <g>
  <title>background</title>
  <rect x="-1" y="-1" width="89.1" height="100.2" id="canvas_background" fill="none"/>
 </g>
 <g>
  <title>Layer 1</title>
  <path d="m86.9,28.43333a7.7,7.7 0 0 0 -3.5,-6l-36.4,-21a7.7,7.7 0 0 0 -6.9,0l-36.4,21a7.7,7.7 0 0 0 -3.5,6l0,42a7.7,7.7 0 0 0 3.5,6l36.4,21a7.7,7.7 0 0 0 6.9,0l36.4,-21a7.7,7.7 0 0 0 3.5,-6l0,-42z" stroke-width="0.5px" stroke-miterlimit="10" stroke="#000" fill="none" id="svg_2"/>
  <g stroke="null" id="svg_82">
   <g stroke="null" transform="matrix(0.7206390332343762,0,0,0.7206390332343762,2.398440907550736,4.789469917681174) " id="svg_55">
    <path stroke="null" id="svg_57" d="m84.10426,43.48784l-17.2,0a10.2,10.2 0 0 0 0.2,-2a9.964,9.964 0 0 0 -1.45,-5.16l3.78,-2.84l7.67,0l0,-2l-8,0a0.984,0.984 0 0 0 -0.6,0.2l-4.05,3.04a9.957,9.957 0 0 0 -14.7,0l-4.05,-3.04a0.984,0.984 0 0 0 -0.6,-0.2l-8,0l0,2l7.67,0l3.78,2.84a9.964,9.964 0 0 0 -1.45,5.16a10.2,10.2 0 0 0 0.2,2l-17.2,0a3.009,3.009 0 0 0 -3,3l0,32a3.009,3.009 0 0 0 3,3l20,0l0,4l-3,0a1.014,1.014 0 0 0 -0.8,0.4l-3,4a1,1 0 0 0 0.8,1.6l26,0a1,1 0 0 0 0.8,-1.6l-3,-4a1.014,1.014 0 0 0 -0.8,-0.4l-3,0l0,-4l20,0a3.009,3.009 0 0 0 3,-3l0,-32a3.009,3.009 0 0 0 -3,-3zm-26,-9.93a7.978,7.978 0 0 1 4.74,2.37l-2.34,1.76l1.2,1.6l2.34,-1.76a7.945,7.945 0 0 1 1.06,3.96l-7,0l0,-7.93zm-7.94,3.97l2.34,1.76l1.2,-1.6l-2.34,-1.76a7.978,7.978 0 0 1 4.74,-2.37l0,8.93a1,1 0 0 0 1,1l7.74,0a7.995,7.995 0 1 1 -14.68,-5.96zm16.44,49.96l1.5,2l-22,0l1.5,-2l19,0zm-14.5,-2l0,-4l10,0l0,4l-10,0zm33,-7a1,1 0 0 1 -1,1l-54,0a1,1 0 0 1 -1,-1l0,-3l56,0l0,3zm0,-5l-56,0l0,-27a1,1 0 0 1 1,-1l17.84,0a9.992,9.992 0 0 0 18.32,0l17.84,0a1,1 0 0 1 1,1l0,27z"/>
    <path stroke="null" id="svg_58" d="m79.10426,31.48784l4,0l0,2l-4,0l0,-2z"/>
    <path stroke="null" id="svg_59" d="m69.10426,35.48784l2,0l0,2l-2,0l0,-2z"/>
    <path stroke="null" id="svg_60" d="m73.10426,35.48784l10,0l0,2l-10,0l0,-2z"/>
    <path stroke="null" id="svg_61" d="m69.10426,39.48784l8,0l0,2l-8,0l0,-2z"/>
    <path stroke="null" id="svg_62" d="m79.10426,39.48784l4,0l0,2l-4,0l0,-2z"/>
    <path stroke="null" id="svg_63" d="m31.10426,31.48784l4,0l0,2l-4,0l0,-2z"/>
    <path stroke="null" id="svg_64" d="m43.10426,35.48784l2,0l0,2l-2,0l0,-2z"/>
    <path stroke="null" id="svg_65" d="m31.10426,35.48784l10,0l0,2l-10,0l0,-2z"/>
    <path stroke="null" id="svg_66" d="m37.10426,39.48784l8,0l0,2l-8,0l0,-2z"/>
    <path stroke="null" id="svg_67" d="m31.10426,39.48784l4,0l0,2l-4,0l0,-2z"/>
    <path stroke="null" id="svg_68" d="m31.10426,61.48784l5,0l0,2l-5,0l0,-2z"/>
    <path stroke="null" id="svg_69" d="m38.10426,61.48784l19,0l0,2l-19,0l0,-2z"/>
    <path stroke="null" id="svg_70" d="m31.10426,65.48784l16,0l0,2l-16,0l0,-2z"/>
    <path stroke="null" id="svg_71" d="m49.10426,65.48784l8,0l0,2l-8,0l0,-2z"/>
    <path stroke="null" id="svg_72" d="m31.10426,69.48784l10,0l0,2l-10,0l0,-2z"/>
    <path stroke="null" id="svg_73" d="m43.10426,69.48784l14,0l0,2l-14,0l0,-2z"/>
    <path stroke="null" id="svg_74" d="m62.10426,71.48784l4,0a1,1 0 0 0 1,-1l0,-8a1,1 0 0 0 -1,-1l-4,0a1,1 0 0 0 -1,1l0,8a1,1 0 0 0 1,1zm1,-8l2,0l0,6l-2,0l0,-6z"/>
    <path stroke="null" id="svg_75" d="m74.10426,57.48784l-4,0a1,1 0 0 0 -1,1l0,12a1,1 0 0 0 1,1l4,0a1,1 0 0 0 1,-1l0,-12a1,1 0 0 0 -1,-1zm-1,12l-2,0l0,-10l2,0l0,10z"/>
    <path stroke="null" id="svg_76" d="m82.10426,55.48784l-4,0a1,1 0 0 0 -1,1l0,14a1,1 0 0 0 1,1l4,0a1,1 0 0 0 1,-1l0,-14a1,1 0 0 0 -1,-1zm-1,14l-2,0l0,-12l2,0l0,12z"/>
    <path stroke="null" id="svg_77" d="m37.10426,59.48784a6.006,6.006 0 0 0 6,-6a1,1 0 0 0 -1,-1l-4,0l0,-4a1,1 0 0 0 -1,-1a6,6 0 0 0 0,12zm-1,-9.874l0,3.874a1,1 0 0 0 1,1l3.873,0a4,4 0 1 1 -4.873,-4.874z"/>
    <path stroke="null" id="svg_78" d="m45.10426,53.48784l2,0l0,2l-2,0l0,-2z"/>
    <path stroke="null" id="svg_79" d="m49.10426,53.48784l8,0l0,2l-8,0l0,-2z"/>
    <path stroke="null" id="svg_80" d="m45.10426,57.48784l12,0l0,2l-12,0l0,-2z"/>
    <path stroke="null" id="svg_81" d="m67.00426,58.93484l1.718,-3.447l5.382,0a1,1 0 0 0 0.769,-0.36l4.7,-5.64l3.531,0l0,-2l-4,0a1,1 0 0 0 -0.769,0.36l-4.7,5.64l-5.531,0a1,1 0 0 0 -0.9,0.553l-1.718,3.447l-4.382,0l0,2l5,0a1,1 0 0 0 0.9,-0.553z"/>
   </g>
  </g>
 </g>
</svg>